<svg xmlns="http://www.w3.org/2000/svg" viewBox="0 0 640 75"><defs><style>.cls-1{fill:#fff;}.cls-2{fill:#25ced1;}.cls-3{fill:none;stroke:#032624;stroke-miterlimit:10;}</style></defs><g id="ACKNOW"><rect class="cls-1" x="4" y="3.5" width="632" height="68"/><path class="cls-2" d="M632,7.5v60H8V7.5H632m8-8H0v76H640V-.5Z"/></g><g id="Layer_24" data-name="Layer 24"><path class="cls-3" d="M141.89,44.18h-.71a.28.28,0,0,1-.21-.07.42.42,0,0,1-.13-.18l-1.5-3.69h-6.25l-1.5,3.69a.36.36,0,0,1-.12.18.41.41,0,0,1-.22.07h-.7l5.21-12.74h.92Zm-8.52-4.63h5.7l-2.6-6.43-.13-.35-.12-.41c0,.14-.09.28-.13.41s-.08.25-.12.36Z"/><path class="cls-3" d="M154.69,42a.2.2,0,0,1,.15.06l.36.39a6.32,6.32,0,0,1-.87.76,5.59,5.59,0,0,1-1,.57,6.12,6.12,0,0,1-1.21.37,7.34,7.34,0,0,1-1.46.13,6.14,6.14,0,0,1-2.42-.46,5.29,5.29,0,0,1-1.89-1.32,5.84,5.84,0,0,1-1.23-2,7.89,7.89,0,0,1-.44-2.68,7.48,7.48,0,0,1,.45-2.65,6.19,6.19,0,0,1,1.28-2.06,5.86,5.86,0,0,1,2-1.33,6.72,6.72,0,0,1,2.54-.47,7.19,7.19,0,0,1,1.27.1,5.79,5.79,0,0,1,1.07.3,5.2,5.2,0,0,1,.94.48,6.54,6.54,0,0,1,.87.67l-.28.4a.27.27,0,0,1-.23.11.43.43,0,0,1-.21-.09L154,33l-.47-.3a3.12,3.12,0,0,0-.66-.31,6,6,0,0,0-2-.33,5.51,5.51,0,0,0-2.14.4,5,5,0,0,0-1.67,1.14,5.26,5.26,0,0,0-1.09,1.8,6.87,6.87,0,0,0-.4,2.38,7,7,0,0,0,.39,2.41A5.3,5.3,0,0,0,147.06,42a4.69,4.69,0,0,0,1.62,1.13,5.16,5.16,0,0,0,2,.39,7.5,7.5,0,0,0,1.22-.09,4.68,4.68,0,0,0,1-.27,4.78,4.78,0,0,0,.84-.44,8.21,8.21,0,0,0,.77-.61.21.21,0,0,1,.08-.06A.16.16,0,0,1,154.69,42Z"/><path class="cls-3" d="M161.08,37.32h1.06a.86.86,0,0,0,.23-.06.69.69,0,0,0,.19-.1,2.31,2.31,0,0,0,.19-.16l5.14-5.29a1.07,1.07,0,0,1,.26-.2.75.75,0,0,1,.31-.06h.74l-5.56,5.72a2.44,2.44,0,0,1-.3.28,1.64,1.64,0,0,1-.29.16.8.8,0,0,1,.33.17,2,2,0,0,1,.31.29l5.86,6.12h-.74a.59.59,0,0,1-.34-.07,1,1,0,0,1-.2-.18l-5.39-5.5-.18-.17-.19-.13a1.26,1.26,0,0,0-.25-.07l-.36,0h-.82v6.14h-.91V31.42h.91Z"/><path class="cls-3" d="M174.22,31.47a.64.64,0,0,1,.16.14l8.24,11a4.81,4.81,0,0,1,0-.52V31.44h.81V44.18H183a.39.39,0,0,1-.33-.18l-8.28-11a4.63,4.63,0,0,1,0,.51V44.18h-.8V31.44H174A.47.47,0,0,1,174.22,31.47Z"/><path class="cls-3" d="M200.34,37.81a7.56,7.56,0,0,1-.44,2.67,6,6,0,0,1-1.24,2.06,5.6,5.6,0,0,1-1.92,1.31,6.83,6.83,0,0,1-4.93,0,5.7,5.7,0,0,1-1.92-1.31,6,6,0,0,1-1.24-2.06,8.15,8.15,0,0,1,0-5.34,6,6,0,0,1,1.24-2.06,5.7,5.7,0,0,1,1.92-1.31,6.77,6.77,0,0,1,4.93,0,5.49,5.49,0,0,1,1.92,1.32,6,6,0,0,1,1.24,2.06A7.56,7.56,0,0,1,200.34,37.81Zm-1,0a7.46,7.46,0,0,0-.37-2.4,5.13,5.13,0,0,0-1-1.8,4.51,4.51,0,0,0-1.62-1.13,5.77,5.77,0,0,0-4.17,0,4.69,4.69,0,0,0-1.62,1.13,5.15,5.15,0,0,0-1,1.8,7.2,7.2,0,0,0-.37,2.4,7.1,7.1,0,0,0,.37,2.39,5.15,5.15,0,0,0,1,1.8,4.54,4.54,0,0,0,1.62,1.12,5.77,5.77,0,0,0,4.17,0A4.37,4.37,0,0,0,198,42a5.13,5.13,0,0,0,1-1.8A7.36,7.36,0,0,0,199.39,37.81Z"/><path class="cls-3" d="M203.4,31.44h.77a.31.31,0,0,1,.33.25l3.21,10.46a3.69,3.69,0,0,1,.1.39c0,.14.05.28.08.43l.09-.43a3.64,3.64,0,0,1,.11-.39l3.6-10.46a.36.36,0,0,1,.34-.25h.26a.27.27,0,0,1,.2.07.4.4,0,0,1,.13.18l3.6,10.46c0,.12.08.25.11.38s.06.27.09.42c0-.14.06-.28.09-.41a2.23,2.23,0,0,1,.09-.39l3.21-10.46a.36.36,0,0,1,.12-.18.41.41,0,0,1,.22-.07h.7l-4,12.74H216l-3.76-11c0-.15-.09-.3-.13-.46,0,.16-.08.31-.12.46l-3.78,11h-.81Z"/><path class="cls-3" d="M225.62,43.39h6v.79h-6.95V31.44h.91Z"/><path class="cls-3" d="M243.34,31.44v.77h-6.7v5.15h5.58v.74h-5.58v5.31h6.7v.77h-7.63V31.44Z"/><path class="cls-3" d="M258.87,37.81a7.63,7.63,0,0,1-.44,2.65,5.83,5.83,0,0,1-1.24,2,5.6,5.6,0,0,1-1.92,1.27,6.8,6.8,0,0,1-2.48.44h-4.64V31.44h4.64a6.8,6.8,0,0,1,2.48.44,5.6,5.6,0,0,1,1.92,1.27,5.93,5.93,0,0,1,1.24,2A7.63,7.63,0,0,1,258.87,37.81Zm-1,0a7.3,7.3,0,0,0-.36-2.38,5.1,5.1,0,0,0-1-1.76,4.44,4.44,0,0,0-1.62-1.1,5.65,5.65,0,0,0-2.1-.38h-3.71V43.43h3.71a5.65,5.65,0,0,0,2.1-.38A4.54,4.54,0,0,0,256.51,42a5.25,5.25,0,0,0,1-1.77A7.26,7.26,0,0,0,257.91,37.81Z"/><path class="cls-3" d="M269.1,43.58a10.78,10.78,0,0,0,1.2-.07,7,7,0,0,0,1-.21,5.71,5.71,0,0,0,.88-.32c.28-.13.56-.28.85-.44V39.11h-2.45a.25.25,0,0,1-.17-.06.21.21,0,0,1-.07-.15v-.5h3.52v4.53a8.33,8.33,0,0,1-1,.59,6.31,6.31,0,0,1-1.1.44,10.71,10.71,0,0,1-1.26.27,11.16,11.16,0,0,1-1.47.09,6.61,6.61,0,0,1-2.52-.46,5.52,5.52,0,0,1-1.95-1.32,5.9,5.9,0,0,1-1.26-2,7.65,7.65,0,0,1-.45-2.68,7.57,7.57,0,0,1,.45-2.68,5.58,5.58,0,0,1,3.28-3.37,7.24,7.24,0,0,1,2.66-.46,8,8,0,0,1,1.34.1,5.87,5.87,0,0,1,1.15.29,5.66,5.66,0,0,1,1,.48,6.64,6.64,0,0,1,.88.65l-.24.4a.26.26,0,0,1-.23.13.28.28,0,0,1-.15,0,1.69,1.69,0,0,1-.39-.25,4,4,0,0,0-.69-.41,6,6,0,0,0-1.1-.39,6.62,6.62,0,0,0-1.59-.17,5.88,5.88,0,0,0-2.24.4,4.69,4.69,0,0,0-1.71,1.13,5.08,5.08,0,0,0-1.09,1.8,7.13,7.13,0,0,0-.38,2.39,7.06,7.06,0,0,0,.39,2.42A5.35,5.35,0,0,0,265.27,42,4.56,4.56,0,0,0,267,43.18,5.75,5.75,0,0,0,269.1,43.58Z"/><path class="cls-3" d="M286.53,31.44v.77h-6.7v5.15h5.58v.74h-5.58v5.31h6.7v.77H278.9V31.44Z"/><path class="cls-3" d="M297.69,41l.12-.28a1.69,1.69,0,0,1,.13-.27l5-8.85a.46.46,0,0,1,.14-.14.56.56,0,0,1,.2,0h.64V44.18h-.81V33.32a4.29,4.29,0,0,1,0-.49l-5,8.9a.39.39,0,0,1-.36.23h-.15a.39.39,0,0,1-.36-.23l-5.15-8.91a4.32,4.32,0,0,1,0,.5V44.18h-.8V31.44H292a.56.56,0,0,1,.2,0,.39.39,0,0,1,.15.14l5.14,8.86A3.25,3.25,0,0,1,297.69,41Z"/><path class="cls-3" d="M317.13,31.44v.77h-6.7v5.15H316v.74h-5.58v5.31h6.7v.77H309.5V31.44Z"/><path class="cls-3" d="M322.59,31.47a.48.48,0,0,1,.15.14l8.24,11c0-.18,0-.36,0-.52V31.44h.81V44.18h-.44A.41.41,0,0,1,331,44l-8.28-11a4.63,4.63,0,0,1,0,.51V44.18h-.8V31.44h.45A.56.56,0,0,1,322.59,31.47Z"/><path class="cls-3" d="M345.66,31.44v.79h-4.47v12h-.92v-12h-4.5v-.79Z"/><path class="cls-3" d="M364.53,44.18h-.71a.28.28,0,0,1-.21-.07.42.42,0,0,1-.13-.18L362,40.24h-6.25l-1.5,3.69a.36.36,0,0,1-.12.18.41.41,0,0,1-.22.07h-.7l5.21-12.74h.92ZM356,39.55h5.71l-2.6-6.43-.13-.35-.12-.41c0,.14-.09.28-.13.41l-.12.36Z"/><path class="cls-3" d="M369,31.47a.48.48,0,0,1,.15.14l8.25,11a4.81,4.81,0,0,1,0-.52V31.44h.81V44.18h-.44a.38.38,0,0,1-.33-.18l-8.28-11c0,.18,0,.35,0,.51V44.18h-.8V31.44h.45A.53.53,0,0,1,369,31.47Z"/><path class="cls-3" d="M394.47,37.81a7.63,7.63,0,0,1-.44,2.65,5.69,5.69,0,0,1-1.24,2,5.6,5.6,0,0,1-1.92,1.27,6.74,6.74,0,0,1-2.47.44h-4.65V31.44h4.65a6.74,6.74,0,0,1,2.47.44,5.6,5.6,0,0,1,1.92,1.27,5.78,5.78,0,0,1,1.24,2A7.63,7.63,0,0,1,394.47,37.81Zm-1,0a7.29,7.29,0,0,0-.37-2.38,5.1,5.1,0,0,0-1-1.76,4.44,4.44,0,0,0-1.62-1.1,5.63,5.63,0,0,0-2.09-.38h-3.72V43.43h3.72a5.63,5.63,0,0,0,2.09-.38A4.54,4.54,0,0,0,392.11,42a5.25,5.25,0,0,0,1-1.77A7.25,7.25,0,0,0,393.52,37.81Z"/><path class="cls-3" d="M410.67,33a.25.25,0,0,1-.23.15.53.53,0,0,1-.31-.16,3.41,3.41,0,0,0-.5-.37,3.89,3.89,0,0,0-.79-.38,4,4,0,0,0-2.39,0,2.56,2.56,0,0,0-.89.54,2.35,2.35,0,0,0-.72,1.74,2,2,0,0,0,.27,1.07,2.64,2.64,0,0,0,.73.72,4.84,4.84,0,0,0,1,.5l1.18.4c.4.13.79.28,1.17.44a4.32,4.32,0,0,1,1,.59,2.67,2.67,0,0,1,1,2.2A4,4,0,0,1,411,42a3.61,3.61,0,0,1-.79,1.23,3.91,3.91,0,0,1-1.28.82,4.68,4.68,0,0,1-1.73.3,5,5,0,0,1-2.17-.44,5.12,5.12,0,0,1-1.59-1.22l.25-.4a.31.31,0,0,1,.25-.13.33.33,0,0,1,.21.1c.08.08.19.16.31.27s.26.22.43.34a3.54,3.54,0,0,0,.58.34,3.86,3.86,0,0,0,.77.27,4.2,4.2,0,0,0,1,.11,3.74,3.74,0,0,0,1.35-.23,2.94,2.94,0,0,0,1-.63,2.78,2.78,0,0,0,.63-.94,3.19,3.19,0,0,0,.21-1.16,2.14,2.14,0,0,0-.27-1.12,2.54,2.54,0,0,0-.73-.73,5.36,5.36,0,0,0-1-.49l-1.18-.38q-.6-.2-1.17-.42a4.16,4.16,0,0,1-1-.6,2.79,2.79,0,0,1-.72-.91,3,3,0,0,1-.28-1.37,3.11,3.11,0,0,1,.25-1.23,3.2,3.2,0,0,1,.71-1.05,3.65,3.65,0,0,1,1.16-.73,4.27,4.27,0,0,1,1.57-.27,4.78,4.78,0,0,1,1.78.31,4.31,4.31,0,0,1,1.44,1Z"/><path class="cls-3" d="M416.9,39.05v5.13H416V31.44h3.28a5,5,0,0,1,3.38,1,3.5,3.5,0,0,1,1.14,2.8,3.72,3.72,0,0,1-.31,1.54,3.43,3.43,0,0,1-.89,1.21,4.08,4.08,0,0,1-1.42.79,5.88,5.88,0,0,1-1.9.29Zm0-.74h2.36a4.76,4.76,0,0,0,1.52-.23,3.56,3.56,0,0,0,1.13-.65,2.87,2.87,0,0,0,.71-1,3.07,3.07,0,0,0,.24-1.23A2.87,2.87,0,0,0,422,33a4,4,0,0,0-2.7-.79H416.9Z"/><path class="cls-3" d="M439.55,37.81a7.79,7.79,0,0,1-.44,2.67,6,6,0,0,1-1.24,2.06A5.7,5.7,0,0,1,436,43.85a6.83,6.83,0,0,1-4.93,0,5.6,5.6,0,0,1-1.92-1.31,6,6,0,0,1-1.24-2.06,8.15,8.15,0,0,1,0-5.34,6,6,0,0,1,1.24-2.06A5.6,5.6,0,0,1,431,31.77a6.77,6.77,0,0,1,4.93,0,5.59,5.59,0,0,1,1.92,1.32,6,6,0,0,1,1.24,2.06A7.79,7.79,0,0,1,439.55,37.81Zm-.95,0a7.46,7.46,0,0,0-.37-2.4,5.29,5.29,0,0,0-1-1.8,4.51,4.51,0,0,0-1.62-1.13,5.77,5.77,0,0,0-4.17,0,4.51,4.51,0,0,0-1.62,1.13,5.15,5.15,0,0,0-1,1.8,7.19,7.19,0,0,0-.38,2.4,7.09,7.09,0,0,0,.38,2.39,5.15,5.15,0,0,0,1,1.8,4.37,4.37,0,0,0,1.62,1.12,5.77,5.77,0,0,0,4.17,0A4.37,4.37,0,0,0,437.19,42a5.29,5.29,0,0,0,1-1.8A7.36,7.36,0,0,0,438.6,37.81Z"/><path class="cls-3" d="M445,31.47a.88.88,0,0,1,.15.14l8.24,11a4.7,4.7,0,0,1,0-.52V31.44h.8V44.18h-.44a.4.4,0,0,1-.33-.18l-8.28-11a4.63,4.63,0,0,1,0,.51V44.18h-.8V31.44h.45A.56.56,0,0,1,445,31.47Z"/><path class="cls-3" d="M465.92,33a.25.25,0,0,1-.23.15.53.53,0,0,1-.31-.16,3.41,3.41,0,0,0-.5-.37,3.89,3.89,0,0,0-.79-.38,4,4,0,0,0-2.39,0,2.43,2.43,0,0,0-.88.54,2.4,2.4,0,0,0-.55.79,2.55,2.55,0,0,0-.18.95,2,2,0,0,0,.27,1.07,2.64,2.64,0,0,0,.73.72,4.84,4.84,0,0,0,1,.5l1.18.4c.4.13.79.28,1.17.44a4.13,4.13,0,0,1,1,.59,2.67,2.67,0,0,1,1,2.2,4,4,0,0,1-.28,1.51,3.61,3.61,0,0,1-.79,1.23,3.91,3.91,0,0,1-1.28.82,4.68,4.68,0,0,1-1.73.3,5,5,0,0,1-2.17-.44,5.12,5.12,0,0,1-1.59-1.22l.25-.4a.31.31,0,0,1,.25-.13.33.33,0,0,1,.21.1c.08.08.19.16.31.27s.26.22.43.34a3.54,3.54,0,0,0,.58.34,3.86,3.86,0,0,0,.77.27,4.2,4.2,0,0,0,1,.11,3.84,3.84,0,0,0,1.36-.23,3,3,0,0,0,1-.63,2.78,2.78,0,0,0,.63-.94,3.19,3.19,0,0,0,.21-1.16,2.14,2.14,0,0,0-.27-1.12,2.54,2.54,0,0,0-.73-.73,5.36,5.36,0,0,0-1-.49l-1.18-.38q-.6-.2-1.17-.42a4.35,4.35,0,0,1-1-.6,2.79,2.79,0,0,1-.72-.91,3.32,3.32,0,0,1,0-2.6,3.2,3.2,0,0,1,.71-1.05,3.65,3.65,0,0,1,1.16-.73,4.27,4.27,0,0,1,1.57-.27,4.78,4.78,0,0,1,1.78.31,4.31,4.31,0,0,1,1.44,1Z"/><path class="cls-3" d="M482.32,37.81a7.79,7.79,0,0,1-.44,2.67,6.16,6.16,0,0,1-1.24,2.06,5.7,5.7,0,0,1-1.92,1.31,6.41,6.41,0,0,1-2.48.46,6.29,6.29,0,0,1-2.45-.46,5.51,5.51,0,0,1-1.92-1.31,6,6,0,0,1-1.25-2.06,8.32,8.32,0,0,1,0-5.34,6,6,0,0,1,1.25-2.06,5.51,5.51,0,0,1,1.92-1.31,6.29,6.29,0,0,1,2.45-.47,6.41,6.41,0,0,1,2.48.46,5.59,5.59,0,0,1,1.92,1.32,6.16,6.16,0,0,1,1.24,2.06A7.79,7.79,0,0,1,482.32,37.81Zm-1,0a7.47,7.47,0,0,0-.36-2.4,5.29,5.29,0,0,0-1-1.8,4.51,4.51,0,0,0-1.62-1.13,5.46,5.46,0,0,0-2.1-.39,5.37,5.37,0,0,0-2.07.39,4.51,4.51,0,0,0-1.62,1.13,5.15,5.15,0,0,0-1.05,1.8,7.19,7.19,0,0,0-.38,2.4,7.09,7.09,0,0,0,.38,2.39,5.15,5.15,0,0,0,1.05,1.8,4.37,4.37,0,0,0,1.62,1.12,5.37,5.37,0,0,0,2.07.39,5.46,5.46,0,0,0,2.1-.39A4.37,4.37,0,0,0,480,42a5.29,5.29,0,0,0,1-1.8A7.36,7.36,0,0,0,481.36,37.81Z"/><path class="cls-3" d="M488.3,38.42v5.76h-.92V31.44h3.25a5.38,5.38,0,0,1,3.3.85,3,3,0,0,1,1.09,2.5,3.36,3.36,0,0,1-.26,1.33,2.94,2.94,0,0,1-.72,1.06,3.89,3.89,0,0,1-1.14.75,5.15,5.15,0,0,1-1.5.38,1.64,1.64,0,0,1,.39.36l4.38,5.51h-.8a.49.49,0,0,1-.25-.06.48.48,0,0,1-.2-.18l-4.08-5.16a.85.85,0,0,0-.33-.28,1.25,1.25,0,0,0-.54-.08Zm0-.69h2.22a5,5,0,0,0,1.51-.2,3.23,3.23,0,0,0,1.14-.58,2.4,2.4,0,0,0,.7-.91,2.71,2.71,0,0,0,.25-1.2,2.35,2.35,0,0,0-.89-2,4.34,4.34,0,0,0-2.6-.66H488.3Z"/><path class="cls-3" d="M506.44,33a.26.26,0,0,1-.24.15.49.49,0,0,1-.3-.16,3.41,3.41,0,0,0-.5-.37,3.89,3.89,0,0,0-.79-.38,3.61,3.61,0,0,0-1.17-.17,3.51,3.51,0,0,0-1.22.2,2.56,2.56,0,0,0-.89.54,2.23,2.23,0,0,0-.54.79,2.55,2.55,0,0,0-.18.95,2,2,0,0,0,.27,1.07,2.51,2.51,0,0,0,.73.72,4.84,4.84,0,0,0,1,.5l1.18.4c.4.13.79.28,1.17.44a4.25,4.25,0,0,1,1,.59,2.75,2.75,0,0,1,.73.89,2.86,2.86,0,0,1,.27,1.31,4.17,4.17,0,0,1-.27,1.51,3.49,3.49,0,0,1-.8,1.23,3.76,3.76,0,0,1-1.27.82,4.68,4.68,0,0,1-1.73.3,5,5,0,0,1-2.17-.44,5.12,5.12,0,0,1-1.59-1.22l.25-.4a.3.3,0,0,1,.25-.13.38.38,0,0,1,.21.1l.3.27c.12.1.27.22.44.34a3.17,3.17,0,0,0,.58.34,3.65,3.65,0,0,0,.77.27,4.13,4.13,0,0,0,1,.11,3.74,3.74,0,0,0,1.35-.23,3,3,0,0,0,1-.63,2.61,2.61,0,0,0,.62-.94,3,3,0,0,0,.22-1.16,2.14,2.14,0,0,0-.27-1.12,2.54,2.54,0,0,0-.73-.73,5.36,5.36,0,0,0-1-.49L503,37.88c-.4-.13-.79-.27-1.18-.42a4.28,4.28,0,0,1-1-.6A2.79,2.79,0,0,1,500,36a3,3,0,0,1-.28-1.37,3.28,3.28,0,0,1,.24-1.23,3.23,3.23,0,0,1,.72-1.05,3.6,3.6,0,0,1,1.15-.73,4.33,4.33,0,0,1,1.58-.27,4.78,4.78,0,0,1,1.78.31,4.17,4.17,0,0,1,1.43,1Z"/></g></svg>