<svg xmlns="http://www.w3.org/2000/svg" viewBox="0 0 210 200"><defs><style>.cls-1,.cls-3{fill:#fff;}.cls-2,.cls-4{fill:#ea526f;}.cls-3,.cls-4,.cls-5,.cls-6{stroke:#000;}.cls-3,.cls-4,.cls-6,.cls-7{stroke-miterlimit:10;}.cls-3,.cls-5{stroke-width:0.5px;}.cls-4,.cls-6{stroke-width:0.25px;}.cls-5,.cls-7{fill:none;}.cls-5{stroke-linecap:round;stroke-linejoin:round;}.cls-6{fill:#25ced1;}.cls-7{stroke:#032624;}</style></defs><g id="ENTRE"><rect class="cls-1" x="4" y="4" width="202" height="192"/><path class="cls-2" d="M202,8V192H8V8H202m8-8H0V200H210V0Z"/></g><g id="Layer_21" data-name="Layer 21"><polygon class="cls-3" points="86.95 184.36 58.06 177.97 56.84 148.15 85.73 154.55 86.95 184.36"/><polygon class="cls-3" points="86.95 184.36 110.04 171.76 108.82 141.95 85.73 154.55 86.95 184.36"/><polygon class="cls-3" points="85.73 154.55 56.84 148.15 78.8 136.15 108.82 141.95 85.73 154.55"/><polygon class="cls-3" points="138.91 177.59 110.02 171.19 108.8 141.38 137.69 147.78 138.91 177.59"/><polygon class="cls-3" points="138.91 177.59 162 164.99 160.78 135.18 137.69 147.78 138.91 177.59"/><polygon class="cls-3" points="137.69 147.78 108.8 141.38 131.68 129.34 160.78 135.18 137.69 147.78"/><polygon class="cls-3" points="108.13 141.92 78.77 135.23 78.02 105.71 106.91 112.11 108.13 141.92"/><polygon class="cls-3" points="108.13 141.92 131.22 129.32 130 99.51 106.91 112.11 108.13 141.92"/><polygon class="cls-3" points="106.91 112.11 78.02 105.71 101.15 94.12 130 99.51 106.91 112.11"/><circle class="cls-3" cx="79.65" cy="130.16" r="17.84"/><path class="cls-4" d="M83.45,123.12l.8,2.27,3.46.55c-.53.59-1,1.14-1.51,1.67-.07.07-.26,0-.39,0-.59-.07-1.18-.18-1.77-.25a.46.46,0,0,0-.37.16c-1,2.58-3.08,3.49-5.6,3.77-.48.05-1,.06-1.51.09l5.94,10.8c-1.11-.17-2.13-.32-3.14-.51a.58.58,0,0,1-.32-.3q-2.76-4.91-5.53-9.81a1.33,1.33,0,0,1-.17-1.06c.11-.41.18-.83.27-1.3,1,.16,2,.38,3,.47a4,4,0,0,0,4.28-2.49c0-.08.05-.18.11-.35l-7.47-1.19c.54-.65,1-1.21,1.47-1.75.08-.09.31-.08.47-.06l5.2.89a2.33,2.33,0,0,0,.32,0,2.64,2.64,0,0,0-1.12-1.54,6.93,6.93,0,0,0-2.75-1.07c-1-.19-2-.32-3.07-.5.56-.6,1-1.15,1.56-1.66a.52.52,0,0,1,.39-.07l12.16,1.9a1.08,1.08,0,0,1,.18.06,9.69,9.69,0,0,0-.91,1.06,1.26,1.26,0,0,1-1.55.56C85.06,123.33,84.24,123.25,83.45,123.12Z"/><path class="cls-5" d="M76.74,115.86a14.59,14.59,0,1,1-11.5,12,14.41,14.41,0,0,1,1.14-3.78"/><path class="cls-5" d="M71.74,117.85a14.83,14.83,0,0,1,3.54-1.65"/><path class="cls-5" d="M67.1,122.63a14.63,14.63,0,0,1,3-3.53"/><circle class="cls-3" cx="104.6" cy="79.97" r="23.97"/><path class="cls-6" d="M108.17,69.83l1.54,2.84h4.7c-.57.9-1.09,1.73-1.64,2.53-.08.11-.34.13-.52.13-.8,0-1.6,0-2.41,0-.15,0-.42.16-.44.29-.77,3.63-3.36,5.28-6.64,6.18-.62.18-1.27.28-2,.44l10.16,13.09c-1.51,0-2.89,0-4.27,0-.16,0-.36-.18-.48-.33q-4.71-5.92-9.42-11.85a1.76,1.76,0,0,1-.44-1.38c.05-.56.05-1.13.08-1.78,1.39,0,2.73.08,4.07,0a5.29,5.29,0,0,0,5.14-4.2c0-.12,0-.25.08-.49H95.53c.58-1,1-1.83,1.57-2.63.09-.14.41-.18.61-.18l7.1.08.43,0a3.57,3.57,0,0,0-1.82-1.81,9.24,9.24,0,0,0-3.87-.84c-1.34-.05-2.69,0-4.18,0,.62-.92,1.16-1.74,1.73-2.54a.68.68,0,0,1,.5-.17l16.53-.05.26.05a12.63,12.63,0,0,0-1,1.6,1.69,1.69,0,0,1-1.94,1.07C110.35,69.77,109.24,69.83,108.17,69.83Z"/><path class="cls-5" d="M97.74,61.61a19.57,19.57,0,1,1-12,13.11"/><path class="cls-5" d="M91.52,65.3a19.85,19.85,0,0,1,4.34-2.94"/><path class="cls-5" d="M86.37,72.62a19.39,19.39,0,0,1,3.19-5.3"/><ellipse class="cls-3" cx="129.55" cy="126.57" rx="15.5" ry="17.45" transform="translate(-51.53 122.9) rotate(-43.17)"/><ellipse class="cls-3" cx="131.15" cy="125.72" rx="15.5" ry="17.4" transform="translate(-50.51 123.76) rotate(-43.17)"/><path class="cls-6" d="M127.79,118.77l2.14.83,2.22-2.09c.17.73.34,1.4.48,2.07,0,.09-.1.22-.18.3-.37.36-.75.71-1.11,1.08a.36.36,0,0,0-.07.35,5.53,5.53,0,0,1-.06,6.21c-.21.37-.46.71-.73,1.12l11.3,2.43c-.71.67-1.36,1.28-2,1.88a.58.58,0,0,1-.4,0c-3.44-.7-6.88-1.42-10.32-2.11a1.44,1.44,0,0,1-.9-.53c-.25-.33-.53-.63-.84-1,.65-.62,1.33-1.17,1.91-1.81a3.55,3.55,0,0,0,.34-4.5,2.62,2.62,0,0,0-.2-.29l-4.8,4.49c-.21-.78-.41-1.43-.56-2.09,0-.11.1-.27.2-.36,1.12-1,2.26-2.06,3.39-3.1l.18-.2a2.46,2.46,0,0,0-1.75-.16,5.47,5.47,0,0,0-2.25,1.27c-.65.57-1.27,1.18-2,1.85-.17-.77-.32-1.44-.45-2.12a.42.42,0,0,1,.15-.31l7.77-7.34.15-.08a9.57,9.57,0,0,0,.33,1.28,1.09,1.09,0,0,1-.39,1.43C128.79,117.77,128.3,118.3,127.79,118.77Z"/><path class="cls-5" d="M118.79,119a11.38,11.38,0,0,1,2.62-3.69c5.11-4.79,13.6-4,19,1.71s5.6,14.26.49,19-13.6,4-19-1.7a16.25,16.25,0,0,1-2.28-3.1"/><path class="cls-5" d="M117.69,123.74a12.75,12.75,0,0,1,.59-3.48"/><path class="cls-5" d="M118.9,129.89a14.61,14.61,0,0,1-1.13-4.22"/></g><g id="Layer_23" data-name="Layer 23"><path class="cls-7" d="M23.62,28.22v.68h-6v4.58h5v.66h-5v4.72h6v.68H16.84V28.22Z"/><path class="cls-7" d="M28.47,28.25a.33.33,0,0,1,.14.13l7.33,9.8a3.67,3.67,0,0,1,0-.46v-9.5h.72V39.54h-.39a.35.35,0,0,1-.3-.16l-7.36-9.82a3.64,3.64,0,0,1,0,.45v9.53H27.9V28.22h.4A.4.4,0,0,1,28.47,28.25Z"/><path class="cls-7" d="M49,28.22v.7H45V39.54h-.82V28.92h-4v-.7Z"/><path class="cls-7" d="M53.6,34.42v5.12h-.82V28.22h2.89A4.67,4.67,0,0,1,58.6,29a2.62,2.62,0,0,1,1,2.22,3,3,0,0,1-.23,1.18,2.62,2.62,0,0,1-.64.94,3.63,3.63,0,0,1-1,.67,4.87,4.87,0,0,1-1.34.34,1.31,1.31,0,0,1,.35.32l3.89,4.89h-.71a.48.48,0,0,1-.22,0,.7.7,0,0,1-.18-.17l-3.62-4.59a.74.74,0,0,0-.3-.24,1.12,1.12,0,0,0-.48-.08Zm0-.6h2a4.68,4.68,0,0,0,1.35-.19,3,3,0,0,0,1-.51,2.15,2.15,0,0,0,.63-.81,2.42,2.42,0,0,0,.22-1.06A2.08,2.08,0,0,0,58,29.46a3.86,3.86,0,0,0-2.31-.59H53.6Z"/><path class="cls-7" d="M71,28.22v.68h-6v4.58h5v.66h-5v4.72h6v.68H64.24V28.22Z"/><path class="cls-7" d="M76.35,35v4.56h-.81V28.22h2.92a4.49,4.49,0,0,1,3,.87,3.15,3.15,0,0,1,1,2.49A3.38,3.38,0,0,1,82.2,33,3,3,0,0,1,81.4,34a3.84,3.84,0,0,1-1.26.7,5.2,5.2,0,0,1-1.68.25Zm0-.65h2.11a4,4,0,0,0,1.34-.21,2.89,2.89,0,0,0,1-.58,2.4,2.4,0,0,0,.64-.87,2.75,2.75,0,0,0,.22-1.09,2.49,2.49,0,0,0-.81-2,3.52,3.52,0,0,0-2.39-.71H76.35Z"/><path class="cls-7" d="M87.45,34.42v5.12h-.82V28.22h2.89a4.69,4.69,0,0,1,2.93.76,2.65,2.65,0,0,1,1,2.22,3,3,0,0,1-.23,1.18,2.76,2.76,0,0,1-.64.94,3.63,3.63,0,0,1-1,.67,4.87,4.87,0,0,1-1.34.34,1.14,1.14,0,0,1,.34.32l3.9,4.89h-.71a.48.48,0,0,1-.22,0,.7.7,0,0,1-.18-.17L89.7,34.74a.72.72,0,0,0-.29-.24,1.12,1.12,0,0,0-.48-.08Zm0-.6h2a4.56,4.56,0,0,0,1.34-.19,2.91,2.91,0,0,0,1-.51,2.15,2.15,0,0,0,.63-.81,2.57,2.57,0,0,0,.22-1.06,2.06,2.06,0,0,0-.8-1.79,3.81,3.81,0,0,0-2.3-.59H87.45Z"/><path class="cls-7" d="M104.87,28.22v.68h-6v4.58h5v.66h-5v4.72h6v.68H98.09V28.22Z"/><path class="cls-7" d="M109.72,28.25a.4.4,0,0,1,.14.13l7.32,9.8c0-.16,0-.31,0-.46v-9.5h.72V39.54h-.39a.35.35,0,0,1-.3-.16l-7.36-9.82a3.64,3.64,0,0,1,0,.45v9.53h-.72V28.22h.4A.42.42,0,0,1,109.72,28.25Z"/><path class="cls-7" d="M129.62,28.22v.68h-6v4.58h5v.66h-5v4.72h6v.68h-6.78V28.22Z"/><path class="cls-7" d="M138.08,39a3.59,3.59,0,0,0,1.46-.29,3.07,3.07,0,0,0,1.09-.78,3.51,3.51,0,0,0,.69-1.19,4.73,4.73,0,0,0,.23-1.48v-7h.82v7a5,5,0,0,1-.3,1.75,4.33,4.33,0,0,1-.85,1.42,3.82,3.82,0,0,1-1.35.94,4.75,4.75,0,0,1-3.58,0,3.82,3.82,0,0,1-1.35-.94,4.33,4.33,0,0,1-.85-1.42,5,5,0,0,1-.3-1.75v-7h.83v7a4.42,4.42,0,0,0,.23,1.48,3.66,3.66,0,0,0,.68,1.19,3.22,3.22,0,0,0,1.09.79A3.59,3.59,0,0,0,138.08,39Z"/><path class="cls-7" d="M148.29,34.42v5.12h-.82V28.22h2.89a4.69,4.69,0,0,1,2.93.76,2.65,2.65,0,0,1,1,2.22,3,3,0,0,1-.23,1.18,2.76,2.76,0,0,1-.64.94,3.63,3.63,0,0,1-1,.67,4.87,4.87,0,0,1-1.34.34,1.14,1.14,0,0,1,.34.32l3.9,4.89h-.71a.48.48,0,0,1-.22,0,.7.7,0,0,1-.18-.17l-3.63-4.59a.72.72,0,0,0-.29-.24,1.12,1.12,0,0,0-.48-.08Zm0-.6h2a4.56,4.56,0,0,0,1.34-.19,2.91,2.91,0,0,0,1-.51,2.15,2.15,0,0,0,.63-.81,2.57,2.57,0,0,0,.22-1.06,2.06,2.06,0,0,0-.8-1.79,3.83,3.83,0,0,0-2.3-.59h-2.07Z"/><path class="cls-7" d="M164.41,29.6a.24.24,0,0,1-.21.14.46.46,0,0,1-.27-.15,3.47,3.47,0,0,0-1.15-.66,3.09,3.09,0,0,0-1-.15,3,3,0,0,0-1.08.17,2.29,2.29,0,0,0-.79.48,2.08,2.08,0,0,0-.48.7,2.21,2.21,0,0,0-.17.84,1.67,1.67,0,0,0,.25,1,2.29,2.29,0,0,0,.64.64A4.52,4.52,0,0,0,161,33l1,.36c.35.11.7.24,1,.38a3.91,3.91,0,0,1,.91.54,2.4,2.4,0,0,1,.65.79,2.52,2.52,0,0,1,.24,1.16,3.75,3.75,0,0,1-.24,1.34,3.21,3.21,0,0,1-.71,1.09,3.33,3.33,0,0,1-1.14.73,4.05,4.05,0,0,1-1.53.27,4.4,4.4,0,0,1-1.93-.39,4.69,4.69,0,0,1-1.42-1.09l.23-.35a.28.28,0,0,1,.22-.12.32.32,0,0,1,.19.1l.27.23a4.6,4.6,0,0,0,.38.3,2.86,2.86,0,0,0,.52.31,3.87,3.87,0,0,0,.68.23,3.38,3.38,0,0,0,.88.1,3.43,3.43,0,0,0,1.2-.2,2.6,2.6,0,0,0,.89-.56,2.34,2.34,0,0,0,.56-.84,2.7,2.7,0,0,0,.19-1,1.86,1.86,0,0,0-.24-1,2.24,2.24,0,0,0-.65-.65,4,4,0,0,0-.91-.43c-.34-.12-.68-.24-1-.35s-.71-.23-1.05-.37a3.88,3.88,0,0,1-.91-.53,2.42,2.42,0,0,1-.64-.81,2.63,2.63,0,0,1-.25-1.22,3,3,0,0,1,.22-1.09,2.79,2.79,0,0,1,.63-.93,3.07,3.07,0,0,1,1-.65,3.84,3.84,0,0,1,1.4-.25,4.16,4.16,0,0,1,1.58.29,3.77,3.77,0,0,1,1.28.85Z"/><path class="cls-7" d="M177.62,39.54h-.82V34.12h-7.09v5.42h-.82V28.22h.82V33.5h7.09V28.22h.82Z"/><path class="cls-7" d="M183.7,39.54h-.82V28.22h.82Z"/><path class="cls-7" d="M190,35v4.56h-.81V28.22h2.92a4.48,4.48,0,0,1,3,.87,3.15,3.15,0,0,1,1,2.49,3.38,3.38,0,0,1-.27,1.37,3,3,0,0,1-.8,1.08,3.84,3.84,0,0,1-1.26.7,5.2,5.2,0,0,1-1.68.25Zm0-.65h2.11a4,4,0,0,0,1.34-.21,2.8,2.8,0,0,0,1-.58,2.4,2.4,0,0,0,.64-.87,2.75,2.75,0,0,0,.22-1.09,2.49,2.49,0,0,0-.81-2,3.52,3.52,0,0,0-2.39-.71H190Z"/></g></svg>