<svg xmlns="http://www.w3.org/2000/svg" viewBox="0 0 210 200"><defs><style>.cls-1,.cls-3,.cls-4{fill:#fff;}.cls-2{fill:#ea526f;}.cls-3,.cls-4{stroke:#000;stroke-width:0.5px;}.cls-3,.cls-5,.cls-6,.cls-7{stroke-miterlimit:10;}.cls-4{stroke-linecap:round;stroke-linejoin:round;}.cls-5,.cls-6,.cls-7{fill:none;}.cls-5{stroke:#ea526f;}.cls-6{stroke:#25ced1;}.cls-7{stroke:#032624;}</style></defs><g id="ENG._SUCCESS" data-name="ENG. SUCCESS"><rect class="cls-1" x="4" y="4" width="202" height="192"/><path class="cls-2" d="M202,8V192H8V8H202m8-8H0V200H210V0Z"/></g><g id="Layer_22" data-name="Layer 22"><path class="cls-3" d="M44.21,138.75l3,30.58,6.68-6.21c33.37,30.35,81.53,24.75,111.92-8.6l-14-12.77c-23.25,25.51-58.36,31.4-84,8.42l5.52-5.12Z"/><path class="cls-3" d="M144.72,161.06l30.57-3-6.21-6.68c30.35-33.37,24.75-81.53-8.6-111.92l-12.77,14c25.51,23.25,31.4,58.36,8.42,84L151,131.91Z"/><path class="cls-3" d="M166.73,60.29l-3-30.57L157,35.93C123.68,5.58,75.52,11.18,45.13,44.53l14,12.77c23.25-25.52,58.36-31.4,84-8.42L137.59,54Z"/><path class="cls-3" d="M66.23,38,35.66,41l6.2,6.68C11.51,81,17.12,129.2,50.47,159.59l12.76-14c-25.51-23.25-31.4-58.36-8.42-84l5.13,5.51Z"/><polyline class="cls-4" points="53.92 163.14 47.09 169.48 44.45 138.49 73.19 145.23 67.86 150.18"/><path class="cls-5" d="M98.92,172.63l-.08.42-2.43-.47-1.28,6.48-.49-.1,1.27-6.48L93.47,172l.09-.43Z"/><path class="cls-5" d="M105,173.06l0,.42-3.7-.22-.17,2.84,3.08.19,0,.41-3.07-.19-.18,2.93,3.7.23,0,.42-4.21-.26.43-7Z"/><path class="cls-5" d="M110.7,173.62a.17.17,0,0,1-.12.1.38.38,0,0,1-.18-.08,1.62,1.62,0,0,0-.29-.19,2.51,2.51,0,0,0-.45-.17,1.84,1.84,0,0,0-.65-.05,1.88,1.88,0,0,0-.66.15,1.52,1.52,0,0,0-.47.33,1.27,1.27,0,0,0-.27.46,1.36,1.36,0,0,0-.07.53,1.11,1.11,0,0,0,.19.58,1.53,1.53,0,0,0,.43.37,2.52,2.52,0,0,0,.58.24l.67.17.66.2a2.32,2.32,0,0,1,.59.29,1.57,1.57,0,0,1,.43.46,1.52,1.52,0,0,1,.2.71,2.39,2.39,0,0,1-.09.85,1.88,1.88,0,0,1-.4.7,1.92,1.92,0,0,1-.67.51,2.65,2.65,0,0,1-.94.23,2.67,2.67,0,0,1-2.14-.78l.13-.23a.16.16,0,0,1,.13-.08.19.19,0,0,1,.12.05l.18.13a1.8,1.8,0,0,0,.25.18,2.53,2.53,0,0,0,.33.16,2.32,2.32,0,0,0,.44.12,1.9,1.9,0,0,0,.54,0,1.87,1.87,0,0,0,.74-.17,1.62,1.62,0,0,0,.53-.39,1.32,1.32,0,0,0,.31-.54,1.74,1.74,0,0,0,.08-.65,1.07,1.07,0,0,0-.2-.6,1.28,1.28,0,0,0-.42-.38,3.15,3.15,0,0,0-.59-.23l-.66-.17a6.36,6.36,0,0,1-.66-.19,2.16,2.16,0,0,1-.59-.29,1.52,1.52,0,0,1-.44-.47,1.88,1.88,0,0,1-.11-1.43,1.62,1.62,0,0,1,.35-.61,1.84,1.84,0,0,1,.61-.44,2.53,2.53,0,0,1,.86-.22,2.9,2.9,0,0,1,1,.11,2.45,2.45,0,0,1,.82.48Z"/><path class="cls-5" d="M117.54,171.57l.08.43-2.43.47,1.28,6.49-.5.09-1.27-6.48-2.45.48-.08-.43Z"/><path class="cls-6" d="M30.7,77.51l-1.82,4.41-.57-.24,2.1-5.08,9.29,3.85-.28.67Z"/><path class="cls-6" d="M33.17,91l-.42-.1.85-3.61-2.77-.65-.71,3-.4-.1.71-3-2.86-.67-.85,3.61-.41-.1,1-4.11,6.86,1.61Z"/><path class="cls-6" d="M25.31,98.17l0-.39a.14.14,0,0,1,.05-.11.17.17,0,0,1,.1-.06L27.6,97l.3-3.45-2-1a.18.18,0,0,1-.12-.2l0-.38,6.76,3.47,0,.51Zm3-4.47L28,96.84l3.67-1.13.19,0,.24,0-.22-.09-.19-.08Z"/><path class="cls-6" d="M28.56,101.66l-3.17.19,0-.51,7-.43.11,1.8a3,3,0,0,1-.35,1.84,1.67,1.67,0,0,1-1.35.69,2,2,0,0,1-.74-.1,1.79,1.79,0,0,1-.61-.36,2,2,0,0,1-.45-.6,2.82,2.82,0,0,1-.26-.82,1,1,0,0,1-.19.23l-2.89,2.6,0-.44a.22.22,0,0,1,0-.14.47.47,0,0,1,.09-.12l2.71-2.42a.62.62,0,0,0,.15-.19.92.92,0,0,0,0-.31Zm.38,0,.08,1.22a2.85,2.85,0,0,0,.16.83,1.73,1.73,0,0,0,.36.61,1.39,1.39,0,0,0,.53.36,1.43,1.43,0,0,0,.66.09,1.29,1.29,0,0,0,1.09-.56,2.37,2.37,0,0,0,.27-1.45L32,101.44Z"/><path class="cls-6" d="M33.05,108.21a.19.19,0,0,1,0,.1l-5,5.79a1.72,1.72,0,0,1,.28-.08l5.76-1.3.1.44-6.87,1.54,0-.23a.21.21,0,0,1,.06-.21l5-5.8-.28.08-5.78,1.29-.1-.43L33,107.86l.06.24A.2.2,0,0,1,33.05,108.21Z"/><path class="cls-5" d="M91.24,27.75a6.13,6.13,0,0,1,.27,2.11,4.62,4.62,0,0,1-.49,1.8,4.17,4.17,0,0,1-1.16,1.39,5.42,5.42,0,0,1-1.78.9l-3.51,1-2.88-9.63,3.52-1.05a5.24,5.24,0,0,1,2-.23,4.31,4.31,0,0,1,1.74.53,4.53,4.53,0,0,1,1.39,1.24A5.91,5.91,0,0,1,91.24,27.75Zm-.72.21a5.44,5.44,0,0,0-.82-1.71,3.83,3.83,0,0,0-1.18-1.1,3.58,3.58,0,0,0-1.47-.47,4.65,4.65,0,0,0-1.67.19l-2.82.84,2.54,8.51,2.82-.84a4.42,4.42,0,0,0,1.5-.76,3.41,3.41,0,0,0,1-1.2,3.91,3.91,0,0,0,.39-1.57A5.69,5.69,0,0,0,90.52,28Z"/><path class="cls-5" d="M98.83,24.58l.06.42-3.67.51.4,2.82,3-.43.06.41-3.06.43.41,2.9,3.67-.51.06.42-4.18.58-1-7Z"/><path class="cls-5" d="M105.37,25.06a.14.14,0,0,1-.13.09.31.31,0,0,1-.17-.09,1.91,1.91,0,0,0-.28-.19,2.43,2.43,0,0,0-.45-.19,1.83,1.83,0,0,0-.65-.07,1.94,1.94,0,0,0-.67.14,1.47,1.47,0,0,0-.48.31,1.53,1.53,0,0,0-.28.45,1.37,1.37,0,0,0-.08.53,1.17,1.17,0,0,0,.17.59,1.4,1.4,0,0,0,.42.38,2.36,2.36,0,0,0,.58.25l.66.2c.22.06.44.13.65.21a2.46,2.46,0,0,1,.58.31,1.62,1.62,0,0,1,.42.48,1.49,1.49,0,0,1,.18.71,2.55,2.55,0,0,1-.11.84,2,2,0,0,1-.42.7,1.94,1.94,0,0,1-.69.48,2.5,2.5,0,0,1-.94.2,2.68,2.68,0,0,1-1.21-.19,3.06,3.06,0,0,1-.91-.64l.13-.23a.15.15,0,0,1,.25,0l.18.14.25.18a1.69,1.69,0,0,0,.33.17,1.56,1.56,0,0,0,.43.13,1.86,1.86,0,0,0,.54,0,2.07,2.07,0,0,0,.74-.15,1.67,1.67,0,0,0,.54-.37,1.36,1.36,0,0,0,.33-.54,1.68,1.68,0,0,0,.09-.64,1.1,1.1,0,0,0-.17-.61,1.31,1.31,0,0,0-.42-.39,3,3,0,0,0-.57-.25l-.66-.19-.66-.2a2.14,2.14,0,0,1-.58-.31,1.54,1.54,0,0,1-.42-.49,1.63,1.63,0,0,1-.18-.75,1.77,1.77,0,0,1,.11-.68,1.63,1.63,0,0,1,.37-.6,1.88,1.88,0,0,1,.62-.42,2.13,2.13,0,0,1,.86-.19,2.59,2.59,0,0,1,1,.13,2.45,2.45,0,0,1,.82.51Z"/><path class="cls-5" d="M108.92,31.32l-.51,0,.27-7,.51,0Z"/><path class="cls-5" d="M115,31.54a5.42,5.42,0,0,0,.66.05,3.4,3.4,0,0,0,.57,0,2.89,2.89,0,0,0,.51-.11l.49-.18.25-1.88-1.34-.18a.15.15,0,0,1-.09,0,.1.1,0,0,1,0-.09l0-.27,1.92.25-.33,2.49a6.14,6.14,0,0,1-.59.25,4.15,4.15,0,0,1-.63.16,5.27,5.27,0,0,1-.71.05c-.25,0-.52,0-.82-.05a3.78,3.78,0,0,1-1.34-.44,3.14,3.14,0,0,1-1.51-2.09,3.93,3.93,0,0,1,0-1.5,4.14,4.14,0,0,1,.44-1.43,3.12,3.12,0,0,1,2.05-1.61,4.07,4.07,0,0,1,1.49-.06,4.52,4.52,0,0,1,.72.16,2.59,2.59,0,0,1,.61.24,2.66,2.66,0,0,1,.51.34,2.83,2.83,0,0,1,.43.42l-.16.2a.16.16,0,0,1-.13.06.2.2,0,0,1-.08,0,1,1,0,0,1-.2-.16,1.85,1.85,0,0,0-.35-.28,2.73,2.73,0,0,0-.57-.29,3.09,3.09,0,0,0-.86-.21,3.23,3.23,0,0,0-1.25,0,2.55,2.55,0,0,0-1,.49,2.74,2.74,0,0,0-.73.91,4.09,4.09,0,0,0-.39,1.28,4,4,0,0,0,0,1.35,2.92,2.92,0,0,0,.46,1.08,2.73,2.73,0,0,0,.83.75A3.24,3.24,0,0,0,115,31.54Z"/><path class="cls-5" d="M122.18,26a.23.23,0,0,1,.06.09l2.81,7.08a2.46,2.46,0,0,1,.07-.29l1.53-5.7.43.12-1.83,6.8-.23-.07a.18.18,0,0,1-.15-.14L122,26.84a1.27,1.27,0,0,1-.06.28l-1.54,5.72-.42-.11,1.82-6.8.25.06A.31.31,0,0,1,122.18,26Z"/><path class="cls-6" d="M170.48,82.06l9.7-2.65.76,2.79a5.76,5.76,0,0,1,.23,1.48,2.9,2.9,0,0,1-.21,1.14,2,2,0,0,1-.62.8,2.69,2.69,0,0,1-1,.48,2.22,2.22,0,0,1-.77.07,2.11,2.11,0,0,1-.77-.21,2.56,2.56,0,0,1-.69-.47,3.09,3.09,0,0,1-.57-.75,3.32,3.32,0,0,1-.28,2,2.12,2.12,0,0,1-1.39,1,2.78,2.78,0,0,1-1.17.08,2.19,2.19,0,0,1-1-.41,3,3,0,0,1-.8-.88,4.7,4.7,0,0,1-.56-1.34Zm4.84-.57-4.09,1.11.66,2.44A3.13,3.13,0,0,0,173,86.82a2,2,0,0,0,1.74.23,2.09,2.09,0,0,0,.77-.4A1.75,1.75,0,0,0,176,86a2.36,2.36,0,0,0,.17-.92,3.88,3.88,0,0,0-.16-1.12Zm.51-.14.58,2.1a3.4,3.4,0,0,0,.48,1.1,2.21,2.21,0,0,0,.67.66,1.8,1.8,0,0,0,.76.28,2,2,0,0,0,.77-.06,1.86,1.86,0,0,0,1.31-1,3.09,3.09,0,0,0,0-2.05l-.58-2.09Z"/><path class="cls-6" d="M173.41,94.05a2.23,2.23,0,0,0,.29.88,1.82,1.82,0,0,0,.56.61,2.11,2.11,0,0,0,.78.34,2.88,2.88,0,0,0,.93,0l4.33-.52.06.51-4.33.51a3.1,3.1,0,0,1-1.1,0,2.48,2.48,0,0,1-.93-.43,2.4,2.4,0,0,1-.69-.76,3,3,0,0,1-.26-2.21,2.19,2.19,0,0,1,.49-.9,2.53,2.53,0,0,1,.81-.63,3,3,0,0,1,1.06-.32l4.32-.51.06.51-4.32.51a2.87,2.87,0,0,0-.89.26,2.35,2.35,0,0,0-.69.5,2.09,2.09,0,0,0-.41.73A2.35,2.35,0,0,0,173.41,94.05Z"/><path class="cls-6" d="M173.48,100.23l0-.51,7-.17v.52Z"/><path class="cls-6" d="M173.88,103.85l-.17,3.34-.44,0,.21-3.84,7,.38,0,.5Z"/><path class="cls-6" d="M175.59,115.54a4.19,4.19,0,0,1-1.41-.48,3.15,3.15,0,0,1-1-.86,2.84,2.84,0,0,1-.52-1.16,3.59,3.59,0,0,1,0-1.39l.42-2.53,6.95,1.15-.42,2.54a3.65,3.65,0,0,1-.47,1.31,3,3,0,0,1-.86.93,3.25,3.25,0,0,1-1.21.49A4.09,4.09,0,0,1,175.59,115.54Zm.08-.52a4,4,0,0,0,1.33,0,2.76,2.76,0,0,0,1.06-.41,2.4,2.4,0,0,0,.74-.78,3,3,0,0,0,.4-1.11l.34-2-6.13-1-.34,2a3.11,3.11,0,0,0,0,1.18,2.68,2.68,0,0,0,.46,1,2.73,2.73,0,0,0,.87.73A4,4,0,0,0,175.67,115Z"/></g><g id="Layer_23" data-name="Layer 23"><path class="cls-7" d="M59.37,88.64v.59H54.15v4h4.34v.58H54.15V98h5.22v.59H53.43v-9.9Z"/><path class="cls-7" d="M63.61,88.66a.3.3,0,0,1,.12.11l6.41,8.58c0-.14,0-.27,0-.4V88.64h.63v9.9h-.34a.28.28,0,0,1-.26-.14l-6.44-8.59c0,.14,0,.27,0,.4v8.33h-.62v-9.9h.35Z"/><path class="cls-7" d="M79.35,98.07a6.69,6.69,0,0,0,.93,0,4.48,4.48,0,0,0,.78-.16,4.55,4.55,0,0,0,.68-.25c.22-.1.44-.22.66-.34V94.6H80.49a.17.17,0,0,1-.13,0,.16.16,0,0,1,0-.11v-.39h2.74v3.52a6.8,6.8,0,0,1-.77.46,4.67,4.67,0,0,1-.86.34,6.91,6.91,0,0,1-1,.21,8.31,8.31,0,0,1-1.15.08,5,5,0,0,1-2-.37,4.33,4.33,0,0,1-1.52-1,4.54,4.54,0,0,1-1-1.6,6.39,6.39,0,0,1,0-4.17,4.46,4.46,0,0,1,1-1.59,4.36,4.36,0,0,1,1.57-1,5.6,5.6,0,0,1,2.06-.36,6.72,6.72,0,0,1,1,.07,4.94,4.94,0,0,1,.9.23,4.2,4.2,0,0,1,.77.37,5.48,5.48,0,0,1,.68.51l-.19.31a.19.19,0,0,1-.17.1.27.27,0,0,1-.12,0,1.15,1.15,0,0,1-.3-.19,3.21,3.21,0,0,0-.54-.32,3.64,3.64,0,0,0-.85-.3,5,5,0,0,0-1.24-.14,4.83,4.83,0,0,0-1.75.31,3.78,3.78,0,0,0-1.32.88,3.87,3.87,0,0,0-.85,1.4,5.42,5.42,0,0,0-.3,1.86,5.49,5.49,0,0,0,.3,1.88,4,4,0,0,0,.85,1.41,3.59,3.59,0,0,0,1.3.89A4.53,4.53,0,0,0,79.35,98.07Z"/><path class="cls-7" d="M88,98.54h-.72v-9.9H88Z"/><path class="cls-7" d="M93.06,88.66a.3.3,0,0,1,.12.11l6.41,8.58c0-.14,0-.27,0-.4V88.64h.63v9.9h-.34a.28.28,0,0,1-.26-.14l-6.44-8.59c0,.14,0,.27,0,.4v8.33h-.63v-9.9h.35Z"/><path class="cls-7" d="M110.47,88.64v.59h-5.21v4h4.34v.58h-4.34V98h5.21v.59h-5.93v-9.9Z"/><path class="cls-7" d="M120.15,88.64v.59h-5.22v4h4.34v.58h-4.34V98h5.22v.59h-5.94v-9.9Z"/><path class="cls-7" d="M124.81,94.06v4.48h-.71v-9.9h2.52a4.16,4.16,0,0,1,2.57.66,2.32,2.32,0,0,1,.84,1.94,2.68,2.68,0,0,1-.19,1,2.33,2.33,0,0,1-.57.82,2.87,2.87,0,0,1-.88.58,4.18,4.18,0,0,1-1.17.3,1.13,1.13,0,0,1,.3.28l3.41,4.28h-.62a.42.42,0,0,1-.2,0,.48.48,0,0,1-.15-.14l-3.18-4a.61.61,0,0,0-.25-.21.91.91,0,0,0-.42-.07Zm0-.53h1.72a3.92,3.92,0,0,0,1.18-.16,2.36,2.36,0,0,0,.88-.45,1.82,1.82,0,0,0,.55-.71,2.12,2.12,0,0,0,.19-.93,1.81,1.81,0,0,0-.69-1.56,3.38,3.38,0,0,0-2-.51h-1.81Z"/><path class="cls-7" d="M135.1,98.54h-.72v-9.9h.72Z"/><path class="cls-7" d="M140.21,88.66a.3.3,0,0,1,.12.11l6.41,8.58c0-.14,0-.27,0-.4V88.64h.63v9.9H147a.28.28,0,0,1-.26-.14l-6.44-8.59c0,.14,0,.27,0,.4v8.33h-.62v-9.9h.35Z"/><path class="cls-7" d="M156,98.07a6.69,6.69,0,0,0,.93,0,4.48,4.48,0,0,0,.78-.16,4.55,4.55,0,0,0,.68-.25c.22-.1.44-.22.66-.34V94.6h-1.91a.17.17,0,0,1-.13,0,.16.16,0,0,1-.05-.11v-.39h2.74v3.52a6,6,0,0,1-.77.46,4.86,4.86,0,0,1-.85.34,7.06,7.06,0,0,1-1,.21,8.2,8.2,0,0,1-1.15.08,5,5,0,0,1-2-.37,4.33,4.33,0,0,1-1.52-1,4.54,4.54,0,0,1-1-1.6,6.39,6.39,0,0,1,0-4.17,4.46,4.46,0,0,1,1-1.59,4.36,4.36,0,0,1,1.57-1,5.6,5.6,0,0,1,2.06-.36,6.63,6.63,0,0,1,1,.07,4.94,4.94,0,0,1,.9.23,4.2,4.2,0,0,1,.77.37,5.48,5.48,0,0,1,.68.51l-.19.31a.19.19,0,0,1-.17.1.27.27,0,0,1-.12,0,1.15,1.15,0,0,1-.3-.19,3.21,3.21,0,0,0-.54-.32,3.64,3.64,0,0,0-.85-.3,4.93,4.93,0,0,0-1.24-.14,4.83,4.83,0,0,0-1.75.31,3.78,3.78,0,0,0-1.32.88,3.87,3.87,0,0,0-.85,1.4,5.42,5.42,0,0,0-.3,1.86,5.49,5.49,0,0,0,.3,1.88,4.12,4.12,0,0,0,.85,1.41,3.59,3.59,0,0,0,1.3.89A4.53,4.53,0,0,0,156,98.07Z"/><path class="cls-7" d="M80.35,106.64a.19.19,0,0,1-.18.12.36.36,0,0,1-.23-.13,4,4,0,0,0-.39-.29,3.62,3.62,0,0,0-.62-.29,2.66,2.66,0,0,0-.91-.13,2.56,2.56,0,0,0-1,.16,2,2,0,0,0-.69.42,1.85,1.85,0,0,0-.42.61,2,2,0,0,0-.14.74,1.53,1.53,0,0,0,.21.83,1.91,1.91,0,0,0,.57.56,4.15,4.15,0,0,0,.79.39l.92.31c.31.1.61.21.91.34a3.48,3.48,0,0,1,.8.46,2.21,2.21,0,0,1,.56.69,2.26,2.26,0,0,1,.22,1,3.2,3.2,0,0,1-.22,1.17,2.69,2.69,0,0,1-.62,1,3,3,0,0,1-1,.64,3.54,3.54,0,0,1-1.35.24,3.79,3.79,0,0,1-1.68-.35,4,4,0,0,1-1.24-1l.19-.31a.26.26,0,0,1,.2-.1.24.24,0,0,1,.16.08l.24.21a3.72,3.72,0,0,0,.34.26,2.44,2.44,0,0,0,.45.27,3.8,3.8,0,0,0,.6.21,3.48,3.48,0,0,0,.76.08,2.89,2.89,0,0,0,1-.18,2.35,2.35,0,0,0,.79-.49,1.94,1.94,0,0,0,.48-.73,2.44,2.44,0,0,0,.17-.9,1.65,1.65,0,0,0-.21-.87,2.06,2.06,0,0,0-.57-.57,4.14,4.14,0,0,0-.79-.38l-.92-.3a8.92,8.92,0,0,1-.91-.33,3.15,3.15,0,0,1-.8-.46,2.18,2.18,0,0,1-.56-.71,2.22,2.22,0,0,1-.22-1.06,2.65,2.65,0,0,1,.19-1,2.27,2.27,0,0,1,.56-.81,2.57,2.57,0,0,1,.9-.57,3.32,3.32,0,0,1,1.22-.21,3.82,3.82,0,0,1,1.39.24,3.21,3.21,0,0,1,1.11.75Z"/><path class="cls-7" d="M87.94,114.83a3,3,0,0,0,1.27-.25,2.57,2.57,0,0,0,1-.69,3.05,3.05,0,0,0,.6-1,4.1,4.1,0,0,0,.2-1.29v-6.12h.72v6.12a4.47,4.47,0,0,1-.26,1.53,3.52,3.52,0,0,1-1.93,2.07,4.23,4.23,0,0,1-3.13,0,3.45,3.45,0,0,1-1.18-.83,3.61,3.61,0,0,1-.75-1.24,4.47,4.47,0,0,1-.26-1.53v-6.12h.72v6.12a3.88,3.88,0,0,0,.21,1.29,3.15,3.15,0,0,0,.6,1,2.68,2.68,0,0,0,1,.69A3,3,0,0,0,87.94,114.83Z"/><path class="cls-7" d="M103.14,113.68a.13.13,0,0,1,.12,0l.28.3a5.34,5.34,0,0,1-.67.59,5.16,5.16,0,0,1-.8.45,4.31,4.31,0,0,1-.94.28,5.7,5.7,0,0,1-1.13.11,4.83,4.83,0,0,1-1.89-.37,4.22,4.22,0,0,1-1.47-1,4.65,4.65,0,0,1-1-1.6,6.21,6.21,0,0,1-.34-2.08,5.68,5.68,0,0,1,.36-2.06,4.48,4.48,0,0,1,2.52-2.64,5.23,5.23,0,0,1,2-.36,5.09,5.09,0,0,1,1,.08,4.31,4.31,0,0,1,.84.23,4.17,4.17,0,0,1,.73.37,5.26,5.26,0,0,1,.67.52l-.22.31a.18.18,0,0,1-.17.09.35.35,0,0,1-.16-.07l-.25-.19a3.51,3.51,0,0,0-.37-.23,2.59,2.59,0,0,0-.5-.24,3.21,3.21,0,0,0-.68-.18,4.63,4.63,0,0,0-.88-.08,4.5,4.5,0,0,0-1.66.31,3.91,3.91,0,0,0-1.3.89,4.11,4.11,0,0,0-.85,1.4,5.92,5.92,0,0,0,0,3.72,4.13,4.13,0,0,0,.83,1.4,3.56,3.56,0,0,0,1.26.87,3.86,3.86,0,0,0,1.57.31,5.49,5.49,0,0,0,.95-.07,4.22,4.22,0,0,0,.76-.21,3.33,3.33,0,0,0,.65-.34,5.26,5.26,0,0,0,.6-.48l.07,0Z"/><path class="cls-7" d="M114.39,113.68a.16.16,0,0,1,.12,0l.28.3a5.34,5.34,0,0,1-.67.59,5.16,5.16,0,0,1-.8.45,4.48,4.48,0,0,1-.94.28,5.7,5.7,0,0,1-1.13.11,4.83,4.83,0,0,1-1.89-.37,4.22,4.22,0,0,1-1.47-1,4.65,4.65,0,0,1-1-1.6,6,6,0,0,1-.34-2.08,5.9,5.9,0,0,1,.35-2.06,4.67,4.67,0,0,1,1-1.6,4.42,4.42,0,0,1,1.53-1,5.23,5.23,0,0,1,2-.36,5.09,5.09,0,0,1,1,.08,4,4,0,0,1,.83.23,3.94,3.94,0,0,1,.74.37,6.07,6.07,0,0,1,.67.52l-.22.31a.19.19,0,0,1-.17.09.31.31,0,0,1-.16-.07l-.25-.19-.37-.23a2.59,2.59,0,0,0-.5-.24,3.21,3.21,0,0,0-.68-.18,4.63,4.63,0,0,0-.88-.08,4.5,4.5,0,0,0-1.66.31,3.81,3.81,0,0,0-1.3.89,4.11,4.11,0,0,0-.85,1.4,5.4,5.4,0,0,0-.3,1.85,5.21,5.21,0,0,0,.3,1.87,4,4,0,0,0,.83,1.4,3.48,3.48,0,0,0,1.26.87,3.86,3.86,0,0,0,1.57.31,5.49,5.49,0,0,0,.95-.07,4.22,4.22,0,0,0,.76-.21,3.33,3.33,0,0,0,.65-.34,6.3,6.3,0,0,0,.6-.48l.06,0Z"/><path class="cls-7" d="M124.38,105.44V106h-5.22v4h4.34v.58h-4.34v4.13h5.22v.59h-5.94v-9.9Z"/><path class="cls-7" d="M132.91,106.64a.19.19,0,0,1-.18.12.41.41,0,0,1-.24-.13,2.46,2.46,0,0,0-.39-.29,3.49,3.49,0,0,0-.61-.29,2.69,2.69,0,0,0-.91-.13,2.52,2.52,0,0,0-1,.16,1.83,1.83,0,0,0-.69.42,1.59,1.59,0,0,0-.42.61,1.85,1.85,0,0,0-.15.74,1.53,1.53,0,0,0,.22.83,2,2,0,0,0,.56.56,4.25,4.25,0,0,0,.8.39l.91.31a9.15,9.15,0,0,1,.92.34,3.41,3.41,0,0,1,.79.46,2,2,0,0,1,.78,1.71,3.2,3.2,0,0,1-.21,1.17,2.69,2.69,0,0,1-.62,1,2.92,2.92,0,0,1-1,.64,3.52,3.52,0,0,1-1.34.24,3.83,3.83,0,0,1-1.69-.35,4.07,4.07,0,0,1-1.24-1l.2-.31a.25.25,0,0,1,.2-.1.26.26,0,0,1,.16.08l.23.21.34.26a2.23,2.23,0,0,0,.46.27,3.67,3.67,0,0,0,.59.21,3.57,3.57,0,0,0,.77.08,2.89,2.89,0,0,0,1.05-.18,2.21,2.21,0,0,0,.78-.49,2,2,0,0,0,.49-.73,2.44,2.44,0,0,0,.17-.9,1.65,1.65,0,0,0-.22-.87,2,2,0,0,0-.56-.57,4.23,4.23,0,0,0-.8-.38l-.91-.3a9.11,9.11,0,0,1-.92-.33,3.09,3.09,0,0,1-.79-.46,2.21,2.21,0,0,1-.57-.71,2.35,2.35,0,0,1-.21-1.06,2.45,2.45,0,0,1,.19-1,2.24,2.24,0,0,1,.55-.81,2.66,2.66,0,0,1,.9-.57,3.37,3.37,0,0,1,1.23-.21,3.77,3.77,0,0,1,1.38.24,3.25,3.25,0,0,1,1.12.75Z"/><path class="cls-7" d="M141.62,106.64a.19.19,0,0,1-.18.12.36.36,0,0,1-.23-.13,4,4,0,0,0-.39-.29,3.62,3.62,0,0,0-.62-.29,2.66,2.66,0,0,0-.91-.13,2.56,2.56,0,0,0-.95.16,2,2,0,0,0-.69.42,1.85,1.85,0,0,0-.42.61,2,2,0,0,0-.14.74,1.53,1.53,0,0,0,.21.83,2,2,0,0,0,.57.56,4.15,4.15,0,0,0,.79.39l.92.31a9,9,0,0,1,.91.34,3.48,3.48,0,0,1,.8.46,2.21,2.21,0,0,1,.56.69,2.26,2.26,0,0,1,.22,1,3.2,3.2,0,0,1-.22,1.17,2.69,2.69,0,0,1-.62,1,3,3,0,0,1-1,.64,3.54,3.54,0,0,1-1.35.24,3.79,3.79,0,0,1-1.68-.35,4,4,0,0,1-1.24-1l.2-.31a.23.23,0,0,1,.19-.1.24.24,0,0,1,.16.08l.24.21a3.72,3.72,0,0,0,.34.26,2.44,2.44,0,0,0,.45.27,3,3,0,0,0,1.36.29,2.85,2.85,0,0,0,1.05-.18,2.35,2.35,0,0,0,.79-.49,1.94,1.94,0,0,0,.48-.73,2.44,2.44,0,0,0,.17-.9,1.65,1.65,0,0,0-.21-.87,2.06,2.06,0,0,0-.57-.57,4.14,4.14,0,0,0-.79-.38l-.92-.3a8.92,8.92,0,0,1-.91-.33,3.15,3.15,0,0,1-.8-.46,2.18,2.18,0,0,1-.56-.71,2.35,2.35,0,0,1-.22-1.06,2.65,2.65,0,0,1,.19-1,2.27,2.27,0,0,1,.56-.81,2.57,2.57,0,0,1,.9-.57,3.28,3.28,0,0,1,1.22-.21,3.73,3.73,0,0,1,1.38.24,3.16,3.16,0,0,1,1.12.75Z"/></g></svg>