<svg xmlns="http://www.w3.org/2000/svg" viewBox="0 0 320 125"><defs><style>.cls-1{fill:#fff;}.cls-2{fill:#25ced1;}.cls-3{fill:#1faaad;}.cls-4{fill:#92e7e8;}.cls-5,.cls-6,.cls-9{fill:none;}.cls-5{stroke:#1faaad;}.cls-5,.cls-6{stroke-linecap:round;stroke-linejoin:round;}.cls-6{stroke:#92e7e8;}.cls-7{fill:#187a7a;}.cls-8{fill:#ea526f;stroke:#fff;stroke-width:0.5px;}.cls-8,.cls-9{stroke-miterlimit:10;}.cls-9{stroke:#032624;}</style></defs><g id="CONTRI_SOFT" data-name="CONTRI/ SOFT"><rect class="cls-1" x="4" y="4" width="312" height="117"/><path class="cls-2" d="M312,8V117H8V8H312m8-8H0V125H320V0Z"/></g><g id="Layer_16" data-name="Layer 16"><circle class="cls-3" cx="183.57" cy="61.4" r="6.51"/><circle class="cls-4" cx="296.79" cy="62.22" r="6.51"/><line class="cls-5" x1="297.14" y1="42.56" x2="297.14" y2="49.08"/><path class="cls-5" d="M296.79,30.06a12.64,12.64,0,0,1,.35,3V38.3"/><path class="cls-5" d="M182.93,54.4V33a12.89,12.89,0,0,1,12.89-12.89h88.42a12.88,12.88,0,0,1,10.87,5.95"/><line class="cls-6" x1="182.93" y1="81.29" x2="182.93" y2="75.94"/><path class="cls-6" d="M183.57,94.26a12.79,12.79,0,0,1-.64-4V85.29"/><path class="cls-6" d="M297.14,69.16V90.23a12.89,12.89,0,0,1-12.9,12.9H195.82a12.86,12.86,0,0,1-10.76-5.79"/><path class="cls-7" d="M206.16,31.77h.29c.09,0,.15.05.18.16l6.43,20.53c.05.15.1.29.13.42s.08.27.11.41c0-.14.06-.28.1-.41s.08-.27.13-.42l7.15-20.53a.19.19,0,0,1,.19-.16H221a.18.18,0,0,1,.19.16l7.15,20.53a5.5,5.5,0,0,1,.24.83,5.19,5.19,0,0,1,.23-.83l6.43-20.53a.2.2,0,0,1,.22-.16h.25l-7,22h-.31l-7.32-21.12c-.06-.2-.11-.36-.14-.49,0,.13-.08.29-.14.49l-7.33,21.12h-.31Z"/><path class="cls-7" d="M240.76,53.77h-.38v-22h.38Z"/><path class="cls-7" d="M249.93,42.39h2a1.34,1.34,0,0,0,.37-.08,1.25,1.25,0,0,0,.33-.16,3.55,3.55,0,0,0,.34-.28L263.19,32a1.39,1.39,0,0,1,.29-.19.55.55,0,0,1,.28-.06H264L253.26,42a2.49,2.49,0,0,1-.44.36,1.54,1.54,0,0,1-.5.18,1.47,1.47,0,0,1,.5.17,2,2,0,0,1,.41.33l11.35,10.72h-.16a.9.9,0,0,1-.34-.05,1,1,0,0,1-.23-.17L253,43.33a4.6,4.6,0,0,0-.4-.34,1.21,1.21,0,0,0-.35-.19,1.42,1.42,0,0,0-.38-.08h-2V53.77h-.37v-22h.37Z"/><path class="cls-7" d="M270.11,53.77h-.38v-22h.38Z"/><path class="cls-7" d="M213.74,71.49a.24.24,0,0,1-.18.09c-.09,0-.23-.11-.43-.32a4.11,4.11,0,0,0-.85-.7,7.06,7.06,0,0,0-1.43-.7,6.6,6.6,0,0,0-2.2-.32,6.42,6.42,0,0,0-2.4.42,5.08,5.08,0,0,0-1.75,1.1,4.76,4.76,0,0,0-1.08,1.61,5.1,5.1,0,0,0-.37,1.9,4.16,4.16,0,0,0,.5,2.12,4.76,4.76,0,0,0,1.29,1.43,7.81,7.81,0,0,0,1.84,1c.69.26,1.4.51,2.11.74s1.41.49,2.1.75a7.06,7.06,0,0,1,1.84,1,4.66,4.66,0,0,1,1.3,1.49,4.5,4.5,0,0,1,.49,2.22,7,7,0,0,1-.45,2.52,6.22,6.22,0,0,1-1.32,2,6.36,6.36,0,0,1-2.12,1.37,7.59,7.59,0,0,1-2.86.5,9.31,9.31,0,0,1-2-.19,6.66,6.66,0,0,1-1.61-.57,6.79,6.79,0,0,1-1.34-.89,11.3,11.3,0,0,1-1.18-1.21l.06-.06.08-.07s.06,0,.11,0,.15.06.28.19l.49.51a9.3,9.3,0,0,0,.76.65,5.51,5.51,0,0,0,1.06.65,7.35,7.35,0,0,0,1.44.5,7.94,7.94,0,0,0,1.85.2,7,7,0,0,0,2.71-.49,6,6,0,0,0,2-1.31,5.62,5.62,0,0,0,1.26-1.92,6.58,6.58,0,0,0,.43-2.35,4.47,4.47,0,0,0-.33-1.79,3.86,3.86,0,0,0-.87-1.29,5.33,5.33,0,0,0-1.28-.93,12.27,12.27,0,0,0-1.56-.69c-.56-.21-1.12-.39-1.7-.57s-1.14-.36-1.69-.57a13.31,13.31,0,0,1-1.57-.71,5.65,5.65,0,0,1-1.28-1,4.28,4.28,0,0,1-.87-1.37,5,5,0,0,1-.32-1.87,5.34,5.34,0,0,1,.39-2,5.06,5.06,0,0,1,1.15-1.71,5.47,5.47,0,0,1,1.86-1.17,6.69,6.69,0,0,1,2.54-.45,7.36,7.36,0,0,1,2.83.52,7.1,7.1,0,0,1,2.32,1.65Z"/><path class="cls-7" d="M225.3,82.12v9.35h-.38V82.12l-8.2-12.64H217a.26.26,0,0,1,.22.12l7.4,11.47q.12.21.24.39a2.71,2.71,0,0,1,.21.37,1.53,1.53,0,0,1,.21-.37l.25-.39L233,69.6a.24.24,0,0,1,.22-.12h.31Z"/><path class="cls-7" d="M238.25,69.6l15.56,21.2a1,1,0,0,1,0-.17V69.48h.31v22H254a.2.2,0,0,1-.17-.11L238.2,70.07a1.34,1.34,0,0,1,0,.2v21.2h-.31v-22H238A.26.26,0,0,1,238.25,69.6Z"/><path class="cls-7" d="M278.06,88.5a.18.18,0,0,1,.11,0l.14.12a11,11,0,0,1-1.49,1.24,9.62,9.62,0,0,1-1.73,1,11.82,11.82,0,0,1-2.08.63,12.75,12.75,0,0,1-2.49.22,10.71,10.71,0,0,1-4.09-.77,9.38,9.38,0,0,1-3.24-2.24,10.24,10.24,0,0,1-2.12-3.55,13.49,13.49,0,0,1-.77-4.69,13.14,13.14,0,0,1,.77-4.58,10.13,10.13,0,0,1,2.15-3.56,9.42,9.42,0,0,1,3.33-2.3,11.18,11.18,0,0,1,4.28-.81,14,14,0,0,1,2.15.16,9.57,9.57,0,0,1,1.79.48,9.05,9.05,0,0,1,1.58.81,17.5,17.5,0,0,1,1.52,1.13l-.05.08a.19.19,0,0,1-.14.08.62.62,0,0,1-.34-.18l-.56-.45a10.38,10.38,0,0,0-.88-.58,7.21,7.21,0,0,0-1.24-.58,10.27,10.27,0,0,0-1.67-.45,11.63,11.63,0,0,0-2.16-.18,10.64,10.64,0,0,0-4.09.76,9.17,9.17,0,0,0-3.21,2.19,10.16,10.16,0,0,0-2.1,3.44,14.27,14.27,0,0,0,0,9.13,9.92,9.92,0,0,0,2.06,3.44,8.67,8.67,0,0,0,3.12,2.16,10.05,10.05,0,0,0,3.91.75,13.12,13.12,0,0,0,2.38-.19,9.7,9.7,0,0,0,1.93-.55,8.47,8.47,0,0,0,1.62-.89,15.58,15.58,0,0,0,1.48-1.2A.24.24,0,0,1,278.06,88.5Z"/><circle class="cls-8" cx="232.6" cy="40.1" r="1.57"/><circle class="cls-8" cx="221.08" cy="32.55" r="1.57"/><circle class="cls-8" cx="240.56" cy="43.24" r="1.57"/><circle class="cls-8" cx="249.78" cy="31.72" r="1.57"/><circle class="cls-8" cx="270.09" cy="31.72" r="1.57"/><circle class="cls-8" cx="251.87" cy="42.61" r="1.57"/><circle class="cls-8" cx="278.92" cy="71.2" r="1.57"/><circle class="cls-8" cx="213.33" cy="53.5" r="1.57"/><circle class="cls-8" cx="213.33" cy="70.89" r="1.57"/><circle class="cls-8" cx="264.02" cy="89.32" r="1.57"/><circle class="cls-8" cx="253.55" cy="90.16" r="1.57"/><circle class="cls-8" cx="238.67" cy="70.05" r="1.57"/><circle class="cls-8" cx="225.06" cy="81.36" r="1.57"/></g><g id="Layer_23" data-name="Layer 23"><path class="cls-9" d="M24.45,69.26a.17.17,0,0,1,.12,0l.3.32a4.85,4.85,0,0,1-.72.64,5.36,5.36,0,0,1-.85.48,5,5,0,0,1-1,.3,5.73,5.73,0,0,1-1.21.11,5.27,5.27,0,0,1-2-.38,4.54,4.54,0,0,1-1.58-1.1,4.87,4.87,0,0,1-1-1.71,6.38,6.38,0,0,1-.37-2.24,6.19,6.19,0,0,1,.38-2.2,5.09,5.09,0,0,1,1.06-1.72,5,5,0,0,1,1.65-1.11,5.51,5.51,0,0,1,2.11-.39,5.82,5.82,0,0,1,1.06.09,4.83,4.83,0,0,1,.89.24,4.55,4.55,0,0,1,.79.41,6.89,6.89,0,0,1,.72.55l-.24.34a.2.2,0,0,1-.18.09.34.34,0,0,1-.18-.08l-.26-.2-.39-.25a4.05,4.05,0,0,0-.55-.26A4.88,4.88,0,0,0,21.29,61a4.66,4.66,0,0,0-1.78.33,4,4,0,0,0-1.39,1,4.19,4.19,0,0,0-.91,1.5,5.54,5.54,0,0,0-.33,2,6,6,0,0,0,.32,2,4.46,4.46,0,0,0,.89,1.5,3.87,3.87,0,0,0,1.35.94,4.45,4.45,0,0,0,1.68.32,6.28,6.28,0,0,0,1-.07A3.93,3.93,0,0,0,23,70.2a4.2,4.2,0,0,0,.7-.36,5.86,5.86,0,0,0,.63-.51l.08,0A.11.11,0,0,1,24.45,69.26Z"/><path class="cls-9" d="M38.25,65.73A6.29,6.29,0,0,1,37.88,68a4.89,4.89,0,0,1-1,1.71,4.49,4.49,0,0,1-1.6,1.1,5.61,5.61,0,0,1-4.11,0,4.58,4.58,0,0,1-1.6-1.1,4.89,4.89,0,0,1-1-1.71,6.7,6.7,0,0,1,0-4.45,4.89,4.89,0,0,1,1-1.71,4.72,4.72,0,0,1,1.6-1.1,5.61,5.61,0,0,1,4.11,0,4.37,4.37,0,0,1,1.6,1.1,4.89,4.89,0,0,1,1,1.71A6.31,6.31,0,0,1,38.25,65.73Zm-.79,0a5.9,5.9,0,0,0-.31-2,4.12,4.12,0,0,0-.87-1.5,3.62,3.62,0,0,0-1.34-.94A4.51,4.51,0,0,0,33.19,61a4.41,4.41,0,0,0-1.73.33,3.74,3.74,0,0,0-1.35.94,4.28,4.28,0,0,0-.88,1.5,6.57,6.57,0,0,0,0,4,4.28,4.28,0,0,0,.88,1.5,3.87,3.87,0,0,0,1.35.94,4.59,4.59,0,0,0,1.73.32,4.7,4.7,0,0,0,1.75-.32,3.74,3.74,0,0,0,1.34-.94,4.12,4.12,0,0,0,.87-1.5A5.92,5.92,0,0,0,37.46,65.73Z"/><path class="cls-9" d="M42.79,60.46a.3.3,0,0,1,.13.11l6.87,9.2a3.31,3.31,0,0,1,0-.44v-8.9h.67V71h-.37a.35.35,0,0,1-.28-.15L42.9,61.68c0,.15,0,.3,0,.43V71h-.67V60.43h.37A.37.37,0,0,1,42.79,60.46Z"/><path class="cls-9" d="M62,60.43v.65H58.29V71h-.76v-10H53.78v-.65Z"/><path class="cls-9" d="M66.35,66.24V71h-.77V60.43h2.71a4.45,4.45,0,0,1,2.75.71,2.49,2.49,0,0,1,.9,2.08,2.85,2.85,0,0,1-.21,1.11,2.55,2.55,0,0,1-.6.88,3.19,3.19,0,0,1-.95.62,4,4,0,0,1-1.25.32,1.3,1.3,0,0,1,.32.3L72.9,71h-.66A.46.46,0,0,1,72,71a.57.57,0,0,1-.17-.15l-3.4-4.31a.72.72,0,0,0-.27-.23,1.24,1.24,0,0,0-.45-.07Zm0-.57h1.84a4.2,4.2,0,0,0,1.27-.17A2.69,2.69,0,0,0,70.4,65a2,2,0,0,0,.59-.76,2.4,2.4,0,0,0,.2-1,1.92,1.92,0,0,0-.74-1.68A3.55,3.55,0,0,0,68.29,61H66.35Z"/><path class="cls-9" d="M77.37,71H76.6V60.43h.77Z"/><path class="cls-9" d="M82.31,71V60.43h3a6.05,6.05,0,0,1,1.57.18,3,3,0,0,1,1.1.53,2.16,2.16,0,0,1,.65.85,3,3,0,0,1,.21,1.14,2.46,2.46,0,0,1-.14.81,2.42,2.42,0,0,1-.43.72,2.55,2.55,0,0,1-.68.57,3.07,3.07,0,0,1-.92.38,3.41,3.41,0,0,1,1.93.83,2.25,2.25,0,0,1,.68,1.7,3,3,0,0,1-.24,1.22,2.4,2.4,0,0,1-.7.91,3.2,3.2,0,0,1-1.12.57,5.13,5.13,0,0,1-1.52.2Zm.76-5.64h2.31a3.82,3.82,0,0,0,1.25-.19,2.57,2.57,0,0,0,.86-.5A1.94,1.94,0,0,0,88,64a2.24,2.24,0,0,0,.15-.81,2,2,0,0,0-.67-1.62,3.31,3.31,0,0,0-2.1-.55H83.07Zm0,.56v4.47h2.66a3.16,3.16,0,0,0,2.12-.61,2.1,2.1,0,0,0,.71-1.7,2,2,0,0,0-.19-.9,1.9,1.9,0,0,0-.55-.68,2.5,2.5,0,0,0-.88-.43,4.43,4.43,0,0,0-1.2-.15Z"/><path class="cls-9" d="M97.34,70.5a3.32,3.32,0,0,0,1.37-.27,2.86,2.86,0,0,0,1-.74,3.3,3.3,0,0,0,.64-1.11A4.18,4.18,0,0,0,100.6,67V60.43h.77V67a4.87,4.87,0,0,1-.28,1.64,4,4,0,0,1-.8,1.33,3.73,3.73,0,0,1-1.27.89,4.3,4.3,0,0,1-1.68.32,4.25,4.25,0,0,1-1.67-.32A3.73,3.73,0,0,1,94.4,70a4,4,0,0,1-.8-1.33A4.87,4.87,0,0,1,93.32,67V60.43h.78V67a4.16,4.16,0,0,0,.22,1.38A3.2,3.2,0,0,0,95,69.48a2.77,2.77,0,0,0,1,.75A3.27,3.27,0,0,0,97.34,70.5Z"/><path class="cls-9" d="M112.85,60.43v.65h-3.72V71h-.77v-10h-3.75v-.65Z"/><path class="cls-9" d="M117.24,71h-.77V60.43h.77Z"/><path class="cls-9" d="M131.64,65.73a6.29,6.29,0,0,1-.37,2.23,4.89,4.89,0,0,1-1,1.71,4.58,4.58,0,0,1-1.6,1.1,5.61,5.61,0,0,1-4.11,0,4.58,4.58,0,0,1-1.6-1.1,4.89,4.89,0,0,1-1-1.71,6.7,6.7,0,0,1,0-4.45,4.89,4.89,0,0,1,1-1.71,4.72,4.72,0,0,1,1.6-1.1,5.61,5.61,0,0,1,4.11,0,4.45,4.45,0,0,1,1.6,1.1,4.89,4.89,0,0,1,1,1.71A6.31,6.31,0,0,1,131.64,65.73Zm-.79,0a6.16,6.16,0,0,0-.31-2,4.26,4.26,0,0,0-.87-1.5,3.62,3.62,0,0,0-1.34-.94,4.51,4.51,0,0,0-1.75-.33,4.41,4.41,0,0,0-1.73.33,3.74,3.74,0,0,0-1.35.94,4.28,4.28,0,0,0-.88,1.5,6.57,6.57,0,0,0,0,4,4.28,4.28,0,0,0,.88,1.5,3.87,3.87,0,0,0,1.35.94,4.59,4.59,0,0,0,1.73.32,4.7,4.7,0,0,0,1.75-.32,3.74,3.74,0,0,0,1.34-.94,4.26,4.26,0,0,0,.87-1.5A6.17,6.17,0,0,0,130.85,65.73Z"/><path class="cls-9" d="M136.18,60.46a.3.3,0,0,1,.13.11l6.87,9.2a3.37,3.37,0,0,1,0-.44v-8.9h.68V71h-.37a.33.33,0,0,1-.28-.15l-6.9-9.21a3.34,3.34,0,0,1,0,.43V71h-.67V60.43H136A.4.4,0,0,1,136.18,60.46Z"/><path class="cls-9" d="M153.62,61.72a.21.21,0,0,1-.2.13.46.46,0,0,1-.25-.14,2.86,2.86,0,0,0-.42-.31,3.42,3.42,0,0,0-.66-.31,3,3,0,0,0-1-.14,2.88,2.88,0,0,0-1,.16,2.19,2.19,0,0,0-.74.45,1.85,1.85,0,0,0-.45.66,2.13,2.13,0,0,0-.15.79,1.53,1.53,0,0,0,.23.89,1.91,1.91,0,0,0,.6.6,3.55,3.55,0,0,0,.85.42l1,.33a10.42,10.42,0,0,1,1,.37,3.46,3.46,0,0,1,.86.5,2.24,2.24,0,0,1,.6.73,2.42,2.42,0,0,1,.23,1.1,3.47,3.47,0,0,1-.23,1.25,2.94,2.94,0,0,1-.66,1,3.16,3.16,0,0,1-1.07.68,3.81,3.81,0,0,1-1.44.25,4.06,4.06,0,0,1-1.81-.37,4.31,4.31,0,0,1-1.32-1l.21-.33a.26.26,0,0,1,.21-.12.31.31,0,0,1,.17.09l.25.22a3.19,3.19,0,0,0,.37.29,2.75,2.75,0,0,0,.48.28,3.2,3.2,0,0,0,1.46.32,3.08,3.08,0,0,0,1.13-.2,2.26,2.26,0,0,0,.83-.52,2.21,2.21,0,0,0,.53-.78,2.61,2.61,0,0,0,.18-1,1.73,1.73,0,0,0-.23-.93,2.09,2.09,0,0,0-.61-.61,3.93,3.93,0,0,0-.85-.4l-1-.33c-.33-.1-.66-.22-1-.35a3.4,3.4,0,0,1-.85-.5,2.3,2.3,0,0,1-.61-.76,2.52,2.52,0,0,1-.23-1.13,2.6,2.6,0,0,1,.21-1,2.44,2.44,0,0,1,.59-.87,2.72,2.72,0,0,1,1-.61,3.52,3.52,0,0,1,1.31-.23,4.07,4.07,0,0,1,1.48.26,3.64,3.64,0,0,1,1.2.81Z"/><path class="cls-9" d="M24.72,89h-.59A.29.29,0,0,1,24,89a.42.42,0,0,1-.11-.15L22.6,85.76H17.39l-1.25,3.08a.29.29,0,0,1-.28.2h-.59l4.35-10.61h.76Zm-7.1-3.85h4.76l-2.17-5.36c0-.09-.07-.19-.11-.29s-.07-.22-.1-.34c0,.12-.07.23-.11.34s-.07.2-.1.29Z"/><path class="cls-9" d="M28.44,78.46a.26.26,0,0,1,.13.11l6.87,9.2c0-.15,0-.3,0-.44v-8.9h.67V89h-.36a.32.32,0,0,1-.28-.15l-6.9-9.21c0,.15,0,.3,0,.43V89H27.9V78.43h.38A.35.35,0,0,1,28.44,78.46Z"/><path class="cls-9" d="M49.68,83.73A6.46,6.46,0,0,1,49.31,86a4.82,4.82,0,0,1-1,1.67,4.57,4.57,0,0,1-1.59,1.06,5.69,5.69,0,0,1-2.07.36H40.74V78.43h3.87a5.49,5.49,0,0,1,2.07.37,4.44,4.44,0,0,1,1.59,1.06,4.73,4.73,0,0,1,1,1.67A6.34,6.34,0,0,1,49.68,83.73Zm-.8,0a5.8,5.8,0,0,0-.31-2,4.11,4.11,0,0,0-.86-1.47,3.79,3.79,0,0,0-1.35-.91,4.66,4.66,0,0,0-1.75-.32H41.52v9.37h3.09a4.66,4.66,0,0,0,1.75-.31,3.82,3.82,0,0,0,1.35-.92,4.11,4.11,0,0,0,.86-1.47A5.82,5.82,0,0,0,48.88,83.73Z"/><path class="cls-9" d="M21.87,97.72a.2.2,0,0,1-.19.13.43.43,0,0,1-.25-.14A4.62,4.62,0,0,0,21,97.4a4.1,4.1,0,0,0-.66-.31,3,3,0,0,0-1-.14,2.88,2.88,0,0,0-1,.16,2.1,2.1,0,0,0-.74.45,1.85,1.85,0,0,0-.45.66A2,2,0,0,0,17,99a1.61,1.61,0,0,0,.23.89,1.94,1.94,0,0,0,.61.6,3.55,3.55,0,0,0,.85.42l1,.33c.33.11.66.23,1,.37a3.4,3.4,0,0,1,.85.5,2.14,2.14,0,0,1,.84,1.83,3.47,3.47,0,0,1-.23,1.25,3,3,0,0,1-1.73,1.71,3.81,3.81,0,0,1-1.44.25,4.06,4.06,0,0,1-1.81-.37,4.35,4.35,0,0,1-1.33-1l.21-.33a.26.26,0,0,1,.21-.12.3.3,0,0,1,.18.09l.25.22a4.1,4.1,0,0,0,.36.29,2.52,2.52,0,0,0,.49.28,3.42,3.42,0,0,0,.64.23,3.37,3.37,0,0,0,.82.09,3,3,0,0,0,1.12-.2,2.39,2.39,0,0,0,.84-.52,2.18,2.18,0,0,0,.52-.78,2.61,2.61,0,0,0,.18-1,1.65,1.65,0,0,0-.23-.93,2,2,0,0,0-.6-.61,4.17,4.17,0,0,0-.85-.4l-1-.33a9.42,9.42,0,0,1-1-.35,3.46,3.46,0,0,1-.86-.5,2.16,2.16,0,0,1-.6-.76,2.52,2.52,0,0,1-.23-1.13,2.78,2.78,0,0,1,.2-1,2.61,2.61,0,0,1,.6-.87,2.77,2.77,0,0,1,1-.61,3.6,3.6,0,0,1,1.31-.23,4.12,4.12,0,0,1,1.49.26,3.7,3.7,0,0,1,1.19.81Z"/><path class="cls-9" d="M35.54,101.73a6.29,6.29,0,0,1-.37,2.23,4.89,4.89,0,0,1-1,1.71,4.58,4.58,0,0,1-1.6,1.1,5.61,5.61,0,0,1-4.11,0,4.58,4.58,0,0,1-1.6-1.1,4.91,4.91,0,0,1-1-1.71,6.88,6.88,0,0,1,0-4.45,4.91,4.91,0,0,1,1-1.71,4.72,4.72,0,0,1,1.6-1.1,5.61,5.61,0,0,1,4.11,0,4.45,4.45,0,0,1,1.6,1.1,4.89,4.89,0,0,1,1,1.71A6.31,6.31,0,0,1,35.54,101.73Zm-.8,0a6.16,6.16,0,0,0-.3-2,4.42,4.42,0,0,0-.87-1.5,3.58,3.58,0,0,0-1.35-.94,4.73,4.73,0,0,0-3.47,0,3.58,3.58,0,0,0-1.35.94,4.28,4.28,0,0,0-.88,1.5,6.57,6.57,0,0,0,0,4,4.28,4.28,0,0,0,.88,1.5,3.69,3.69,0,0,0,1.35.94,4.86,4.86,0,0,0,3.47,0,3.69,3.69,0,0,0,1.35-.94,4.42,4.42,0,0,0,.87-1.5A6.18,6.18,0,0,0,34.74,101.73Z"/><path class="cls-9" d="M45.9,96.43v.64H40.31v4.46h4.84v.64H40.31V107h-.77V96.43Z"/><path class="cls-9" d="M56.54,96.43v.65H52.82v10h-.77v-10H48.3v-.65Z"/><path class="cls-9" d="M58.44,96.43h.63a.26.26,0,0,1,.28.2L62,105.36c0,.1,0,.2.08.32s0,.23.07.36c0-.13,0-.25.07-.36s.06-.22.09-.32l3-8.73a.36.36,0,0,1,.11-.14.28.28,0,0,1,.18-.06h.21a.25.25,0,0,1,.17.06.4.4,0,0,1,.11.14l3,8.73.09.31c0,.11.05.23.08.35,0-.12,0-.23.07-.35a2.82,2.82,0,0,1,.07-.31l2.68-8.73a.26.26,0,0,1,.1-.14.28.28,0,0,1,.18-.06H73L69.64,107H69l-3.14-9.21c0-.12-.07-.24-.1-.38,0,.14-.07.26-.1.38L62.46,107h-.68Z"/><path class="cls-9" d="M83.69,107H83.1a.35.35,0,0,1-.18-.05.4.4,0,0,1-.1-.15l-1.26-3.08H76.35l-1.24,3.08A.3.3,0,0,1,75,107a.28.28,0,0,1-.18.06h-.58l4.34-10.61h.77Zm-7.11-3.85h4.76l-2.17-5.36c0-.09-.07-.19-.1-.29S79,97.32,79,97.2c0,.12-.07.23-.1.34s-.07.2-.11.29Z"/><path class="cls-9" d="M87.86,102.24V107h-.77V96.43H89.8a4.4,4.4,0,0,1,2.74.71,2.47,2.47,0,0,1,.91,2.08,2.85,2.85,0,0,1-.21,1.11,2.55,2.55,0,0,1-.6.88,3.19,3.19,0,0,1-1,.62,4,4,0,0,1-1.25.32,1.3,1.3,0,0,1,.32.3L94.41,107h-.66a.46.46,0,0,1-.21,0,.47.47,0,0,1-.17-.15L90,102.54a.72.72,0,0,0-.27-.23,1.24,1.24,0,0,0-.45-.07Zm0-.57H89.7A4.2,4.2,0,0,0,91,101.5a2.69,2.69,0,0,0,.94-.48,2,2,0,0,0,.59-.76,2.4,2.4,0,0,0,.2-1A1.92,1.92,0,0,0,92,97.59,3.57,3.57,0,0,0,89.8,97H87.86Z"/><path class="cls-9" d="M104.19,96.43v.64H98.61v4.29h4.64V102H98.61v4.43h5.58V107H97.83V96.43Z"/></g></svg>