<svg xmlns="http://www.w3.org/2000/svg" viewBox="0 0 320 125"><defs><style>.cls-1,.cls-4{fill:#fff;}.cls-2,.cls-6{fill:#ea526f;}.cls-3,.cls-8{fill:none;}.cls-3,.cls-4,.cls-5,.cls-6,.cls-7{stroke:#000;}.cls-3,.cls-4,.cls-5,.cls-6,.cls-7,.cls-8{stroke-miterlimit:10;}.cls-3,.cls-4,.cls-5{stroke-width:0.5px;}.cls-5{fill:#7de2db;}.cls-6,.cls-7{stroke-width:0.25px;}.cls-7{fill:#25ced1;}.cls-8{stroke:#032624;}</style></defs><g id="SCI_COMM" data-name="SCI COMM"><rect class="cls-1" x="4" y="4" width="312" height="117"/><path class="cls-2" d="M312,8V117H8V8H312m8-8H0V125H320V0Z"/></g><g id="Layer_18" data-name="Layer 18"><path class="cls-3" d="M227.16,69.69s-11.32,1.61-9.59,12.36c1.61,10,11.32,8,13.81,7.49S227.16,69.69,227.16,69.69Z"/><path class="cls-3" d="M233.67,91.4s2.49,8.74,1.83,15.53c-.61,6.33.31,7.38,2.7,7.18s8.19-1.61,8.3-3.87-1-13.87-5-20.1S233.67,91.4,233.67,91.4Z"/><path class="cls-3" d="M261.46,48.51S242.68,62,236.61,66l-3.55,5.2,2.52,15.15,6.07,2.94,29.65,5.76-.68-3.28-5.39-14.69-2.74-16.74-.8-10.28Z"/><path class="cls-4" d="M236.61,66s-2.48,12.85,5,23.29a1.28,1.28,0,0,1-.5,1.57l-5.6,1.4s-2.59.91-4.78-2.76-6.05-11.91-3.76-21a4.17,4.17,0,0,1,3.61-2.92l4.07-.75S236.5,64.59,236.61,66Z"/><path class="cls-4" d="M261.46,48.51s4.88-3.54,7.71-3.46,5.64,3.77,7.48,6.78,6.64,14.85,7.09,22.84.39,19.37-3.58,20.72-8.86-.3-8.86-.3-6.41-5.42-10.15-22.31S261.46,48.51,261.46,48.51Z"/><path class="cls-4" d="M277.35,95.85s4.56-5.84,2.23-21.62c-3.66-24.82-12.9-28.58-12.9-28.58s-6.83,5.13-.3,29.12C271.76,94.54,277.35,95.85,277.35,95.85Z"/><path class="cls-5" d="M264.19,64.67a91.84,91.84,0,0,0,2.19,10.1c.52,1.92,1,3.66,1.56,5.24,2.84-1,7.44-3.4,5.48-9.57C271.6,64.72,266.87,64.37,264.19,64.67Z"/><path class="cls-3" d="M227.65,27.57H176.92a3.16,3.16,0,0,0-3.17,3.14V51.38a3.15,3.15,0,0,0,3.17,3.13h39.94c1.62,2.23,4.55,6.22,4.81,6.22s-.23-3.77-.56-6.22h6.54a3.15,3.15,0,0,0,3.17-3.13V30.71A3.16,3.16,0,0,0,227.65,27.57Z"/><rect class="cls-6" x="178.99" y="34.28" width="25.01" height="1.36" rx="0.07"/><rect class="cls-6" x="190.98" y="37.88" width="33.53" height="1.36" rx="0.07"/><rect class="cls-6" x="178.99" y="44.94" width="45.63" height="1.36" rx="0.07"/><rect class="cls-6" x="203.93" y="41.48" width="20.69" height="1.36" rx="0.07"/><path class="cls-3" d="M253.84,13.14h45.33a2.82,2.82,0,0,1,2.83,2.8V34.41a2.81,2.81,0,0,1-2.83,2.8H263.48a59.35,59.35,0,0,1-4.29,5.55c-.22,0,.2-3.36.49-5.55h-5.84a2.81,2.81,0,0,1-2.83-2.8V15.94A2.82,2.82,0,0,1,253.84,13.14Z"/><rect class="cls-7" x="286.82" y="23.11" width="9.36" height="1.22" rx="0.06" transform="translate(583.01 47.45) rotate(180)"/><rect class="cls-7" x="256.62" y="23.11" width="16.1" height="1.22" rx="0.06" transform="translate(529.34 47.45) rotate(180)"/><rect class="cls-7" x="256.55" y="19.13" width="23.24" height="1.22" rx="0.06" transform="translate(536.34 39.48) rotate(180)"/><rect class="cls-7" x="256.55" y="30.91" width="39.63" height="1.22" rx="0.06" transform="translate(552.73 63.05) rotate(180)"/><rect class="cls-7" x="256.55" y="27.06" width="18.14" height="1.22" rx="0.06" transform="translate(531.25 55.34) rotate(180)"/></g><g id="Layer_23" data-name="Layer 23"><path class="cls-8" d="M26.22,71.86A.27.27,0,0,1,26,72a.52.52,0,0,1-.3-.17,4.34,4.34,0,0,0-.5-.37,4.18,4.18,0,0,0-.79-.37,3.61,3.61,0,0,0-1.17-.17,3.51,3.51,0,0,0-1.22.2,2.47,2.47,0,0,0-.89.54,2.23,2.23,0,0,0-.54.79,2.5,2.5,0,0,0-.19.94,1.93,1.93,0,0,0,.28,1.07,2.39,2.39,0,0,0,.72.73,4.91,4.91,0,0,0,1,.49c.38.14.77.27,1.17.4s.8.28,1.18.44a4.28,4.28,0,0,1,1,.6,2.88,2.88,0,0,1,.73.89,2.83,2.83,0,0,1,.27,1.31,4.16,4.16,0,0,1-.27,1.5,3.49,3.49,0,0,1-.8,1.23,3.83,3.83,0,0,1-1.28.83,4.63,4.63,0,0,1-1.72.3,4.83,4.83,0,0,1-2.17-.45,5.12,5.12,0,0,1-1.6-1.22l.26-.39a.31.31,0,0,1,.25-.14.37.37,0,0,1,.2.11l.31.26c.12.11.27.22.43.35a4.59,4.59,0,0,0,.59.34,4.33,4.33,0,0,0,.77.26,4.21,4.21,0,0,0,2.33-.12,2.88,2.88,0,0,0,1-.62,2.6,2.6,0,0,0,.63-.94,3,3,0,0,0,.22-1.17,2,2,0,0,0-.28-1.11,2.39,2.39,0,0,0-.72-.73,4.68,4.68,0,0,0-1-.49l-1.17-.39a11.79,11.79,0,0,1-1.18-.42,4.28,4.28,0,0,1-1-.6,2.74,2.74,0,0,1-.73-.91,3,3,0,0,1-.27-1.36,3.21,3.21,0,0,1,.24-1.23,3,3,0,0,1,.71-1,3.42,3.42,0,0,1,1.16-.73,4.31,4.31,0,0,1,1.57-.28,4.71,4.71,0,0,1,1.78.32,4.23,4.23,0,0,1,1.44,1Z"/><path class="cls-8" d="M40.51,80.9a.2.2,0,0,1,.15.06l.36.39a5.64,5.64,0,0,1-.86.76,5.71,5.71,0,0,1-1,.58,6.22,6.22,0,0,1-1.22.37,8.14,8.14,0,0,1-1.45.13A6.19,6.19,0,0,1,34,82.72a5.44,5.44,0,0,1-1.89-1.31,6.2,6.2,0,0,1-1.23-2.06,7.81,7.81,0,0,1-.44-2.68A7.21,7.21,0,0,1,30.94,74,6.06,6.06,0,0,1,32.21,72a5.67,5.67,0,0,1,2-1.33,6.45,6.45,0,0,1,2.53-.48,7.15,7.15,0,0,1,1.27.11,6.69,6.69,0,0,1,1.07.29,4.41,4.41,0,0,1,.94.49,6.65,6.65,0,0,1,.87.66l-.28.41a.25.25,0,0,1-.23.1.37.37,0,0,1-.2-.09l-.32-.23a5.49,5.49,0,0,0-.47-.31,4.41,4.41,0,0,0-.65-.31,5.9,5.9,0,0,0-.88-.23A6.27,6.27,0,0,0,36.72,71a5.43,5.43,0,0,0-2.13.4,4.64,4.64,0,0,0-1.68,1.14,5.08,5.08,0,0,0-1.09,1.8,6.77,6.77,0,0,0-.39,2.37,7.17,7.17,0,0,0,.38,2.41,5.35,5.35,0,0,0,1.07,1.8A4.67,4.67,0,0,0,34.5,82a5.16,5.16,0,0,0,2,.39,6.46,6.46,0,0,0,1.22-.09,4.22,4.22,0,0,0,1-.26,4.15,4.15,0,0,0,.83-.45,5.27,5.27,0,0,0,.77-.61l.08-.06Z"/><path class="cls-8" d="M47,83h-.93V70.31H47Z"/><path class="cls-8" d="M60.53,70.31v.76h-6.7v5.15h5.58V77H53.83v5.31h6.7V83H52.9V70.31Z"/><path class="cls-8" d="M66,70.34a.47.47,0,0,1,.15.14l8.24,11c0-.18,0-.35,0-.52V70.31h.81V83h-.44a.41.41,0,0,1-.34-.18l-8.28-11a4.63,4.63,0,0,1,0,.51V83h-.8V70.31h.45A.56.56,0,0,1,66,70.34Z"/><path class="cls-8" d="M90,80.9a.2.2,0,0,1,.15.06l.36.39a5.64,5.64,0,0,1-.86.76,5.71,5.71,0,0,1-1,.58,6.22,6.22,0,0,1-1.22.37,8.14,8.14,0,0,1-1.45.13,6.23,6.23,0,0,1-2.43-.47,5.44,5.44,0,0,1-1.89-1.31,6.2,6.2,0,0,1-1.23-2.06A7.81,7.81,0,0,1,80,76.67,7.21,7.21,0,0,1,80.43,74,6.06,6.06,0,0,1,81.7,72a5.67,5.67,0,0,1,2-1.33,6.45,6.45,0,0,1,2.53-.48,7.15,7.15,0,0,1,1.27.11,6.69,6.69,0,0,1,1.07.29,4.41,4.41,0,0,1,.94.49,6.65,6.65,0,0,1,.87.66l-.28.41a.25.25,0,0,1-.23.1.37.37,0,0,1-.2-.09l-.32-.23a5.49,5.49,0,0,0-.47-.31,4.41,4.41,0,0,0-.65-.31,5.59,5.59,0,0,0-.88-.23A6.27,6.27,0,0,0,86.21,71a5.46,5.46,0,0,0-2.13.4A4.64,4.64,0,0,0,82.4,72.5a5.08,5.08,0,0,0-1.09,1.8,6.77,6.77,0,0,0-.39,2.37,7.17,7.17,0,0,0,.38,2.41,5.21,5.21,0,0,0,1.08,1.8A4.54,4.54,0,0,0,84,82a5.16,5.16,0,0,0,2,.39,6.46,6.46,0,0,0,1.22-.09,4.22,4.22,0,0,0,1-.26,4.15,4.15,0,0,0,.83-.45,5.27,5.27,0,0,0,.77-.61l.08-.06Z"/><path class="cls-8" d="M102.84,70.31v.76h-6.7v5.15h5.58V77H96.14v5.31h6.7V83H95.21V70.31Z"/><path class="cls-8" d="M29.3,102.5a.25.25,0,0,1,.16.06l.36.39a6.23,6.23,0,0,1-.87.76,5.09,5.09,0,0,1-1,.58,6.12,6.12,0,0,1-1.21.37,8.26,8.26,0,0,1-1.46.13,6.14,6.14,0,0,1-2.42-.47A5.26,5.26,0,0,1,21,103,5.89,5.89,0,0,1,19.72,101a7.61,7.61,0,0,1-.44-2.68,7.48,7.48,0,0,1,.45-2.65A6,6,0,0,1,21,93.57a5.72,5.72,0,0,1,2-1.33,6.52,6.52,0,0,1,2.53-.48,7,7,0,0,1,1.27.11,6.81,6.81,0,0,1,1.08.29,5,5,0,0,1,.94.49,7.3,7.3,0,0,1,.86.66l-.28.41a.24.24,0,0,1-.22.1.4.4,0,0,1-.21-.09l-.32-.23a4.26,4.26,0,0,0-.47-.31,4.41,4.41,0,0,0-.65-.31,5.45,5.45,0,0,0-.87-.23,6.39,6.39,0,0,0-1.13-.09,5.5,5.5,0,0,0-2.13.4,4.52,4.52,0,0,0-1.67,1.14,5.1,5.1,0,0,0-1.1,1.8,6.77,6.77,0,0,0-.39,2.37,7,7,0,0,0,.39,2.41,5.19,5.19,0,0,0,1.07,1.8,4.63,4.63,0,0,0,1.61,1.12,5.24,5.24,0,0,0,2,.39,7.5,7.5,0,0,0,1.22-.09,4.85,4.85,0,0,0,1-.27,4.19,4.19,0,0,0,.84-.44,5.21,5.21,0,0,0,.76-.61l.09-.06Z"/><path class="cls-8" d="M45.87,98.27a7.85,7.85,0,0,1-.44,2.68,6,6,0,0,1-1.24,2,5.47,5.47,0,0,1-1.92,1.31,6.7,6.7,0,0,1-4.93,0A5.56,5.56,0,0,1,35.42,103a6,6,0,0,1-1.24-2,8.18,8.18,0,0,1,0-5.35,6,6,0,0,1,1.24-2,5.59,5.59,0,0,1,1.92-1.32,6.7,6.7,0,0,1,4.93,0,5.49,5.49,0,0,1,1.92,1.32,6,6,0,0,1,1.24,2A7.79,7.79,0,0,1,45.87,98.27Zm-.95,0a7.36,7.36,0,0,0-.37-2.39,5.13,5.13,0,0,0-1-1.8A4.39,4.39,0,0,0,41.89,93a5.77,5.77,0,0,0-4.17,0,4.56,4.56,0,0,0-1.62,1.13,5.15,5.15,0,0,0-1.05,1.8,7.94,7.94,0,0,0,0,4.79,5.2,5.2,0,0,0,1.05,1.79,4.56,4.56,0,0,0,1.62,1.13,5.77,5.77,0,0,0,4.17,0,4.39,4.39,0,0,0,1.62-1.13,5.18,5.18,0,0,0,1-1.79A7.42,7.42,0,0,0,44.92,98.27Z"/><path class="cls-8" d="M57,101.47c0-.09.08-.19.11-.28a2.15,2.15,0,0,1,.14-.26l5-8.85a.41.41,0,0,1,.14-.15l.2,0h.64v12.73h-.81V93.79a4.46,4.46,0,0,1,0-.5l-5,8.9a.38.38,0,0,1-.36.24H57a.4.4,0,0,1-.36-.24l-5.15-8.91a4.63,4.63,0,0,1,0,.51v10.85h-.8V91.91h.63l.2,0a.35.35,0,0,1,.15.15l5.14,8.85A3.25,3.25,0,0,1,57,101.47Z"/><path class="cls-8" d="M75.18,101.47l.12-.28a2.1,2.1,0,0,1,.13-.26l5-8.85a.41.41,0,0,1,.14-.15l.2,0h.64v12.73H80.6V93.79a4.46,4.46,0,0,1,0-.5l-5,8.9a.4.4,0,0,1-.36.24h-.15a.4.4,0,0,1-.36-.24L69.6,93.28a4.63,4.63,0,0,1,0,.51v10.85h-.8V91.91h.63l.2,0a.35.35,0,0,1,.15.15L75,100.93A3.25,3.25,0,0,1,75.18,101.47Z"/><path class="cls-8" d="M91.7,104a4.07,4.07,0,0,0,1.64-.32,3.67,3.67,0,0,0,1.23-.89,3.86,3.86,0,0,0,.77-1.34,4.94,4.94,0,0,0,.26-1.66V91.91h.92v7.87a5.78,5.78,0,0,1-.33,2,4.58,4.58,0,0,1-1,1.59,4.49,4.49,0,0,1-1.52,1.07,5.37,5.37,0,0,1-4,0,4.4,4.4,0,0,1-1.52-1.07,4.58,4.58,0,0,1-1-1.59,5.78,5.78,0,0,1-.33-2V91.91h.92v7.86a4.94,4.94,0,0,0,.27,1.66,3.84,3.84,0,0,0,.76,1.34,3.45,3.45,0,0,0,1.23.89A3.91,3.91,0,0,0,91.7,104Z"/><path class="cls-8" d="M102.64,91.94a.48.48,0,0,1,.16.14l8.24,11a4.67,4.67,0,0,1,0-.52V91.91h.81v12.73h-.44a.38.38,0,0,1-.33-.18l-8.28-11a4.63,4.63,0,0,1,0,.51v10.72H102V91.91h.44A.53.53,0,0,1,102.64,91.94Z"/><path class="cls-8" d="M118.66,104.64h-.92V91.91h.92Z"/><path class="cls-8" d="M133.84,102.5a.2.2,0,0,1,.15.06l.36.39a5.64,5.64,0,0,1-.86.76,5.46,5.46,0,0,1-1,.58,5.92,5.92,0,0,1-1.21.37,8.14,8.14,0,0,1-1.45.13,6.19,6.19,0,0,1-2.43-.47,5.44,5.44,0,0,1-1.89-1.31,6.2,6.2,0,0,1-1.23-2.06,7.85,7.85,0,0,1-.44-2.68,7.26,7.26,0,0,1,.46-2.65,6,6,0,0,1,1.27-2.05,5.72,5.72,0,0,1,2-1.33,6.53,6.53,0,0,1,2.54-.48,7.15,7.15,0,0,1,1.27.11,6.69,6.69,0,0,1,1.07.29,4.41,4.41,0,0,1,.94.49,7.39,7.39,0,0,1,.87.66l-.28.41a.26.26,0,0,1-.23.1.37.37,0,0,1-.2-.09l-.32-.23a5.49,5.49,0,0,0-.47-.31,4.41,4.41,0,0,0-.65-.31,5.9,5.9,0,0,0-.88-.23,6.27,6.27,0,0,0-1.12-.09,5.43,5.43,0,0,0-2.13.4,4.64,4.64,0,0,0-1.68,1.14,5.08,5.08,0,0,0-1.09,1.8,6.77,6.77,0,0,0-.39,2.37,7,7,0,0,0,.38,2.41,5.35,5.35,0,0,0,1.07,1.8,4.67,4.67,0,0,0,1.62,1.12,5.16,5.16,0,0,0,2,.39,7.41,7.41,0,0,0,1.22-.09,4.68,4.68,0,0,0,1-.27,4.19,4.19,0,0,0,.84-.44,5.87,5.87,0,0,0,.77-.61l.08-.06Z"/><path class="cls-8" d="M148.63,104.64h-.71a.37.37,0,0,1-.21-.06.57.57,0,0,1-.12-.18l-1.5-3.7h-6.26l-1.49,3.7a.43.43,0,0,1-.13.17.32.32,0,0,1-.22.07h-.7l5.21-12.73h.92ZM140.11,100h5.71l-2.61-6.44c0-.1-.08-.22-.12-.34S143,93,143,92.83l-.12.41c-.05.12-.09.24-.13.35Z"/><path class="cls-8" d="M159.73,91.91v.78h-4.47v12h-.92v-12h-4.5v-.78Z"/><path class="cls-8" d="M165,104.64h-.92V91.91H165Z"/><path class="cls-8" d="M182.27,98.27a7.61,7.61,0,0,1-.44,2.68,5.81,5.81,0,0,1-1.24,2,5.38,5.38,0,0,1-1.92,1.31,6.7,6.7,0,0,1-4.93,0,5.43,5.43,0,0,1-1.91-1.31,6,6,0,0,1-1.25-2,8.18,8.18,0,0,1,0-5.35,6,6,0,0,1,1.25-2,5.45,5.45,0,0,1,1.91-1.32,6.7,6.7,0,0,1,4.93,0,5.4,5.4,0,0,1,1.92,1.32,5.81,5.81,0,0,1,1.24,2A7.56,7.56,0,0,1,182.27,98.27Zm-1,0a7.1,7.1,0,0,0-.37-2.39,5,5,0,0,0-1-1.8A4.36,4.36,0,0,0,178.3,93a5.46,5.46,0,0,0-2.1-.39,5.39,5.39,0,0,0-2.08.39,4.56,4.56,0,0,0-1.62,1.13,5.15,5.15,0,0,0-1.05,1.8,7.94,7.94,0,0,0,0,4.79,5.2,5.2,0,0,0,1.05,1.79,4.56,4.56,0,0,0,1.62,1.13,5.39,5.39,0,0,0,2.08.39,5.46,5.46,0,0,0,2.1-.39,4.36,4.36,0,0,0,1.61-1.13,5,5,0,0,0,1-1.79A7.16,7.16,0,0,0,181.32,98.27Z"/><path class="cls-8" d="M187.72,91.94a.39.39,0,0,1,.15.14l8.25,11a4.67,4.67,0,0,1,0-.52V91.91h.81v12.73h-.44a.41.41,0,0,1-.34-.18l-8.27-11c0,.18,0,.35,0,.51v10.72h-.8V91.91h.45A.56.56,0,0,1,187.72,91.94Z"/></g></svg>