<svg xmlns="http://www.w3.org/2000/svg" viewBox="0 0 640 100"><defs><style>.cls-1,.cls-4{fill:#fff;}.cls-2{fill:#25ced1;}.cls-3{fill:none;stroke:#032624;stroke-miterlimit:10;}.cls-4{stroke:#000;stroke-linecap:round;stroke-linejoin:round;stroke-width:0.5px;}</style></defs><g id="INSPIRATION"><rect class="cls-1" x="4" y="4" width="632" height="92"/><path class="cls-2" d="M632,8V92H8V8H632m8-8H0V100H640V0Z"/></g><g id="Layer_24" data-name="Layer 24"><path class="cls-3" d="M166.35,60.68h-.93V47.94h.93Z"/><path class="cls-3" d="M172.92,48a.48.48,0,0,1,.15.14l8.25,11a4.81,4.81,0,0,1,0-.52V47.94h.81V60.68h-.44a.38.38,0,0,1-.33-.18l-8.28-11c0,.18,0,.35,0,.51V60.68h-.8V47.94h.45A.53.53,0,0,1,172.92,48Z"/><path class="cls-3" d="M193.84,49.49a.25.25,0,0,1-.23.15.49.49,0,0,1-.3-.16,4.06,4.06,0,0,0-.5-.37,4.17,4.17,0,0,0-.79-.38,3.61,3.61,0,0,0-1.17-.17,3.56,3.56,0,0,0-1.23.2,2.51,2.51,0,0,0-.88.54,2.23,2.23,0,0,0-.54.79A2.37,2.37,0,0,0,188,51a1.87,1.87,0,0,0,.28,1.07,2.47,2.47,0,0,0,.72.72,4.7,4.7,0,0,0,1,.5l1.17.4c.4.13.8.28,1.18.44a4.25,4.25,0,0,1,1,.59,2.6,2.6,0,0,1,1,2.2,4.17,4.17,0,0,1-.27,1.51,3.63,3.63,0,0,1-.8,1.23,3.81,3.81,0,0,1-1.28.82,4.65,4.65,0,0,1-1.73.3,4.92,4.92,0,0,1-2.16-.44,5.28,5.28,0,0,1-1.6-1.22l.25-.4a.33.33,0,0,1,.26-.13.34.34,0,0,1,.2.1l.31.27c.12.1.26.22.43.34a3.66,3.66,0,0,0,.59.34,3.76,3.76,0,0,0,.76.27,4.22,4.22,0,0,0,1,.11,3.82,3.82,0,0,0,1.35-.23,2.9,2.9,0,0,0,1-.63,2.51,2.51,0,0,0,.63-.94,3.19,3.19,0,0,0,.22-1.16,2.14,2.14,0,0,0-.28-1.12,2.39,2.39,0,0,0-.72-.73,5.46,5.46,0,0,0-1-.49l-1.17-.38c-.41-.13-.8-.27-1.18-.42a4.28,4.28,0,0,1-1-.6,3,3,0,0,1-.73-.91,3.1,3.1,0,0,1-.27-1.37,3.28,3.28,0,0,1,.24-1.23,3.2,3.2,0,0,1,.71-1.05,3.65,3.65,0,0,1,1.16-.73,4.27,4.27,0,0,1,1.57-.27,4.75,4.75,0,0,1,1.78.31,4.12,4.12,0,0,1,1.44,1Z"/><path class="cls-3" d="M200.07,55.55v5.13h-.92V47.94h3.29a5.09,5.09,0,0,1,3.38,1,3.5,3.5,0,0,1,1.14,2.8,3.88,3.88,0,0,1-.31,1.54,3.46,3.46,0,0,1-.9,1.21,4,4,0,0,1-1.42.79,5.86,5.86,0,0,1-1.89.29Zm0-.74h2.37a4.7,4.7,0,0,0,1.51-.23,3.46,3.46,0,0,0,1.13-.65,2.74,2.74,0,0,0,.71-1,2.91,2.91,0,0,0,.25-1.23,2.84,2.84,0,0,0-.91-2.26,4,4,0,0,0-2.69-.79h-2.37Z"/><path class="cls-3" d="M212.63,60.68h-.93V47.94h.93Z"/><path class="cls-3" d="M219.74,54.92v5.76h-.92V47.94h3.25a5.33,5.33,0,0,1,3.29.85,3,3,0,0,1,1.09,2.5,3.35,3.35,0,0,1-.25,1.33,3.1,3.1,0,0,1-.73,1.06,4,4,0,0,1-1.13.75,5.31,5.31,0,0,1-1.51.38,1.33,1.33,0,0,1,.39.36l4.38,5.51h-.8a.51.51,0,0,1-.25-.06.63.63,0,0,1-.2-.18l-4.07-5.16A1,1,0,0,0,222,55a1.3,1.3,0,0,0-.55-.08Zm0-.69H222a5.13,5.13,0,0,0,1.52-.2,3.26,3.26,0,0,0,1.13-.58,2.42,2.42,0,0,0,.71-.91,2.86,2.86,0,0,0,.24-1.2,2.35,2.35,0,0,0-.89-2,4.3,4.3,0,0,0-2.59-.66h-2.33Z"/><path class="cls-3" d="M241.29,60.68h-.71a.31.31,0,0,1-.21-.07.41.41,0,0,1-.12-.18l-1.5-3.69h-6.26L231,60.43a.46.46,0,0,1-.13.18.38.38,0,0,1-.22.07H230l5.21-12.74h.92Zm-8.52-4.63h5.7l-2.6-6.43c0-.11-.08-.22-.12-.35s-.09-.27-.13-.41l-.12.41-.13.36Z"/><path class="cls-3" d="M252.39,47.94v.79h-4.47v12H247v-12h-4.5v-.79Z"/><path class="cls-3" d="M257.65,60.68h-.92V47.94h.92Z"/><path class="cls-3" d="M274.93,54.31a7.56,7.56,0,0,1-.44,2.67A6,6,0,0,1,273.25,59a5.51,5.51,0,0,1-1.92,1.31,6.83,6.83,0,0,1-4.93,0A5.7,5.7,0,0,1,264.48,59,6.16,6.16,0,0,1,263.24,57a8.15,8.15,0,0,1,0-5.34,6.16,6.16,0,0,1,1.24-2.06,5.7,5.7,0,0,1,1.92-1.31,6.77,6.77,0,0,1,4.93,0,5.4,5.4,0,0,1,1.92,1.32,6,6,0,0,1,1.24,2.06A7.56,7.56,0,0,1,274.93,54.31Zm-.95,0a7.2,7.2,0,0,0-.37-2.4,5.13,5.13,0,0,0-1-1.8A4.56,4.56,0,0,0,271,49a5.46,5.46,0,0,0-2.1-.39,5.39,5.39,0,0,0-2.08.39,4.69,4.69,0,0,0-1.62,1.13,5.15,5.15,0,0,0-1.05,1.8,7.2,7.2,0,0,0-.37,2.4,7.1,7.1,0,0,0,.37,2.39,5.15,5.15,0,0,0,1.05,1.8,4.54,4.54,0,0,0,1.62,1.12,5.39,5.39,0,0,0,2.08.39,5.46,5.46,0,0,0,2.1-.39,4.41,4.41,0,0,0,1.61-1.12,5.13,5.13,0,0,0,1-1.8A7.1,7.1,0,0,0,274,54.31Z"/><path class="cls-3" d="M280.38,48a.48.48,0,0,1,.15.14l8.25,11a4.81,4.81,0,0,1,0-.52V47.94h.81V60.68h-.44a.41.41,0,0,1-.34-.18l-8.28-11a4.63,4.63,0,0,1,0,.51V60.68h-.8V47.94h.45A.56.56,0,0,1,280.38,48Z"/><path class="cls-3" d="M310,60.68h-.71a.28.28,0,0,1-.21-.07.35.35,0,0,1-.13-.18l-1.5-3.69h-6.26l-1.49,3.69a.34.34,0,0,1-.34.25h-.7l5.21-12.74h.92Zm-8.53-4.63h5.71l-2.6-6.43-.13-.35-.12-.41c0,.14-.09.28-.13.41s-.08.25-.12.36Z"/><path class="cls-3" d="M314.46,48a.48.48,0,0,1,.15.14l8.25,11a4.81,4.81,0,0,1,0-.52V47.94h.81V60.68h-.44a.38.38,0,0,1-.33-.18l-8.28-11c0,.18,0,.35,0,.51V60.68h-.8V47.94h.45A.53.53,0,0,1,314.46,48Z"/><path class="cls-3" d="M339.94,54.31A7.63,7.63,0,0,1,339.5,57a5.69,5.69,0,0,1-1.24,2,5.6,5.6,0,0,1-1.92,1.27,6.74,6.74,0,0,1-2.47.44h-4.65V47.94h4.65a6.74,6.74,0,0,1,2.47.44,5.6,5.6,0,0,1,1.92,1.27,5.78,5.78,0,0,1,1.24,2A7.63,7.63,0,0,1,339.94,54.31Zm-.95,0a7.29,7.29,0,0,0-.37-2.38,5.1,5.1,0,0,0-1-1.76,4.44,4.44,0,0,0-1.62-1.1,5.63,5.63,0,0,0-2.09-.38h-3.72V59.93h3.72a5.63,5.63,0,0,0,2.09-.38,4.54,4.54,0,0,0,1.62-1.09,5.25,5.25,0,0,0,1-1.77A7.25,7.25,0,0,0,339,54.31Z"/><path class="cls-3" d="M356.33,57.51a2.33,2.33,0,0,1,.11-.28,1.69,1.69,0,0,1,.13-.27l5-8.85a.31.31,0,0,1,.14-.14.53.53,0,0,1,.2,0h.64V60.68h-.81V49.82a4.18,4.18,0,0,1,0-.49l-5,8.9a.38.38,0,0,1-.36.23h-.14a.39.39,0,0,1-.36-.23l-5.15-8.91a4.32,4.32,0,0,1,0,.5V60.68H350V47.94h.63a.58.58,0,0,1,.21,0,.39.39,0,0,1,.15.14L356.09,57A4.41,4.41,0,0,1,356.33,57.51Z"/><path class="cls-3" d="M379.49,54.31a7.56,7.56,0,0,1-.44,2.67A5.85,5.85,0,0,1,377.81,59a5.51,5.51,0,0,1-1.92,1.31,6.83,6.83,0,0,1-4.93,0A5.7,5.7,0,0,1,369,59,6.16,6.16,0,0,1,367.8,57a8.15,8.15,0,0,1,0-5.34A6.16,6.16,0,0,1,369,49.58,5.7,5.7,0,0,1,371,48.27a6.77,6.77,0,0,1,4.93,0,5.4,5.4,0,0,1,1.92,1.32,5.85,5.85,0,0,1,1.24,2.06A7.56,7.56,0,0,1,379.49,54.31Zm-.95,0a7.2,7.2,0,0,0-.37-2.4,5.13,5.13,0,0,0-1-1.8A4.48,4.48,0,0,0,375.52,49a5.46,5.46,0,0,0-2.1-.39,5.39,5.39,0,0,0-2.08.39,4.69,4.69,0,0,0-1.62,1.13,5.15,5.15,0,0,0-1.05,1.8,7.2,7.2,0,0,0-.37,2.4,7.1,7.1,0,0,0,.37,2.39,5.15,5.15,0,0,0,1.05,1.8,4.54,4.54,0,0,0,1.62,1.12,5.39,5.39,0,0,0,2.08.39,5.46,5.46,0,0,0,2.1-.39,4.33,4.33,0,0,0,1.61-1.12,5.13,5.13,0,0,0,1-1.8A7.1,7.1,0,0,0,378.54,54.31Z"/><path class="cls-3" d="M391.53,47.94v.79h-4.48v12h-.91v-12h-4.5v-.79Z"/><path class="cls-3" d="M396.79,60.68h-.92V47.94h.92Z"/><path class="cls-3" d="M401,47.94h.73a.27.27,0,0,1,.2.07.4.4,0,0,1,.13.18l4.34,10.56a6,6,0,0,1,.28.88,4.53,4.53,0,0,1,.26-.88l4.33-10.56a.46.46,0,0,1,.13-.18.38.38,0,0,1,.21-.07h.72L407,60.68h-.82Z"/><path class="cls-3" d="M424.84,60.68h-.71a.27.27,0,0,1-.2-.07.35.35,0,0,1-.13-.18l-1.5-3.69H416l-1.49,3.69a.46.46,0,0,1-.13.18.38.38,0,0,1-.21.07h-.71l5.22-12.74h.91Zm-8.52-4.63H422l-2.6-6.43a2.84,2.84,0,0,1-.13-.35c0-.13-.08-.27-.13-.41l-.12.41c0,.13-.09.25-.13.36Z"/><path class="cls-3" d="M435.94,47.94v.79h-4.47v12h-.92v-12h-4.5v-.79Z"/><path class="cls-3" d="M441.21,60.68h-.93V47.94h.93Z"/><path class="cls-3" d="M458.49,54.31A7.55,7.55,0,0,1,458,57,5.85,5.85,0,0,1,456.8,59a5.56,5.56,0,0,1-1.91,1.31,6.86,6.86,0,0,1-4.94,0A5.56,5.56,0,0,1,448,59,6,6,0,0,1,446.79,57a8.32,8.32,0,0,1,0-5.34A6,6,0,0,1,448,49.58,5.56,5.56,0,0,1,450,48.27a6.79,6.79,0,0,1,4.94,0,5.45,5.45,0,0,1,1.91,1.32A5.85,5.85,0,0,1,458,51.64,7.55,7.55,0,0,1,458.49,54.31Zm-1,0a7.2,7.2,0,0,0-.37-2.4,5,5,0,0,0-1-1.8A4.39,4.39,0,0,0,454.51,49a5.46,5.46,0,0,0-2.1-.39,5.34,5.34,0,0,0-2.07.39,4.51,4.51,0,0,0-1.62,1.13,5,5,0,0,0-1.06,1.8,7.46,7.46,0,0,0-.37,2.4,7.36,7.36,0,0,0,.37,2.39,5,5,0,0,0,1.06,1.8,4.37,4.37,0,0,0,1.62,1.12,5.34,5.34,0,0,0,2.07.39,5.46,5.46,0,0,0,2.1-.39,4.25,4.25,0,0,0,1.61-1.12,5,5,0,0,0,1-1.8A7.1,7.1,0,0,0,457.53,54.31Z"/><path class="cls-3" d="M463.93,48a.48.48,0,0,1,.15.14l8.25,11a4.81,4.81,0,0,1,0-.52V47.94h.81V60.68h-.44a.38.38,0,0,1-.33-.18l-8.28-11c0,.18,0,.35,0,.51V60.68h-.8V47.94h.45A.53.53,0,0,1,463.93,48Z"/></g><g id="Layer_29" data-name="Layer 29"><polygon class="cls-4" points="527.91 74.2 523.12 73.24 522.88 68.47 527.58 69.38 527.91 74.2"/><polygon class="cls-4" points="527.91 74.2 531.6 72.06 531.27 67.23 527.58 69.38 527.91 74.2"/><polygon class="cls-4" points="527.58 69.38 522.88 68.47 526.57 66.49 531.27 67.23 527.58 69.38"/><polygon class="cls-4" points="574.8 76.18 595.63 71.57 596.5 50.07 575.68 54.68 574.8 76.18"/><polygon class="cls-4" points="553.74 80.11 574.22 75.58 575.08 54.45 554.61 58.98 553.74 80.11"/><polygon class="cls-4" points="553.74 80.11 537.38 71.18 538.24 50.05 554.61 58.98 553.74 80.11"/><polygon class="cls-4" points="554.61 58.98 575.08 54.45 558.87 45.91 538.24 50.05 554.61 58.98"/><polygon class="cls-4" points="575.56 54.83 596.37 50.09 596.9 29.17 576.42 33.7 575.56 54.83"/><polygon class="cls-4" points="575.56 54.83 559.19 45.9 560.06 24.77 576.42 33.7 575.56 54.83"/><polygon class="cls-4" points="576.42 33.7 596.9 29.17 580.5 20.95 560.06 24.77 576.42 33.7"/><polygon class="cls-4" points="602.02 86 621.33 81.6 621.82 62.19 602.82 66.4 602.02 86"/><polygon class="cls-4" points="602.02 86 586.84 77.72 587.64 58.11 602.82 66.4 602.02 86"/><polygon class="cls-4" points="602.82 66.4 621.82 62.19 606.61 54.57 587.64 58.11 602.82 66.4"/><polygon class="cls-4" points="578.47 81.82 586.18 80.06 586.38 72.3 578.79 73.98 578.47 81.82"/><polygon class="cls-4" points="578.47 81.82 572.4 78.5 572.72 70.67 578.79 73.98 578.47 81.82"/><polygon class="cls-4" points="578.79 73.98 586.38 72.3 580.3 69.26 572.72 70.67 578.79 73.98"/><polygon class="cls-4" points="541.1 77.65 533.19 77.82 531.11 70.35 538.88 70.13 541.1 77.65"/><polygon class="cls-4" points="541.1 77.65 546.18 72.97 543.96 65.44 538.88 70.13 541.1 77.65"/><polygon class="cls-4" points="538.88 70.13 531.11 70.35 536.27 65.92 543.96 65.44 538.88 70.13"/><polygon class="cls-4" points="604.32 61.26 599.73 59.59 600.21 54.83 604.73 56.44 604.32 61.26"/><polygon class="cls-4" points="604.32 61.26 608.29 59.7 608.69 54.89 604.73 56.44 604.32 61.26"/><polygon class="cls-4" points="604.73 56.44 600.21 54.83 604.16 53.44 608.69 54.89 604.73 56.44"/><polygon class="cls-4" points="515.91 81.2 511.12 80.24 510.88 75.47 515.58 76.38 515.91 81.2"/><polygon class="cls-4" points="515.91 81.2 519.6 79.06 519.27 74.23 515.58 76.38 515.91 81.2"/><polygon class="cls-4" points="515.58 76.38 510.88 75.47 514.57 73.49 519.27 74.23 515.58 76.38"/><polygon class="cls-4" points="45.09 77 28.04 73.09 27.3 54.96 44.35 58.87 45.09 77"/><polygon class="cls-4" points="45.28 76.77 59.08 69.24 58.36 51.42 44.55 58.95 45.28 76.77"/><polygon class="cls-4" points="44.55 58.95 27.29 55.13 40.41 47.96 58.36 51.42 44.55 58.95"/><polygon class="cls-4" points="76.34 72.72 59.07 68.9 58.34 51.08 75.61 54.91 76.34 72.72"/><polygon class="cls-4" points="76.34 72.72 90.14 65.19 89.41 47.38 75.61 54.91 76.34 72.72"/><polygon class="cls-4" points="75.61 54.91 58.34 51.08 72.02 43.89 89.41 47.38 75.61 54.91"/><polygon class="cls-4" points="57.94 51.41 40.39 47.41 39.95 29.77 57.21 33.59 57.94 51.41"/><polygon class="cls-4" points="57.94 51.41 71.74 43.88 71.01 26.06 57.21 33.59 57.94 51.41"/><polygon class="cls-4" points="57.21 33.59 39.95 29.77 53.77 22.84 71.01 26.06 57.21 33.59"/><polygon class="cls-4" points="100.91 73 85.11 69.4 84.71 53.52 100.26 56.96 100.91 73"/><polygon class="cls-4" points="100.91 73 113.34 66.22 112.68 50.18 100.26 56.96 100.91 73"/><polygon class="cls-4" points="100.26 56.96 84.71 53.52 97.16 47.28 112.68 50.18 100.26 56.96"/><polygon class="cls-4" points="60.88 74.67 53.17 72.91 52.98 65.16 60.56 66.83 60.88 74.67"/><polygon class="cls-4" points="60.88 74.67 66.95 71.36 66.63 63.52 60.56 66.83 60.88 74.67"/><polygon class="cls-4" points="60.56 66.83 52.98 65.16 59.05 62.11 66.63 63.52 60.56 66.83"/><polygon class="cls-4" points="28.43 83.95 20.8 81.86 20.95 74.1 28.46 76.11 28.43 83.95"/><polygon class="cls-4" points="28.43 83.95 34.64 80.91 34.67 73.07 28.46 76.11 28.43 83.95"/><polygon class="cls-4" points="28.46 76.11 20.95 74.1 27.16 71.33 34.67 73.07 28.46 76.11"/><polygon class="cls-4" points="100.03 52.02 95.2 51.28 94.73 46.52 99.48 47.21 100.03 52.02"/><polygon class="cls-4" points="100.03 52.02 103.61 49.71 103.06 44.9 99.48 47.21 100.03 52.02"/><polygon class="cls-4" points="99.48 47.21 94.73 46.52 98.34 44.37 103.06 44.9 99.48 47.21"/><polygon class="cls-4" points="85.81 81.1 90.49 79.69 90.28 74.91 85.68 76.27 85.81 81.1"/><polygon class="cls-4" points="85.81 81.1 81.94 79.32 81.81 74.48 85.68 76.27 85.81 81.1"/><polygon class="cls-4" points="85.68 76.27 90.28 74.91 86.41 73.3 81.81 74.48 85.68 76.27"/><polygon class="cls-4" points="54.91 28.4 58.72 27.2 58.51 23.29 54.76 24.44 54.91 28.4"/><polygon class="cls-4" points="54.91 28.4 51.72 26.97 51.57 23.01 54.76 24.44 54.91 28.4"/><polygon class="cls-4" points="54.76 24.44 58.51 23.29 55.33 22 51.57 23.01 54.76 24.44"/></g></svg>