<svg xmlns="http://www.w3.org/2000/svg" viewBox="0 0 210 200"><defs><style>.cls-1,.cls-4{fill:#fff;}.cls-2,.cls-8{fill:#ea526f;}.cls-3,.cls-7{fill:#25ced1;}.cls-3,.cls-4,.cls-5,.cls-6,.cls-7,.cls-8{stroke:#000;}.cls-3,.cls-4,.cls-5,.cls-6,.cls-7,.cls-8,.cls-9{stroke-miterlimit:10;}.cls-3,.cls-4,.cls-5{stroke-width:0.5px;}.cls-5,.cls-6,.cls-9{fill:none;}.cls-6{stroke-linecap:round;}.cls-6,.cls-7,.cls-8{stroke-width:0.25px;}.cls-9{stroke:#032624;}</style></defs><g id="HCD"><rect class="cls-1" x="4" y="4" width="202" height="192"/><path class="cls-2" d="M202,8V192H8V8H202m8-8H0V200H210V0Z"/></g><g id="Layer_15" data-name="Layer 15"><circle class="cls-3" cx="105.51" cy="123.26" r="60.49"/><circle class="cls-4" cx="105.51" cy="123.26" r="53.04"/><rect class="cls-5" x="128.49" y="104.75" width="11.29" height="27.36" transform="translate(-38.66 71.97) rotate(-26.39)"/><rect class="cls-5" x="69.97" y="104.49" width="11.29" height="27.36" transform="translate(107.8 254.73) rotate(-160.65)"/><path class="cls-5" d="M87.76,124c9.58,2,13.66-2.76,16.06-8.29,2.89,1,3,1.1,9.86,3.13,4.08,1.2,7.92-4.09,4.56-5.29-2.94-1-17.32-6.17-19-6.73a8.83,8.83,0,0,0-6.62.69c-1.5,1-7.17-.38-7.17-.38"/><path class="cls-5" d="M90.85,129.66c-3.12,1.68-6.21,3.3-7.78,4.19-2.79,1.58-.63,7.1,3.7,5.42,3.39-1.32,11.53-5.53,13.45-6.49"/><path class="cls-5" d="M91.81,136.87c-3.12,1.68-6.45,3.3-8,4.19-2.79,1.57-.63,6.86,3.7,5.18,3.39-1.32,15.61-7.69,17.54-8.65"/><path class="cls-5" d="M96.62,141.91c-3.13,1.68-6.46,3.3-8,4.19-2.79,1.58-.62,6.87,3.7,5.18,3.4-1.32,15.62-7.69,17.54-8.65"/><path class="cls-5" d="M135.16,133.19c-4.19,4.16-12.11,10.89-16.92,12.57-1.83,1.12-14.14,7.33-17.54,8.65-4.32,1.68-6.49-3.61-3.7-5.18,1.57-.89,4.9-2.51,8-4.19"/><path class="cls-6" d="M74.51,109c1.2-3.37,1.68-3.37,4.33-2.41"/><path class="cls-6" d="M134.13,108.88c-1.6-3.19-2.08-3.13-4.59-1.85"/><circle class="cls-7" cx="72.35" cy="126.54" r="1.92"/><circle class="cls-8" cx="138.18" cy="126.54" r="1.92"/></g><g id="Layer_23" data-name="Layer 23"><path class="cls-9" d="M27.74,32.54H27V27.46H20.32v5.08h-.77V21.93h.77v4.95H27V21.93h.78Z"/><path class="cls-9" d="M36.31,32a3.35,3.35,0,0,0,1.37-.27,2.91,2.91,0,0,0,1-.74,3.3,3.3,0,0,0,.64-1.11,4.18,4.18,0,0,0,.22-1.39V21.93h.77v6.56a4.87,4.87,0,0,1-.28,1.64,3.81,3.81,0,0,1-.8,1.33,3.73,3.73,0,0,1-1.27.89,4.21,4.21,0,0,1-1.67.32,4.3,4.3,0,0,1-1.68-.32,3.73,3.73,0,0,1-1.27-.89,4.14,4.14,0,0,1-.8-1.33,4.86,4.86,0,0,1-.27-1.64V21.93h.77v6.56a4.16,4.16,0,0,0,.22,1.38A3.2,3.2,0,0,0,33.92,31a2.94,2.94,0,0,0,1,.75A3.32,3.32,0,0,0,36.31,32Z"/><path class="cls-9" d="M50.18,29.9a1.6,1.6,0,0,1,.1-.23,1.47,1.47,0,0,1,.1-.22l4.18-7.38a.26.26,0,0,1,.11-.12l.17,0h.53V32.54H54.7v-9c0-.13,0-.27,0-.41L50.54,30.5a.33.33,0,0,1-.3.2h-.12a.35.35,0,0,1-.3-.2l-4.29-7.42a3,3,0,0,1,0,.42v9h-.67V21.93h.52l.17,0a.36.36,0,0,1,.13.12L50,29.45A3,3,0,0,1,50.18,29.9Z"/><path class="cls-9" d="M68,32.54h-.59a.35.35,0,0,1-.18,0,.4.4,0,0,1-.1-.15l-1.25-3.08H60.67l-1.24,3.08a.3.3,0,0,1-.11.14.28.28,0,0,1-.18.06h-.58L62.9,21.93h.77Zm-7.1-3.85h4.75l-2.17-5.36c0-.09-.07-.19-.1-.29s-.07-.22-.11-.34c0,.12-.07.23-.1.34s-.07.2-.11.29Z"/><path class="cls-9" d="M71.73,22a.3.3,0,0,1,.13.11l6.87,9.2a3.37,3.37,0,0,1,0-.44v-8.9h.68V32.54H79a.33.33,0,0,1-.28-.15l-6.9-9.21a3.34,3.34,0,0,1,0,.43v8.93h-.67V21.93h.37A.4.4,0,0,1,71.73,22Z"/><path class="cls-9" d="M87.6,27.79h3.49v.61H87.6Z"/><path class="cls-9" d="M107,30.76a.17.17,0,0,1,.12,0l.3.32a4.85,4.85,0,0,1-.72.64,5.36,5.36,0,0,1-.85.48,4.79,4.79,0,0,1-1,.3,5.73,5.73,0,0,1-1.21.11,5.27,5.27,0,0,1-2-.38,4.63,4.63,0,0,1-1.58-1.1,5,5,0,0,1-1-1.71,6.38,6.38,0,0,1-.37-2.24A6.19,6.19,0,0,1,99,25a5,5,0,0,1,1.07-1.72,4.85,4.85,0,0,1,1.64-1.11,5.54,5.54,0,0,1,2.11-.39,5.82,5.82,0,0,1,1.06.09,4.63,4.63,0,0,1,.89.24,4.55,4.55,0,0,1,.79.41,6.89,6.89,0,0,1,.72.55l-.24.34a.2.2,0,0,1-.18.09.34.34,0,0,1-.18-.08l-.26-.2-.39-.25a3.55,3.55,0,0,0-.55-.26,4.88,4.88,0,0,0-1.66-.27,4.66,4.66,0,0,0-1.78.33,4,4,0,0,0-1.39,1,4.19,4.19,0,0,0-.91,1.5,5.54,5.54,0,0,0-.33,2,6,6,0,0,0,.32,2,4.46,4.46,0,0,0,.89,1.5,3.87,3.87,0,0,0,1.35.94,4.45,4.45,0,0,0,1.68.32,6.28,6.28,0,0,0,1-.07,3.93,3.93,0,0,0,.82-.23,4.2,4.2,0,0,0,.7-.36,7.14,7.14,0,0,0,.64-.51l.07,0A.11.11,0,0,1,107,30.76Z"/><path class="cls-9" d="M117.72,21.93v.64h-5.59v4.29h4.65v.62h-4.65v4.43h5.59v.63h-6.36V21.93Z"/><path class="cls-9" d="M122.26,22a.26.26,0,0,1,.13.11l6.87,9.2c0-.15,0-.3,0-.44v-8.9h.67V32.54h-.36a.32.32,0,0,1-.28-.15l-6.9-9.21c0,.15,0,.3,0,.43v8.93h-.67V21.93h.38A.35.35,0,0,1,122.26,22Z"/><path class="cls-9" d="M141.49,21.93v.65h-3.72v10H137v-10h-3.75v-.65Z"/><path class="cls-9" d="M151.19,21.93v.64H145.6v4.29h4.65v.62H145.6v4.43h5.59v.63h-6.36V21.93Z"/><path class="cls-9" d="M156.19,27.74v4.8h-.77V21.93h2.71a4.42,4.42,0,0,1,2.74.71,2.47,2.47,0,0,1,.91,2.08,2.85,2.85,0,0,1-.21,1.11,2.55,2.55,0,0,1-.6.88,3.19,3.19,0,0,1-.95.62,4,4,0,0,1-1.25.32,1.5,1.5,0,0,1,.32.3l3.65,4.59h-.67a.4.4,0,0,1-.2,0,.47.47,0,0,1-.17-.15L158.3,28a.81.81,0,0,0-.27-.23,1.26,1.26,0,0,0-.46-.07Zm0-.57H158a4.09,4.09,0,0,0,1.26-.17,2.66,2.66,0,0,0,1-.48,2.09,2.09,0,0,0,.59-.76,2.4,2.4,0,0,0,.2-1,2,2,0,0,0-.74-1.68,3.59,3.59,0,0,0-2.16-.55h-1.94Z"/><path class="cls-9" d="M172.52,21.93v.64h-5.59v4.29h4.65v.62h-4.65v4.43h5.59v.63h-6.36V21.93Z"/><path class="cls-9" d="M185.46,27.23a6.23,6.23,0,0,1-.37,2.22,4.8,4.8,0,0,1-1,1.67,4.62,4.62,0,0,1-1.6,1.06,5.68,5.68,0,0,1-2.06.36h-3.87V21.93h3.87a5.47,5.47,0,0,1,2.06.37,4.48,4.48,0,0,1,1.6,1.06,4.71,4.71,0,0,1,1,1.67A6.12,6.12,0,0,1,185.46,27.23Zm-.8,0a6.06,6.06,0,0,0-.3-2,4.28,4.28,0,0,0-.87-1.47,3.62,3.62,0,0,0-1.35-.91,4.61,4.61,0,0,0-1.74-.32h-3.1v9.37h3.1a4.61,4.61,0,0,0,1.74-.31,3.65,3.65,0,0,0,1.35-.92,4.28,4.28,0,0,0,.87-1.47A6.08,6.08,0,0,0,184.66,27.23Z"/><path class="cls-9" d="M81.34,45.23A6.23,6.23,0,0,1,81,47.45a4.8,4.8,0,0,1-1,1.67,4.62,4.62,0,0,1-1.6,1.06,5.68,5.68,0,0,1-2.06.36H72.41V39.93h3.87a5.47,5.47,0,0,1,2.06.37,4.48,4.48,0,0,1,1.6,1.06A4.71,4.71,0,0,1,81,43,6.12,6.12,0,0,1,81.34,45.23Zm-.79,0a6,6,0,0,0-.31-2,4.28,4.28,0,0,0-.87-1.47A3.67,3.67,0,0,0,78,40.87a4.7,4.7,0,0,0-1.75-.32h-3.1v9.37h3.1A4.7,4.7,0,0,0,78,49.61a3.69,3.69,0,0,0,1.34-.92,4.28,4.28,0,0,0,.87-1.47A6.07,6.07,0,0,0,80.55,45.23Z"/><path class="cls-9" d="M91.67,39.93v.64H86.08v4.29h4.65v.62H86.08v4.43h5.59v.63H85.31V39.93Z"/><path class="cls-9" d="M100.81,41.22a.2.2,0,0,1-.19.13.48.48,0,0,1-.26-.14,3.33,3.33,0,0,0-.41-.31,4.1,4.1,0,0,0-.66-.31,3.08,3.08,0,0,0-1-.14,3,3,0,0,0-1,.16,2.05,2.05,0,0,0-.73.45,2,2,0,0,0-.46.66,2.13,2.13,0,0,0-.15.79,1.61,1.61,0,0,0,.23.89,1.91,1.91,0,0,0,.6.6,3.62,3.62,0,0,0,.86.42l1,.33c.33.11.66.23,1,.37a3.4,3.4,0,0,1,.85.5,2.24,2.24,0,0,1,.6.73,2.3,2.3,0,0,1,.23,1.1,3.27,3.27,0,0,1-.23,1.25,2.94,2.94,0,0,1-.66,1,3.12,3.12,0,0,1-1.06.68,3.81,3.81,0,0,1-1.44.25,4,4,0,0,1-1.81-.37,4.23,4.23,0,0,1-1.33-1L95,49a.26.26,0,0,1,.21-.12.28.28,0,0,1,.17.09l.26.22a4.1,4.1,0,0,0,.36.29,2.52,2.52,0,0,0,.49.28,3.18,3.18,0,0,0,.64.23,3.35,3.35,0,0,0,.81.09,3,3,0,0,0,1.13-.2,2.39,2.39,0,0,0,.84-.52,2.18,2.18,0,0,0,.52-.78,2.61,2.61,0,0,0,.18-1,1.73,1.73,0,0,0-.23-.93,2,2,0,0,0-.6-.61,4,4,0,0,0-.86-.4l-1-.33c-.33-.1-.66-.22-1-.35a3.59,3.59,0,0,1-.85-.5,2.16,2.16,0,0,1-.6-.76,2.4,2.4,0,0,1-.23-1.13,2.78,2.78,0,0,1,.2-1,2.58,2.58,0,0,1,.59-.87A2.81,2.81,0,0,1,97,40a3.56,3.56,0,0,1,1.31-.23,4.07,4.07,0,0,1,1.48.26,3.64,3.64,0,0,1,1.2.81Z"/><path class="cls-9" d="M106.06,50.54h-.77V39.93h.77Z"/><path class="cls-9" d="M115.56,50a7.52,7.52,0,0,0,1-.06,4.6,4.6,0,0,0,1.57-.44c.24-.11.47-.23.71-.36V46.32h-2a.2.2,0,0,1-.14,0,.17.17,0,0,1-.06-.12v-.42h2.93V49.5a6.91,6.91,0,0,1-.82.5,6.2,6.2,0,0,1-2,.58,7.78,7.78,0,0,1-1.23.08,5.63,5.63,0,0,1-2.09-.38,4.65,4.65,0,0,1-1.63-1.1,4.93,4.93,0,0,1-1-1.71,6.76,6.76,0,0,1,0-4.47,4.8,4.8,0,0,1,1.06-1.71,4.61,4.61,0,0,1,1.68-1.09,5.92,5.92,0,0,1,2.21-.39,7.87,7.87,0,0,1,1.12.08,5.27,5.27,0,0,1,1,.25,4.51,4.51,0,0,1,.83.39,5.37,5.37,0,0,1,.73.55l-.2.33a.21.21,0,0,1-.19.11l-.12,0a1.41,1.41,0,0,1-.33-.21,3.56,3.56,0,0,0-.58-.34,4.92,4.92,0,0,0-.91-.33,5.59,5.59,0,0,0-1.33-.14,5,5,0,0,0-1.86.33,4,4,0,0,0-1.43,1,4.17,4.17,0,0,0-.9,1.5,5.64,5.64,0,0,0-.32,2,6,6,0,0,0,.32,2,4.43,4.43,0,0,0,.9,1.51,4,4,0,0,0,1.4,1A4.73,4.73,0,0,0,115.56,50Z"/><path class="cls-9" d="M124.26,40a.26.26,0,0,1,.13.11l6.87,9.2c0-.15,0-.3,0-.44v-8.9h.67V50.54h-.36a.32.32,0,0,1-.28-.15l-6.9-9.21c0,.15,0,.3,0,.43v8.93h-.67V39.93h.38A.35.35,0,0,1,124.26,40Z"/></g></svg>