<svg xmlns="http://www.w3.org/2000/svg" xmlns:xlink="http://www.w3.org/1999/xlink" viewBox="0 0 210 200"><defs><style>.cls-1,.cls-11,.cls-6{fill:none;}.cls-1,.cls-10,.cls-4,.cls-5,.cls-6{stroke:#000;}.cls-1,.cls-10,.cls-11,.cls-4,.cls-5{stroke-miterlimit:10;}.cls-1,.cls-5{stroke-width:0.5px;}.cls-2,.cls-4,.cls-5{fill:#fff;}.cls-3{fill:#25ced1;}.cls-10,.cls-4,.cls-6{stroke-width:0.25px;}.cls-6{stroke-linecap:round;stroke-linejoin:round;}.cls-7{clip-path:url(#clip-path);}.cls-8,.cls-9{fill:#ea526f;}.cls-8{opacity:0.12;}.cls-10{fill:#ffe9ef;}.cls-11{stroke:#032624;}</style><clipPath id="clip-path"><path class="cls-1" d="M73.08,95.27a96.7,96.7,0,0,0-7,8.66c0,2.42-1.39,60.12-.79,64.6,0,2.54,2.85,7.32,8.78,6.84s25.37-.3,33.24.18c2.69.17,6-2.36,7.45-7.81s.54-48.61,0-64.54c-1.64-2.36-6.42-6.9-8.42-8.78a4.64,4.64,0,0,1-1.69-3.63c-4.79-.06-23-.24-29.13-.3C75.87,91.64,74.29,93.94,73.08,95.27Z"/></clipPath></defs><g id="IMPLEMENT"><rect class="cls-2" x="4" y="4" width="202" height="192"/><path class="cls-3" d="M202,8V192H8V8H202m8-8H0V200H210V0Z"/></g><g id="Layer_19" data-name="Layer 19"><path class="cls-4" d="M73.08,95.27a96.7,96.7,0,0,0-7,8.66c0,2.42-1.39,60.12-.79,64.6,0,2.54,2.85,7.32,8.78,6.84s25.37-.3,33.24.18c2.69.17,6-2.36,7.45-7.81s.54-48.61,0-64.54c-1.64-2.36-6.42-6.9-8.42-8.78a4.64,4.64,0,0,1-1.69-3.63c-4.79-.06-23-.24-29.13-.3C75.87,91.64,74.29,93.94,73.08,95.27Z"/><rect class="cls-5" x="72.23" y="76.38" width="35.84" height="14.05"/><line class="cls-6" x1="74.78" y1="78.76" x2="74.78" y2="88.44"/><line class="cls-6" x1="78.18" y1="79.72" x2="78.18" y2="87.47"/><line class="cls-6" x1="84.95" y1="79.72" x2="84.95" y2="87.47"/><line class="cls-6" x1="91.73" y1="79.72" x2="91.73" y2="87.47"/><line class="cls-6" x1="98.63" y1="79.72" x2="98.63" y2="87.47"/><line class="cls-6" x1="105.41" y1="79.72" x2="105.41" y2="87.47"/><line class="cls-6" x1="81.59" y1="78.76" x2="81.59" y2="88.44"/><line class="cls-6" x1="88.39" y1="78.76" x2="88.39" y2="88.44"/><line class="cls-6" x1="95.2" y1="78.76" x2="95.2" y2="88.44"/><line class="cls-6" x1="102.01" y1="78.76" x2="102.01" y2="88.44"/><g class="cls-7"><path class="cls-8" d="M136.53,178H51.05V114.16c1.89,0,5.93-10.53,12.83-10.76,9.69-.33,13,6.7,21.92,6.7,9.17,0,15-5.61,24.21-5.39,9,.22,9.07,6.37,15.38,6.37,5.69,0,7.14-5.6,11.14-5.49Z"/></g><path class="cls-1" d="M73.08,95.27a96.7,96.7,0,0,0-7,8.66c0,2.42-1.39,60.12-.79,64.6,0,2.54,2.85,7.32,8.78,6.84s25.37-.3,33.24.18c2.69.17,6-2.36,7.45-7.81s.54-48.61,0-64.54c-1.64-2.36-6.42-6.9-8.42-8.78a4.64,4.64,0,0,1-1.69-3.63c-4.79-.06-23-.24-29.13-.3C75.87,91.64,74.29,93.94,73.08,95.27Z"/><polygon class="cls-2" points="115.52 147.28 65.45 147.28 65.82 122.88 115.34 122.88 115.52 147.28"/><polygon class="cls-3" points="115.34 122.88 65.82 122.88 65.82 120.09 115.22 120.09 115.34 122.88"/><rect class="cls-3" x="65.33" y="147.16" width="50.25" height="2.85"/><path class="cls-9" d="M71,134.69a1.45,1.45,0,0,0-.31-.18.89.89,0,0,0-.3-.06.51.51,0,0,0-.3.08.28.28,0,0,0-.12.23.21.21,0,0,0,.06.16.58.58,0,0,0,.15.11,1,1,0,0,0,.21.08l.24.07a1.44,1.44,0,0,1,.68.42,1,1,0,0,1,.21.67,1.36,1.36,0,0,1-.09.51,1,1,0,0,1-.28.39,1.26,1.26,0,0,1-.44.25,1.89,1.89,0,0,1-.6.09,2.14,2.14,0,0,1-1.28-.41l.4-.76a2,2,0,0,0,.43.28,1,1,0,0,0,.41.09.48.48,0,0,0,.34-.11.31.31,0,0,0,.12-.24.32.32,0,0,0,0-.14.26.26,0,0,0-.1-.11.5.5,0,0,0-.18-.1l-.26-.1-.36-.12a1.29,1.29,0,0,1-.32-.19,1.06,1.06,0,0,1-.22-.29,1.17,1.17,0,0,1-.08-.45,1.26,1.26,0,0,1,.09-.49,1,1,0,0,1,.25-.38,1,1,0,0,1,.4-.24,1.42,1.42,0,0,1,.52-.09,2.34,2.34,0,0,1,.57.07,2.72,2.72,0,0,1,.56.22Z"/><path class="cls-9" d="M74.51,133.76v2c0,.1,0,.21,0,.32a.82.82,0,0,0,.07.31.48.48,0,0,0,.19.21.65.65,0,0,0,.37.09.6.6,0,0,0,.36-.09.48.48,0,0,0,.19-.21.84.84,0,0,0,.08-.31c0-.11,0-.22,0-.32v-2h1v2.12a1.71,1.71,0,0,1-.39,1.24,2,2,0,0,1-2.4,0,1.67,1.67,0,0,1-.4-1.24v-2.12Z"/><path class="cls-9" d="M80.74,135.37h1.89a4.33,4.33,0,0,1,0,.53,2.16,2.16,0,0,1-.1.44,1.65,1.65,0,0,1-.68.87,2,2,0,0,1-1.11.3,2,2,0,0,1-.78-.14,1.73,1.73,0,0,1-.6-.39,1.77,1.77,0,0,1-.39-.61,2.27,2.27,0,0,1,0-1.57,1.68,1.68,0,0,1,1-1,2.07,2.07,0,0,1,.8-.14,2,2,0,0,1,1,.24,1.74,1.74,0,0,1,.69.77l-.9.37a1,1,0,0,0-.33-.43.82.82,0,0,0-.46-.13,1,1,0,0,0-.39.08.8.8,0,0,0-.29.23,1.1,1.1,0,0,0-.2.35,1.72,1.72,0,0,0-.07.47,1.49,1.49,0,0,0,.06.43.92.92,0,0,0,.18.34.76.76,0,0,0,.3.23,1.08,1.08,0,0,0,.42.08,1.18,1.18,0,0,0,.27,0,.87.87,0,0,0,.24-.1.73.73,0,0,0,.17-.18,1,1,0,0,0,.09-.28h-.78Z"/><path class="cls-9" d="M86.78,136.78H85.42l-.21.63h-1l1.39-3.65h1L88,137.41H87Zm-.25-.73-.43-1.21-.42,1.21Z"/><path class="cls-9" d="M92.92,137.41H91.74l-.91-1.4v1.4h-1v-3.65h1.48a1.44,1.44,0,0,1,.53.09,1.12,1.12,0,0,1,.38.24,1.34,1.34,0,0,1,.22.36,1.27,1.27,0,0,1,.07.44,1,1,0,0,1-.2.67,1,1,0,0,1-.59.35Zm-2.09-2H91a.74.74,0,0,0,.43-.11.41.41,0,0,0,.15-.34.39.39,0,0,0-.15-.33.67.67,0,0,0-.43-.12h-.18Z"/><path class="cls-9" d="M96.5,135.37h1.88c0,.19,0,.37,0,.53a2.16,2.16,0,0,1-.1.44,1.62,1.62,0,0,1-.28.5,1.45,1.45,0,0,1-.41.37,2,2,0,0,1-.51.23,2.32,2.32,0,0,1-.59.07,1.94,1.94,0,0,1-.78-.14,1.64,1.64,0,0,1-.6-.39,2,2,0,0,1-.4-.61,2.27,2.27,0,0,1,0-1.57,1.82,1.82,0,0,1,.39-.61,1.72,1.72,0,0,1,.62-.39,2.27,2.27,0,0,1,1.8.1,1.72,1.72,0,0,1,.68.77l-.9.37a.87.87,0,0,0-.33-.43.77.77,0,0,0-.45-.13,1,1,0,0,0-.39.08.76.76,0,0,0-.3.23,1.08,1.08,0,0,0-.19.35,1.41,1.41,0,0,0-.07.47,1.49,1.49,0,0,0,.06.43.92.92,0,0,0,.18.34.76.76,0,0,0,.3.23,1.08,1.08,0,0,0,.42.08,1.24,1.24,0,0,0,.27,0,.94.94,0,0,0,.23-.1.58.58,0,0,0,.17-.18.77.77,0,0,0,.1-.28H96.5Z"/><path class="cls-9" d="M102.54,136.78h-1.36l-.22.63h-1l1.39-3.65h1l1.39,3.65h-1Zm-.26-.73-.42-1.21-.43,1.21Z"/><path class="cls-9" d="M106.59,133.76v3.65h-1v-3.65Z"/><path class="cls-9" d="M108.8,137.41v-3.65h1l1.76,2.23v-2.23h.94v3.65h-.94l-1.76-2.23v2.23Z"/><line class="cls-6" x1="134.85" y1="125.22" x2="130.32" y2="126.76"/><line class="cls-6" x1="135.39" y1="126.81" x2="131.76" y2="128.05"/><line class="cls-6" x1="136.46" y1="129.98" x2="132.84" y2="131.21"/><line class="cls-6" x1="137.54" y1="133.15" x2="133.91" y2="134.38"/><line class="cls-6" x1="138.64" y1="136.38" x2="135.01" y2="137.61"/><line class="cls-6" x1="139.71" y1="139.55" x2="136.09" y2="140.78"/><line class="cls-6" x1="135.93" y1="128.41" x2="131.4" y2="129.94"/><line class="cls-6" x1="137.01" y1="131.59" x2="132.48" y2="133.13"/><line class="cls-6" x1="138.09" y1="134.77" x2="133.56" y2="136.31"/><line class="cls-6" x1="139.17" y1="137.96" x2="134.64" y2="139.5"/><g id="Layer_20" data-name="Layer 20"><path class="cls-1" d="M127.6,94.23H133a2.95,2.95,0,0,1,2.95,2.95v58.2a0,0,0,0,1,0,0H124.65a0,0,0,0,1,0,0V97.17a2.95,2.95,0,0,1,2.95-2.95Z" transform="translate(-33.21 48.52) rotate(-18.76)"/><path d="M111.49,69.81c.77,2,1.51,3.94,2.22,5.93l2.09,6,2,6c.65,2,1.26,4,1.85,6.06q-1.14-3-2.21-5.94l-2.09-6-2-6Q112.38,72.85,111.49,69.81Z"/><path class="cls-5" d="M118.65,89.07h.94a2.22,2.22,0,0,1,2.22,2.22V95.9a0,0,0,0,1,0,0h-5.39a0,0,0,0,1,0,0V91.29a2.22,2.22,0,0,1,2.22-2.22Z" transform="translate(-23.41 43.21) rotate(-18.76)"/><rect class="cls-1" x="130.81" y="153.73" width="19.91" height="2.94" rx="1.47" transform="translate(-42.43 53.5) rotate(-18.76)"/><rect class="cls-1" x="139.85" y="169.23" width="12.42" height="2.24" rx="1.12" transform="translate(-47.02 56.01) rotate(-18.76)"/><rect class="cls-1" x="141.58" y="156.23" width="3.62" height="13.36" transform="translate(-44.77 54.76) rotate(-18.76)"/><path class="cls-10" d="M125.05,96.17h1a3.7,3.7,0,0,1,3.7,3.7v25.35a0,0,0,0,1,0,0h-8.43a0,0,0,0,1,0,0V99.88a3.7,3.7,0,0,1,3.7-3.7Z" transform="translate(-28.93 46.25) rotate(-18.76)"/></g></g><g id="Layer_23" data-name="Layer 23"><path class="cls-11" d="M17.31,41.54h-.93V28.81h.93Z"/><path class="cls-11" d="M29.59,38.38a2.49,2.49,0,0,1,.11-.29,2.1,2.1,0,0,1,.13-.26l5-8.85a.35.35,0,0,1,.15-.15l.2,0h.63V41.54H35V30.69a4.46,4.46,0,0,1,0-.5l-5,8.9a.4.4,0,0,1-.36.24h-.15a.4.4,0,0,1-.36-.24L24,30.18c0,.18,0,.35,0,.51V41.54h-.8V28.81h.63l.21,0a.29.29,0,0,1,.14.15l5.14,8.85A4,4,0,0,1,29.59,38.38Z"/><path class="cls-11" d="M42.58,36.41v5.13h-.92V28.81H45a5,5,0,0,1,3.38,1,3.49,3.49,0,0,1,1.14,2.8,3.88,3.88,0,0,1-.31,1.54,3.55,3.55,0,0,1-.9,1.21,4.15,4.15,0,0,1-1.42.79,5.87,5.87,0,0,1-1.89.28Zm0-.74H45a4.44,4.44,0,0,0,1.51-.23,3.14,3.14,0,0,0,1.13-.65,2.71,2.71,0,0,0,.71-1,3,3,0,0,0,.25-1.23,2.85,2.85,0,0,0-.9-2.26,4,4,0,0,0-2.7-.79H42.58Z"/><path class="cls-11" d="M54.8,40.76h6v.78H53.88V28.81h.92Z"/><path class="cls-11" d="M72.52,28.81v.76H65.81v5.15h5.58v.75H65.81v5.31h6.71v.76H64.88V28.81Z"/><path class="cls-11" d="M83.68,38.38a2.49,2.49,0,0,1,.11-.29,2.1,2.1,0,0,1,.13-.26l5-8.85a.35.35,0,0,1,.15-.15l.2,0h.63V41.54h-.81V30.69a4.46,4.46,0,0,1,0-.5l-5,8.9a.4.4,0,0,1-.36.24H83.6a.4.4,0,0,1-.36-.24L78.1,30.18c0,.18,0,.35,0,.51V41.54h-.8V28.81H78l.2,0c.06,0,.1.07.15.15l5.14,8.85A4,4,0,0,1,83.68,38.38Z"/><path class="cls-11" d="M103.12,28.81v.76H96.41v5.15H102v.75H96.41v5.31h6.71v.76H95.48V28.81Z"/><path class="cls-11" d="M108.57,28.84a.39.39,0,0,1,.15.14L117,40a4.67,4.67,0,0,1,0-.52V28.81h.81V41.54h-.44a.38.38,0,0,1-.33-.18l-8.28-11c0,.18,0,.35,0,.51V41.54h-.8V28.81h.45A.53.53,0,0,1,108.57,28.84Z"/><path class="cls-11" d="M131.65,28.81v.78h-4.48v12h-.92V29.59h-4.5v-.78Z"/><path class="cls-11" d="M144.2,41.54h-.71a.37.37,0,0,1-.21-.06.57.57,0,0,1-.12-.18l-1.51-3.7H135.4l-1.5,3.7a.33.33,0,0,1-.12.17.32.32,0,0,1-.22.07h-.7l5.21-12.73H139Zm-8.52-4.62h5.7l-2.6-6.44c0-.1-.08-.22-.12-.34s-.09-.27-.13-.41c0,.14-.08.28-.13.41l-.12.35Z"/><path class="cls-11" d="M155.3,28.81v.78h-4.48v12h-.91V29.59h-4.5v-.78Z"/><path class="cls-11" d="M160.56,41.54h-.93V28.81h.93Z"/><path class="cls-11" d="M177.84,35.17a7.57,7.57,0,0,1-.44,2.68,6,6,0,0,1-1.24,2,5.34,5.34,0,0,1-1.92,1.31,6.7,6.7,0,0,1-4.93,0,5.43,5.43,0,0,1-1.92-1.31,6,6,0,0,1-1.24-2,8.18,8.18,0,0,1,0-5.35,6,6,0,0,1,1.24-2.05,5.59,5.59,0,0,1,1.92-1.32,6.7,6.7,0,0,1,4.93,0,5.49,5.49,0,0,1,1.92,1.32,6,6,0,0,1,1.24,2.05A7.56,7.56,0,0,1,177.84,35.17Zm-1,0a7.14,7.14,0,0,0-.37-2.39,5.13,5.13,0,0,0-1-1.8,4.51,4.51,0,0,0-1.62-1.13,5.77,5.77,0,0,0-4.17,0A4.69,4.69,0,0,0,168.07,31a5.15,5.15,0,0,0-1,1.8,7.94,7.94,0,0,0,0,4.79,5.34,5.34,0,0,0,1,1.8,4.67,4.67,0,0,0,1.62,1.12,5.77,5.77,0,0,0,4.17,0,4.49,4.49,0,0,0,1.62-1.12,5.32,5.32,0,0,0,1-1.8A7.16,7.16,0,0,0,176.89,35.17Z"/><path class="cls-11" d="M183.29,28.84a.47.47,0,0,1,.15.14l8.24,11c0-.18,0-.35,0-.52V28.81h.81V41.54H192a.41.41,0,0,1-.34-.18l-8.28-11a4.63,4.63,0,0,1,0,.51V41.54h-.8V28.81h.45A.56.56,0,0,1,183.29,28.84Z"/></g></svg>