<svg xmlns="http://www.w3.org/2000/svg" viewBox="0 0 640 150"><defs><style>.cls-1{fill:#fff;}.cls-2{fill:#25ced1;}.cls-10,.cls-13,.cls-14,.cls-15,.cls-17,.cls-19,.cls-20,.cls-3,.cls-4,.cls-7{fill:none;}.cls-3{stroke:#032624;stroke-miterlimit:10;}.cls-13,.cls-14,.cls-15,.cls-4{stroke:#000;}.cls-10,.cls-13,.cls-14,.cls-15,.cls-17,.cls-19,.cls-20,.cls-4,.cls-7{stroke-linecap:round;stroke-linejoin:round;}.cls-10,.cls-13,.cls-14,.cls-15,.cls-4,.cls-7{stroke-width:0.5px;}.cls-5{fill:#1faaad;}.cls-6{fill:#ffb0b0;}.cls-7{stroke:#25ced1;}.cls-8{fill:#bf4562;}.cls-9{fill:#ea526f;}.cls-10,.cls-19{stroke:#840338;}.cls-11{fill:#aceae8;}.cls-12{fill:#f46782;}.cls-13{stroke-dasharray:5.22 3.13;}.cls-14{stroke-dasharray:4.47 2.68;}.cls-15{stroke-dasharray:12 20;}.cls-16{fill:#ffc5ad;}.cls-17{stroke:#92e7e8;}.cls-17,.cls-19{stroke-width:0.75px;}.cls-18{fill:#ff0054;}.cls-20{stroke:#444;stroke-width:0.25px;}.cls-21{fill:#ff653f;}.cls-22{fill:#a8efed;}</style></defs><g id="PROJ._DESIGN" data-name="PROJ. DESIGN"><rect class="cls-1" x="4" y="4" width="632" height="142"/><path class="cls-2" d="M632,8V142H8V8H632m8-8H0V150H640V0Z"/></g><g id="Layer_24" data-name="Layer 24"><path class="cls-3" d="M308,79.31a7.63,7.63,0,0,1-.44,2.65,5.71,5.71,0,0,1-1.25,2,5.47,5.47,0,0,1-1.91,1.27,6.8,6.8,0,0,1-2.48.44h-4.64V72.94h4.64a6.8,6.8,0,0,1,2.48.44,5.47,5.47,0,0,1,1.91,1.27,5.8,5.8,0,0,1,1.25,2A7.63,7.63,0,0,1,308,79.31Zm-1,0a7,7,0,0,0-.37-2.38,4.81,4.81,0,0,0-1-1.76,4.32,4.32,0,0,0-1.61-1.1,5.65,5.65,0,0,0-2.1-.38h-3.71V84.93h3.71a5.65,5.65,0,0,0,2.1-.38,4.42,4.42,0,0,0,1.61-1.09,4.94,4.94,0,0,0,1-1.77A7,7,0,0,0,307,79.31Z"/><path class="cls-3" d="M320.35,72.94v.77h-6.71v5.15h5.58v.74h-5.58v5.31h6.71v.77h-7.63V72.94Z"/><path class="cls-3" d="M331.32,74.49a.25.25,0,0,1-.23.15.53.53,0,0,1-.31-.16,3.41,3.41,0,0,0-.5-.37,3.89,3.89,0,0,0-.79-.38,4,4,0,0,0-2.39,0,2.56,2.56,0,0,0-.89.54,2.35,2.35,0,0,0-.72,1.74,2,2,0,0,0,.27,1.07,2.64,2.64,0,0,0,.73.72,4.84,4.84,0,0,0,1,.5l1.18.4c.4.13.79.28,1.17.44a4.13,4.13,0,0,1,1,.59,2.67,2.67,0,0,1,1,2.2,4,4,0,0,1-.28,1.51,3.61,3.61,0,0,1-.79,1.23,3.91,3.91,0,0,1-1.28.82,4.68,4.68,0,0,1-1.73.3,5,5,0,0,1-2.17-.44,5.24,5.24,0,0,1-1.59-1.22l.25-.4a.31.31,0,0,1,.25-.13.33.33,0,0,1,.21.1c.08.08.19.16.31.27s.26.22.43.34a3.54,3.54,0,0,0,.58.34,3.86,3.86,0,0,0,.77.27,4.2,4.2,0,0,0,1,.11,3.74,3.74,0,0,0,1.35-.23,2.94,2.94,0,0,0,1-.63,2.78,2.78,0,0,0,.63-.94A3.19,3.19,0,0,0,331,82.1a2.14,2.14,0,0,0-.27-1.12,2.54,2.54,0,0,0-.73-.73,5.36,5.36,0,0,0-1-.49c-.38-.13-.77-.26-1.18-.38s-.79-.27-1.17-.42a4.35,4.35,0,0,1-1-.6,2.79,2.79,0,0,1-.72-.91,3,3,0,0,1-.28-1.37,3.11,3.11,0,0,1,.25-1.23,3.2,3.2,0,0,1,.71-1,3.65,3.65,0,0,1,1.16-.73,4.27,4.27,0,0,1,1.57-.27,4.78,4.78,0,0,1,1.78.31,4.31,4.31,0,0,1,1.44,1Z"/><path class="cls-3" d="M337.62,85.68h-.93V72.94h.93Z"/><path class="cls-3" d="M349,85.08a10.78,10.78,0,0,0,1.2-.07,6.76,6.76,0,0,0,1-.21,6.25,6.25,0,0,0,.89-.32c.28-.13.56-.28.84-.44V80.61h-2.45a.25.25,0,0,1-.17-.06.2.2,0,0,1-.06-.15v-.5h3.52v4.53a8.33,8.33,0,0,1-1,.59,6.64,6.64,0,0,1-1.1.44,10.71,10.71,0,0,1-1.26.27,11.2,11.2,0,0,1-1.48.09,6.56,6.56,0,0,1-2.51-.46,5.65,5.65,0,0,1-2-1.32A5.9,5.9,0,0,1,343.22,82a7.65,7.65,0,0,1-.45-2.68,7.57,7.57,0,0,1,.45-2.68,5.66,5.66,0,0,1,1.28-2,5.59,5.59,0,0,1,2-1.32,7.19,7.19,0,0,1,2.65-.46,8,8,0,0,1,1.34.1,5.53,5.53,0,0,1,1.15.29,5,5,0,0,1,1,.48,6,6,0,0,1,.88.65l-.24.4a.24.24,0,0,1-.22.13.29.29,0,0,1-.16,0,1.69,1.69,0,0,1-.39-.25,4,4,0,0,0-.69-.41,5.76,5.76,0,0,0-1.1-.39,6.5,6.5,0,0,0-1.59-.17,5.92,5.92,0,0,0-2.24.4,4.65,4.65,0,0,0-1.7,1.13,4.81,4.81,0,0,0-1.09,1.8,6.89,6.89,0,0,0-.39,2.39,7.06,7.06,0,0,0,.39,2.42,5.21,5.21,0,0,0,1.09,1.81,4.52,4.52,0,0,0,1.67,1.14A5.75,5.75,0,0,0,349,85.08Z"/><path class="cls-3" d="M359.46,73a.64.64,0,0,1,.16.14l8.24,11a4.81,4.81,0,0,1,0-.52V72.94h.81V85.68h-.44a.38.38,0,0,1-.33-.18l-8.28-11a4.63,4.63,0,0,1,0,.51V85.68h-.8V72.94h.44A.49.49,0,0,1,359.46,73Z"/></g><g id="Layer_27" data-name="Layer 27"><line class="cls-4" x1="413.11" y1="87.26" x2="504.14" y2="87.26"/><line class="cls-4" x1="525.99" y1="87.26" x2="605.8" y2="87.26"/><line class="cls-4" x1="415.11" y1="87.01" x2="415.11" y2="68.53"/><line class="cls-4" x1="415.25" y1="68.53" x2="431.68" y2="68.53"/><line class="cls-4" x1="431.61" y1="68.46" x2="428.69" y2="65.54"/><line class="cls-4" x1="428.69" y1="71.49" x2="431.61" y2="68.58"/><rect class="cls-5" x="572.06" y="121.38" width="15.52" height="4.77" rx="2.39" transform="translate(15.8 306.49) rotate(-30)"/><rect class="cls-6" x="457.24" y="123.44" width="15.52" height="4.77" rx="2.39" transform="translate(-0.62 249.36) rotate(-30)"/><line class="cls-7" x1="600.65" y1="86.77" x2="600.65" y2="69.72"/><line class="cls-7" x1="592.83" y1="69.63" x2="608.5" y2="69.63"/><line class="cls-7" x1="493.35" y1="86.77" x2="493.35" y2="69.72"/><line class="cls-7" x1="485.53" y1="69.63" x2="501.21" y2="69.63"/><polygon class="cls-5" points="587.86 87.07 581.35 91.75 571.08 91.75 571.22 82.16 581.58 82.41 587.86 87.07"/><polygon class="cls-8" points="474.98 87.31 468.47 91.99 458.2 91.99 458.34 82.4 468.7 82.65 474.98 87.31"/><path class="cls-9" d="M560,87H547.29c0-6.82,2.84-12.34,6.34-12.34S560,80.19,560,87Z"/><path class="cls-9" d="M446.25,87H433.56c0-6.82,2.84-12.34,6.34-12.34S446.25,80.19,446.25,87Z"/><line class="cls-10" x1="531.15" y1="86.77" x2="531.15" y2="68.29"/><line class="cls-10" x1="531.29" y1="68.29" x2="547.72" y2="68.29"/><line class="cls-10" x1="547.65" y1="68.22" x2="544.73" y2="65.3"/><line class="cls-10" x1="544.73" y1="71.25" x2="547.65" y2="68.33"/><circle class="cls-11" cx="546.14" cy="29.3" r="3.52"/><circle class="cls-11" cx="564.71" cy="43.62" r="3.52"/><circle class="cls-11" cx="493.46" cy="43.62" r="3.52"/><circle class="cls-11" cx="509.73" cy="19.95" r="3.52"/><circle class="cls-11" cx="464.94" cy="22.26" r="3.52"/><circle class="cls-11" cx="392.16" cy="15.98" r="3.52"/><circle class="cls-11" cx="385.16" cy="46.98" r="3.52"/><circle class="cls-11" cx="618.48" cy="25.78" r="3.52"/><circle class="cls-11" cx="437.63" cy="30.39" r="3.52"/><circle class="cls-11" cx="417.8" cy="21.43" r="3.52"/><circle class="cls-11" cx="485.57" cy="16.43" r="2.91"/><circle class="cls-11" cx="460.57" cy="43.62" r="2.91"/><circle class="cls-11" cx="576.73" cy="16.43" r="3.52"/><circle class="cls-11" cx="597.24" cy="47.14" r="3.52"/><circle class="cls-12" cx="410.16" cy="37.34" r="3.52"/><circle class="cls-12" cx="594.81" cy="29.3" r="3.52"/><line class="cls-4" x1="461.97" y1="117.59" x2="465.02" y2="119.72"/><line class="cls-4" x1="468.05" y1="117.59" x2="465.01" y2="119.72"/><line class="cls-4" x1="465" y1="101.52" x2="465" y2="119.42"/><line class="cls-4" x1="569.08" y1="122.24" x2="478.23" y2="122.24"/><line class="cls-4" x1="523.62" y1="122.21" x2="523.62" y2="132.47"/><line class="cls-4" x1="520.6" y1="130.02" x2="523.64" y2="132.4"/><line class="cls-4" x1="526.68" y1="130.02" x2="523.63" y2="132.4"/><line class="cls-4" x1="578.61" y1="99.21" x2="578.61" y2="117.11"/><line class="cls-4" x1="575.58" y1="115.28" x2="578.63" y2="117.42"/><line class="cls-4" x1="581.66" y1="115.28" x2="578.62" y2="117.42"/><path d="M416.29,91.5v.33h-.71V94h-.42V91.83h-.7V91.5Z"/><path d="M418.08,91.79,417.13,94h-.43l1-2.2H416.4v-.36h1.68Z"/><path d="M408.89,97.37v1h-.41V95.82h.86A.9.9,0,0,1,410,96a.85.85,0,0,1,0,1.14,1,1,0,0,1-.66.2Zm.92-.77a.45.45,0,0,0-.12-.33.54.54,0,0,0-.39-.11h-.41V97h.41C409.64,97,409.81,96.89,409.81,96.6Z"/><path d="M411.28,96.46a.8.8,0,0,1,.43-.12v.45h-.12a.65.65,0,0,0-.43.13.53.53,0,0,0-.17.44v1h-.41v-2H411v.38A.83.83,0,0,1,411.28,96.46Z"/><path d="M413.45,96.47a.89.89,0,0,1,.36.36,1.19,1.19,0,0,1,0,1.08.93.93,0,0,1-.36.35,1.14,1.14,0,0,1-.52.12,1.11,1.11,0,0,1-.52-.12.93.93,0,0,1-.36-.35,1.08,1.08,0,0,1-.13-.54,1,1,0,0,1,.13-.54.89.89,0,0,1,.36-.36,1.11,1.11,0,0,1,.52-.12A1.14,1.14,0,0,1,413.45,96.47Zm-.81.31a.58.58,0,0,0-.22.22.81.81,0,0,0-.08.37.8.8,0,0,0,.08.36.58.58,0,0,0,.22.22.54.54,0,0,0,.29.07.59.59,0,0,0,.29-.07.5.5,0,0,0,.21-.22.68.68,0,0,0,.08-.36.7.7,0,0,0-.08-.37.5.5,0,0,0-.21-.22.59.59,0,0,0-.29-.07A.54.54,0,0,0,412.64,96.78Z"/><path d="M417.38,96.57a.93.93,0,0,1,.2.63v1.16h-.41V97.25a.54.54,0,0,0-.13-.4.43.43,0,0,0-.35-.15.46.46,0,0,0-.38.16.6.6,0,0,0-.15.44v1.06h-.41V97.25a.54.54,0,0,0-.13-.4.43.43,0,0,0-.35-.15.5.5,0,0,0-.39.16.64.64,0,0,0-.14.44v1.06h-.41v-2h.41v.41a.7.7,0,0,1,.25-.33.74.74,0,0,1,.42-.12.71.71,0,0,1,.43.13.67.67,0,0,1,.26.35.7.7,0,0,1,.28-.35.8.8,0,0,1,.43-.13A.76.76,0,0,1,417.38,96.57Z"/><path d="M419.49,96.47a.89.89,0,0,1,.36.36,1.19,1.19,0,0,1,0,1.08.93.93,0,0,1-.36.35,1.11,1.11,0,0,1-.52.12,1.14,1.14,0,0,1-.52-.12.93.93,0,0,1-.36-.35,1.2,1.2,0,0,1-.13-.54,1.13,1.13,0,0,1,.13-.54.89.89,0,0,1,.36-.36,1.14,1.14,0,0,1,.52-.12A1.11,1.11,0,0,1,419.49,96.47Zm-.81.31a.58.58,0,0,0-.22.22.81.81,0,0,0-.08.37.8.8,0,0,0,.08.36.58.58,0,0,0,.22.22A.59.59,0,0,0,419,98a.57.57,0,0,0,.29-.07.58.58,0,0,0,.22-.22.8.8,0,0,0,.08-.36.81.81,0,0,0-.08-.37.58.58,0,0,0-.22-.22.57.57,0,0,0-.29-.07A.59.59,0,0,0,418.68,96.78Z"/><path d="M421.37,98v.36h-.25a.56.56,0,0,1-.64-.66v-1h-.29v-.35h.29v-.5h.41v.5h.48v.35h-.48v1a.35.35,0,0,0,.06.24.32.32,0,0,0,.22.06Z"/><path d="M423.58,97.45h-1.52a.62.62,0,0,0,.17.45.53.53,0,0,0,.39.15A.65.65,0,0,0,423,98a.46.46,0,0,0,.17-.28h.44a1,1,0,0,1-.16.37.9.9,0,0,1-.33.25,1.13,1.13,0,0,1-.45.09,1.07,1.07,0,0,1-.51-.12.91.91,0,0,1-.35-.35,1.28,1.28,0,0,1,0-1.08.87.87,0,0,1,.35-.36,1.14,1.14,0,0,1,1,0,.87.87,0,0,1,.33.33.94.94,0,0,1,.12.47A.9.9,0,0,1,423.58,97.45Zm-.46-.51a.48.48,0,0,0-.2-.2.67.67,0,0,0-.28-.06.55.55,0,0,0-.4.15.57.57,0,0,0-.18.43h1.13A.61.61,0,0,0,423.12,96.94Z"/><path d="M424.69,96.46a.81.81,0,0,1,.44-.12v.45H425a.65.65,0,0,0-.43.13.53.53,0,0,0-.16.44v1H424v-2h.41v.38A.73.73,0,0,1,424.69,96.46Z"/><path d="M437.33,95.39l-.63-1h-.29v1H436V92.85h.89a.92.92,0,0,1,.66.21.7.7,0,0,1,.23.56.73.73,0,0,1-.17.49.8.8,0,0,1-.48.25l.66,1Zm-.92-1.31h.45c.33,0,.5-.14.5-.44a.42.42,0,0,0-.12-.32.52.52,0,0,0-.38-.12h-.45Z"/><path d="M439.85,94.3a.67.67,0,0,1-.07.9.89.89,0,0,1-.62.19h-1V92.85h1a.92.92,0,0,1,.59.17.59.59,0,0,1,.2.47.61.61,0,0,1-.12.39.63.63,0,0,1-.33.2A.62.62,0,0,1,439.85,94.3Zm-1.29-.36h.51a.48.48,0,0,0,.33-.1.41.41,0,0,0,0-.56.56.56,0,0,0-.35-.1h-.49Zm.88,1a.37.37,0,0,0,.13-.3.35.35,0,0,0-.13-.3.57.57,0,0,0-.36-.11h-.52v.81h.52A.53.53,0,0,0,439.44,95Z"/><path d="M442,95.06a.71.71,0,0,1-.28.26,1,1,0,0,1-.45.1,1.11,1.11,0,0,1-.46-.1.76.76,0,0,1-.33-.25.74.74,0,0,1-.14-.39h.44a.47.47,0,0,0,.14.29.46.46,0,0,0,.33.12.4.4,0,0,0,.29-.1.36.36,0,0,0,.11-.26.36.36,0,0,0-.08-.23.55.55,0,0,0-.19-.14l-.3-.11a2.68,2.68,0,0,1-.39-.15.75.75,0,0,1-.25-.22.63.63,0,0,1-.11-.38.69.69,0,0,1,.1-.36.76.76,0,0,1,.29-.24,1,1,0,0,1,.43-.08,1,1,0,0,1,.62.18.72.72,0,0,1,.26.49h-.44a.4.4,0,0,0-.14-.24.41.41,0,0,0-.3-.11.4.4,0,0,0-.27.09.33.33,0,0,0-.11.26.38.38,0,0,0,.07.21.43.43,0,0,0,.19.13,2.63,2.63,0,0,0,.3.12,2.68,2.68,0,0,1,.39.15.78.78,0,0,1,.26.22.67.67,0,0,1,.1.39A.69.69,0,0,1,442,95.06Z"/><path d="M552.7,94.31l-.64-1h-.29v1h-.41V91.77h.9a.93.93,0,0,1,.66.21.73.73,0,0,1,.22.56.71.71,0,0,1-.17.5.84.84,0,0,1-.48.24l.67,1Zm-.93-1.3h.45c.33,0,.5-.15.5-.44a.45.45,0,0,0-.12-.33.52.52,0,0,0-.38-.12h-.45Z"/><path d="M555.21,93.22a.69.69,0,0,1-.07.91.94.94,0,0,1-.62.18h-1V91.77h1a.89.89,0,0,1,.58.17.57.57,0,0,1,.2.47.61.61,0,0,1-.12.39.63.63,0,0,1-.33.2A.67.67,0,0,1,555.21,93.22Zm-1.29-.35h.51a.49.49,0,0,0,.33-.11.36.36,0,0,0,.11-.28.35.35,0,0,0-.11-.27.49.49,0,0,0-.34-.1h-.5Zm.88,1a.41.41,0,0,0,0-.6.57.57,0,0,0-.36-.11h-.52V94h.52A.53.53,0,0,0,554.8,93.87Z"/><path d="M557.32,94a.59.59,0,0,1-.28.26.88.88,0,0,1-.45.1,1.14,1.14,0,0,1-.46-.09.87.87,0,0,1-.33-.26.73.73,0,0,1-.14-.38h.44a.44.44,0,0,0,.14.28.49.49,0,0,0,.34.12.39.39,0,0,0,.29-.1.38.38,0,0,0,.1-.26.36.36,0,0,0-.08-.23.59.59,0,0,0-.18-.13,2,2,0,0,0-.31-.12A2.68,2.68,0,0,1,556,93a.65.65,0,0,1-.25-.22.61.61,0,0,1-.11-.38.75.75,0,0,1,.1-.36.76.76,0,0,1,.29-.24,1.18,1.18,0,0,1,.43-.08.92.92,0,0,1,.62.19.68.68,0,0,1,.26.49h-.44a.47.47,0,0,0-.13-.25.45.45,0,0,0-.31-.1.46.46,0,0,0-.27.08.33.33,0,0,0-.11.26.29.29,0,0,0,.08.21.44.44,0,0,0,.18.14l.3.11A2.68,2.68,0,0,1,557,93a.71.71,0,0,1,.26.23.72.72,0,0,1,0,.73Z"/><path d="M570.59,96a.85.85,0,0,1,.31.55h-.43a.43.43,0,0,0-.18-.29.53.53,0,0,0-.34-.11.54.54,0,0,0-.4.17.7.7,0,0,0-.16.49.72.72,0,0,0,.16.49.54.54,0,0,0,.4.17.53.53,0,0,0,.34-.11.43.43,0,0,0,.18-.29h.43a.85.85,0,0,1-.31.55,1,1,0,0,1-.64.21.91.91,0,0,1-.5-.13.79.79,0,0,1-.35-.35,1.19,1.19,0,0,1,0-1.08.84.84,0,0,1,.35-.35.91.91,0,0,1,.5-.13A1,1,0,0,1,570.59,96Z"/><path d="M572.82,96a.85.85,0,0,1,.31.55h-.43a.52.52,0,0,0-.18-.29.56.56,0,0,0-.35-.11.52.52,0,0,0-.39.17.66.66,0,0,0-.16.49.67.67,0,0,0,.16.49.52.52,0,0,0,.39.17.56.56,0,0,0,.35-.11.52.52,0,0,0,.18-.29h.43a.85.85,0,0,1-.31.55,1.07,1.07,0,0,1-1.15.08.82.82,0,0,1-.34-.35,1.19,1.19,0,0,1,0-1.08.88.88,0,0,1,.34-.35,1.07,1.07,0,0,1,1.15.08Z"/><path d="M574.79,95.88a.71.71,0,0,1,.26.35V95.09h.41v2.66h-.41v-.46a.67.67,0,0,1-.26.35.87.87,0,0,1-.93,0,.84.84,0,0,1-.32-.35,1.38,1.38,0,0,1,0-1.08.91.91,0,0,1,.32-.35.87.87,0,0,1,.93,0Zm-.78.4a.65.65,0,0,0-.16.48.68.68,0,0,0,.16.48.57.57,0,0,0,.44.17.53.53,0,0,0,.31-.08.61.61,0,0,0,.22-.23.86.86,0,0,0,0-.68.73.73,0,0,0-.22-.24.62.62,0,0,0-.31-.08A.57.57,0,0,0,574,96.28Z"/><path d="M577.47,97.2H576.4l-.19.55h-.44l.93-2.5h.47l.94,2.5h-.44Zm-.11-.32-.42-1.18-.42,1.18Z"/><path d="M581.17,95.42a1.2,1.2,0,0,1,.41.65h-.43a.77.77,0,0,0-.29-.37.82.82,0,0,0-.48-.13.67.67,0,0,0-.4.11.68.68,0,0,0-.28.32,1.1,1.1,0,0,0,0,1,.68.68,0,0,0,.28.32.75.75,0,0,0,.4.11.82.82,0,0,0,.48-.13.79.79,0,0,0,.29-.36h.43a1.17,1.17,0,0,1-.41.64,1.4,1.4,0,0,1-1.42.07,1.12,1.12,0,0,1-.43-.46,1.44,1.44,0,0,1-.15-.67,1.47,1.47,0,0,1,.15-.67,1.12,1.12,0,0,1,.43-.46,1.4,1.4,0,0,1,1.42.07Z"/><path d="M584,97.15a1.09,1.09,0,0,1-.46.44,1.47,1.47,0,0,1-.72.16H582V95.21h.85a1.47,1.47,0,0,1,.72.16,1.09,1.09,0,0,1,.46.44,1.41,1.41,0,0,1,.15.67A1.44,1.44,0,0,1,584,97.15Zm-.51,0a.85.85,0,0,0,.25-.66.87.87,0,0,0-.25-.67.94.94,0,0,0-.7-.24h-.41v1.81h.41A.94.94,0,0,0,583.51,97.14Z"/><path d="M586.17,97.42a.62.62,0,0,1-.27.26.93.93,0,0,1-.45.1,1.16,1.16,0,0,1-.47-.09,1,1,0,0,1-.33-.26.83.83,0,0,1-.14-.38H585a.44.44,0,0,0,.14.28.49.49,0,0,0,.34.12.39.39,0,0,0,.29-.1.34.34,0,0,0,.1-.26.36.36,0,0,0-.08-.23.59.59,0,0,0-.18-.13,2,2,0,0,0-.31-.12,2.68,2.68,0,0,1-.39-.15.65.65,0,0,1-.25-.22.63.63,0,0,1-.1-.38.65.65,0,0,1,.1-.36.64.64,0,0,1,.29-.24,1.1,1.1,0,0,1,.43-.08.89.89,0,0,1,.61.19.69.69,0,0,1,.27.49h-.45a.41.41,0,0,0-.13-.25.44.44,0,0,0-.3-.1.47.47,0,0,0-.28.08.33.33,0,0,0-.1.26.3.3,0,0,0,.07.21.62.62,0,0,0,.18.14l.3.11a2.68,2.68,0,0,1,.39.15.64.64,0,0,1,.26.23.72.72,0,0,1,0,.73Z"/><path d="M457.5,94.87a.85.85,0,0,1,.31.55h-.43a.47.47,0,0,0-.18-.29.53.53,0,0,0-.34-.11.54.54,0,0,0-.4.17.67.67,0,0,0-.16.49.66.66,0,0,0,.16.49.51.51,0,0,0,.4.17.53.53,0,0,0,.34-.1.49.49,0,0,0,.18-.3h.43a.9.9,0,0,1-.31.56,1,1,0,0,1-.64.2,1.07,1.07,0,0,1-.51-.12.85.85,0,0,1-.34-.36,1.19,1.19,0,0,1,0-1.08.88.88,0,0,1,.34-.35,1.07,1.07,0,0,1,.51-.12A1,1,0,0,1,457.5,94.87Z"/><path d="M459.73,94.87a.85.85,0,0,1,.31.55h-.43a.52.52,0,0,0-.18-.29.56.56,0,0,0-.35-.11.52.52,0,0,0-.39.17.67.67,0,0,0-.16.49.66.66,0,0,0,.16.49.49.49,0,0,0,.39.17.56.56,0,0,0,.35-.1.54.54,0,0,0,.18-.3H460a.9.9,0,0,1-.31.56,1,1,0,0,1-.64.2,1.07,1.07,0,0,1-.51-.12.87.87,0,0,1-.35-.36,1.28,1.28,0,0,1,0-1.08.91.91,0,0,1,.35-.35,1.07,1.07,0,0,1,.51-.12A1,1,0,0,1,459.73,94.87Z"/><path d="M461.69,94.8a.71.71,0,0,1,.27.35V94h.41v2.66H462v-.46a.69.69,0,0,1-.27.36.76.76,0,0,1-.46.13.9.9,0,0,1-.46-.12.81.81,0,0,1-.32-.36,1.38,1.38,0,0,1,0-1.08.84.84,0,0,1,.32-.35.9.9,0,0,1,.46-.12A.76.76,0,0,1,461.69,94.8Zm-.77.4a.68.68,0,0,0-.16.48.65.65,0,0,0,.16.48.57.57,0,0,0,.44.18.65.65,0,0,0,.31-.08.66.66,0,0,0,.21-.23.67.67,0,0,0,.08-.35.63.63,0,0,0-.08-.34.52.52,0,0,0-.21-.23.55.55,0,0,0-.31-.08A.57.57,0,0,0,460.92,95.2Z"/><path d="M464.56,95.58a.66.66,0,0,1-.07.91.91.91,0,0,1-.61.18h-1V94.13h1a.92.92,0,0,1,.59.17.62.62,0,0,1,.2.47.57.57,0,0,1-.13.4.6.6,0,0,1-.33.19A.66.66,0,0,1,464.56,95.58Zm-1.28-.35h.51a.49.49,0,0,0,.32-.1.39.39,0,0,0,0-.56.48.48,0,0,0-.34-.1h-.49Zm.88,1a.38.38,0,0,0,.13-.3.42.42,0,0,0-.13-.3.58.58,0,0,0-.37-.1h-.51v.81h.52A.57.57,0,0,0,464.16,96.23Z"/><path d="M467.84,94.35a1.1,1.1,0,0,1,.42.64h-.43a.82.82,0,0,0-.29-.37.9.9,0,0,0-.48-.13.75.75,0,0,0-.4.11.73.73,0,0,0-.28.32,1.06,1.06,0,0,0-.11.48,1,1,0,0,0,.11.48.68.68,0,0,0,.28.32.67.67,0,0,0,.4.11.82.82,0,0,0,.48-.13.79.79,0,0,0,.29-.36h.43a1.13,1.13,0,0,1-.42.64,1.2,1.2,0,0,1-.77.24,1.25,1.25,0,0,1-.64-.17,1.16,1.16,0,0,1-.43-.45,1.59,1.59,0,0,1,0-1.35,1.19,1.19,0,0,1,.43-.46,1.24,1.24,0,0,1,.64-.16A1.2,1.2,0,0,1,467.84,94.35Z"/><path d="M470.7,96.07a1.17,1.17,0,0,1-.46.45,1.59,1.59,0,0,1-.72.15h-.85V94.13h.85a1.59,1.59,0,0,1,.72.16,1.09,1.09,0,0,1,.46.44,1.57,1.57,0,0,1,0,1.34Zm-.51,0a.91.91,0,0,0,.25-.67.92.92,0,0,0-.25-.67,1,1,0,0,0-.7-.23h-.41v1.8h.41A1,1,0,0,0,470.19,96.07Z"/><path d="M472.85,96.35a.63.63,0,0,1-.28.25.88.88,0,0,1-.45.1,1.14,1.14,0,0,1-.46-.09.78.78,0,0,1-.33-.26.73.73,0,0,1-.14-.38h.44a.44.44,0,0,0,.14.28.49.49,0,0,0,.34.12.39.39,0,0,0,.29-.1.38.38,0,0,0,.1-.26.33.33,0,0,0-.08-.22.49.49,0,0,0-.18-.14l-.31-.12a2.68,2.68,0,0,1-.39-.15.65.65,0,0,1-.25-.22.6.6,0,0,1-.1-.37.66.66,0,0,1,.1-.37.58.58,0,0,1,.28-.23,1,1,0,0,1,.44-.09.91.91,0,0,1,.61.19.67.67,0,0,1,.26.49h-.44a.47.47,0,0,0-.13-.25.44.44,0,0,0-.3-.1.41.41,0,0,0-.28.09.31.31,0,0,0-.11.25.33.33,0,0,0,.08.22.42.42,0,0,0,.18.13l.3.11a2.68,2.68,0,0,1,.39.15.82.82,0,0,1,.26.23.67.67,0,0,1,.11.39A.73.73,0,0,1,472.85,96.35Z"/><path d="M435.51,125.35a.92.92,0,0,1,.31.55h-.44a.46.46,0,0,0-.17-.29.56.56,0,0,0-.35-.11.51.51,0,0,0-.39.17.67.67,0,0,0-.16.49.7.7,0,0,0,.16.5.51.51,0,0,0,.39.17.56.56,0,0,0,.35-.11.45.45,0,0,0,.17-.3h.44a.92.92,0,0,1-.31.56,1,1,0,0,1-.64.2,1.07,1.07,0,0,1-.51-.12.91.91,0,0,1-.35-.35,1.2,1.2,0,0,1-.12-.55,1.19,1.19,0,0,1,.12-.54.91.91,0,0,1,.35-.35,1.07,1.07,0,0,1,.51-.12A1,1,0,0,1,435.51,125.35Z"/><path d="M437.73,125.35a.89.89,0,0,1,.32.55h-.44a.46.46,0,0,0-.17-.29.58.58,0,0,0-.35-.11.54.54,0,0,0-.4.17.72.72,0,0,0-.15.49.75.75,0,0,0,.15.5.54.54,0,0,0,.4.17.58.58,0,0,0,.35-.11.45.45,0,0,0,.17-.3h.44a.88.88,0,0,1-.32.56,1,1,0,0,1-.63.2,1.07,1.07,0,0,1-.51-.12.84.84,0,0,1-.35-.35,1.21,1.21,0,0,1,0-1.09.84.84,0,0,1,.35-.35,1.07,1.07,0,0,1,.51-.12A1,1,0,0,1,437.73,125.35Z"/><path d="M439.7,125.28a.71.71,0,0,1,.27.35v-1.14h.41v2.67H440v-.46a.71.71,0,0,1-.27.35.78.78,0,0,1-.46.13.88.88,0,0,1-.46-.12.84.84,0,0,1-.32-.35,1.2,1.2,0,0,1-.12-.55,1.19,1.19,0,0,1,.12-.54.84.84,0,0,1,.32-.35.88.88,0,0,1,.46-.12A.78.78,0,0,1,439.7,125.28Zm-.77.4a.69.69,0,0,0-.17.48.65.65,0,0,0,.17.48.56.56,0,0,0,.44.18.61.61,0,0,0,.3-.08.54.54,0,0,0,.22-.23.75.75,0,0,0,.08-.35.74.74,0,0,0-.08-.34.49.49,0,0,0-.22-.23.61.61,0,0,0-.3-.08A.59.59,0,0,0,438.93,125.68Z"/><path d="M442.57,126.07a.58.58,0,0,1,.14.4.63.63,0,0,1-.21.5.89.89,0,0,1-.62.19h-1v-2.54h1a.84.84,0,0,1,.58.17.57.57,0,0,1,.21.47.61.61,0,0,1-.13.39.66.66,0,0,1-.33.2A.59.59,0,0,1,442.57,126.07Zm-1.29-.36h.51a.47.47,0,0,0,.33-.1.41.41,0,0,0,0-.56.49.49,0,0,0-.34-.1h-.5Zm.88,1a.35.35,0,0,0,.13-.29.35.35,0,0,0-.13-.3.5.5,0,0,0-.36-.11h-.52v.81h.52A.53.53,0,0,0,442.16,126.71Z"/><path d="M445.57,124.62V125h-.7v2.21h-.42V125h-.7v-.33Z"/><path d="M447.3,125.27a.81.81,0,0,1,.36.35,1.08,1.08,0,0,1,.13.54,1.09,1.09,0,0,1-.13.55.81.81,0,0,1-.36.35,1.07,1.07,0,0,1-.51.12,1.08,1.08,0,0,1-.52-.12.93.93,0,0,1-.36-.35,1.09,1.09,0,0,1-.13-.55,1.08,1.08,0,0,1,.13-.54.93.93,0,0,1,.36-.35,1.08,1.08,0,0,1,.52-.12A1.07,1.07,0,0,1,447.3,125.27Zm-.8.31a.47.47,0,0,0-.22.22.8.8,0,0,0-.08.36.81.81,0,0,0,.08.37.52.52,0,0,0,.22.22.54.54,0,0,0,.29.07.59.59,0,0,0,.29-.07.5.5,0,0,0,.21-.22.7.7,0,0,0,.08-.37.68.68,0,0,0-.08-.36.45.45,0,0,0-.21-.22.6.6,0,0,0-.29-.08A.55.55,0,0,0,446.5,125.58Z"/><path d="M449.36,127.16l-.48-.7-.43.7H448l.65-1-.66-1h.46l.48.69.42-.69h.45l-.65,1,.68,1Z"/><path d="M450.13,124.43a.24.24,0,0,1,.19-.07.25.25,0,0,1,.19.07.21.21,0,0,1,.07.17.22.22,0,0,1-.07.17.29.29,0,0,1-.19.06.27.27,0,0,1-.19-.06.23.23,0,0,1-.08-.17A.21.21,0,0,1,450.13,124.43Zm.39.74v2h-.41v-2Z"/><path d="M452.68,125.37a.87.87,0,0,1,.21.63v1.16h-.41V126a.6.6,0,0,0-.14-.41.5.5,0,0,0-.37-.14.51.51,0,0,0-.39.15.65.65,0,0,0-.15.46v1.06H451v-2h.41v.44a.67.67,0,0,1,.27-.35.75.75,0,0,1,.43-.12A.72.72,0,0,1,452.68,125.37Z"/><path d="M590.08,125.55a.85.85,0,0,1,.31.55H590a.43.43,0,0,0-.17-.29.56.56,0,0,0-.35-.11.48.48,0,0,0-.39.17.66.66,0,0,0-.16.49.67.67,0,0,0,.16.49.51.51,0,0,0,.39.17.56.56,0,0,0,.35-.11.46.46,0,0,0,.17-.29h.44a.85.85,0,0,1-.31.55,1.07,1.07,0,0,1-1.15.08.84.84,0,0,1-.35-.35,1.27,1.27,0,0,1,0-1.08.91.91,0,0,1,.35-.35,1.07,1.07,0,0,1,1.15.08Z"/><path d="M592.3,125.55a.86.86,0,0,1,.32.55h-.44a.43.43,0,0,0-.17-.29.56.56,0,0,0-.35-.11.51.51,0,0,0-.4.17.7.7,0,0,0-.15.49.72.72,0,0,0,.15.49.54.54,0,0,0,.4.17.56.56,0,0,0,.35-.11.46.46,0,0,0,.17-.29h.44a.86.86,0,0,1-.32.55.94.94,0,0,1-.63.21,1,1,0,0,1-.51-.13.79.79,0,0,1-.35-.35,1.19,1.19,0,0,1,0-1.08.84.84,0,0,1,.35-.35,1,1,0,0,1,.51-.13A.94.94,0,0,1,592.3,125.55Z"/><path d="M594.27,125.48a.67.67,0,0,1,.27.35v-1.14H595v2.66h-.41v-.46a.63.63,0,0,1-.27.35.78.78,0,0,1-.46.14.8.8,0,0,1-.46-.13.78.78,0,0,1-.32-.35,1.27,1.27,0,0,1,0-1.08.84.84,0,0,1,.32-.35.8.8,0,0,1,.46-.13A.78.78,0,0,1,594.27,125.48Zm-.77.4a.65.65,0,0,0-.17.48.69.69,0,0,0,.17.48.55.55,0,0,0,.44.17.58.58,0,0,0,.31-.08.52.52,0,0,0,.21-.23.71.71,0,0,0,.08-.34.78.78,0,0,0-.08-.35.66.66,0,0,0-.21-.23.68.68,0,0,0-.31-.08A.56.56,0,0,0,593.5,125.88Z"/><path d="M597,126.8h-1.07l-.2.55h-.44l.94-2.5h.47l.93,2.5h-.44Zm-.12-.32-.42-1.18-.42,1.18Z"/><path d="M600.26,126.8h-1.08l-.19.55h-.44l.94-2.5H600l.93,2.5h-.44Zm-.12-.32-.42-1.18-.42,1.18Z"/><path d="M602.86,125.56a.9.9,0,0,1,.21.64v1.15h-.41v-1.11a.56.56,0,0,0-.14-.41.49.49,0,0,0-.38-.15.5.5,0,0,0-.39.16.64.64,0,0,0-.15.46v1h-.41v-2h.41v.43a.76.76,0,0,1,.27-.34.8.8,0,0,1,.43-.12A.73.73,0,0,1,602.86,125.56Z"/><path d="M604.54,127v.35h-.25a.69.69,0,0,1-.48-.15.66.66,0,0,1-.16-.51v-1h-.29v-.35h.29v-.49h.41v.49h.48v.35h-.48v1a.33.33,0,0,0,.06.23.34.34,0,0,0,.22.07Z"/><path d="M604.94,124.62a.25.25,0,0,1,.19-.07.27.27,0,0,1,.2.07.26.26,0,0,1,.07.17.24.24,0,0,1-.07.17.32.32,0,0,1-.2.07.29.29,0,0,1-.19-.07.21.21,0,0,1-.07-.17A.22.22,0,0,1,604.94,124.62Zm.4.75v2h-.41v-2Z"/><path d="M606.83,127v.35h-.25a.69.69,0,0,1-.48-.15.66.66,0,0,1-.16-.51v-1h-.29v-.35h.29v-.49h.41v.49h.48v.35h-.48v1a.33.33,0,0,0,.06.23.32.32,0,0,0,.22.07Z"/><path d="M608.64,125.47a.87.87,0,0,1,.36.35,1.19,1.19,0,0,1,0,1.08.81.81,0,0,1-.36.35,1,1,0,0,1-.52.13,1,1,0,0,1-.51-.13.81.81,0,0,1-.36-.35,1.05,1.05,0,0,1-.13-.54,1,1,0,0,1,.13-.54.81.81,0,0,1,.36-.35,1,1,0,0,1,.51-.13A1,1,0,0,1,608.64,125.47Zm-.81.3a.5.5,0,0,0-.21.22.7.7,0,0,0-.08.37.72.72,0,0,0,.08.37.56.56,0,0,0,.21.22.73.73,0,0,0,.29.07.73.73,0,0,0,.3-.07.63.63,0,0,0,.21-.22.84.84,0,0,0,.08-.37.81.81,0,0,0-.08-.37.56.56,0,0,0-.21-.22.6.6,0,0,0-.3-.07A.59.59,0,0,0,607.83,125.77Z"/><path d="M610.7,127.35l-.49-.7-.42.7h-.46l.66-1-.66-.95h.46l.47.68.43-.68h.45l-.66,1,.68,1Z"/><path d="M611.46,124.62a.25.25,0,0,1,.19-.07.27.27,0,0,1,.2.07.22.22,0,0,1,.07.17.21.21,0,0,1-.07.17.32.32,0,0,1-.2.07.29.29,0,0,1-.19-.07.24.24,0,0,1-.07-.17A.26.26,0,0,1,611.46,124.62Zm.4.75v2h-.41v-2Z"/><path d="M614,125.56a.9.9,0,0,1,.21.64v1.15h-.41v-1.11a.56.56,0,0,0-.14-.41.48.48,0,0,0-.37-.15.51.51,0,0,0-.4.16.68.68,0,0,0-.14.46v1h-.41v-2h.41v.43a.68.68,0,0,1,.26-.34.8.8,0,0,1,.43-.12A.73.73,0,0,1,614,125.56Z"/><path d="M492,93v.33h-.71V95.5h-.42V93.29h-.7V93Z"/><path d="M494.1,94.59h-1.52a.62.62,0,0,0,.16.46.61.61,0,0,0,.4.14.55.55,0,0,0,.34-.1.41.41,0,0,0,.18-.28h.44a.84.84,0,0,1-.17.37.78.78,0,0,1-.33.26,1.06,1.06,0,0,1-.45.09,1,1,0,0,1-.5-.12.87.87,0,0,1-.35-.36,1.19,1.19,0,0,1,0-1.08.84.84,0,0,1,.35-.35,1,1,0,0,1,.5-.13,1,1,0,0,1,.51.13A.83.83,0,0,1,494,94a.91.91,0,0,1,.12.47A.88.88,0,0,1,494.1,94.59Zm-.47-.51a.43.43,0,0,0-.2-.2.64.64,0,0,0-.28-.06.57.57,0,0,0-.4.15.56.56,0,0,0-.17.44h1.12A.58.58,0,0,0,493.63,94.08Z"/><path d="M495.21,93.6a.86.86,0,0,1,.43-.11v.44h-.12a.68.68,0,0,0-.44.14.54.54,0,0,0-.16.43v1h-.41v-2h.41v.39A.78.78,0,0,1,495.21,93.6Z"/><path d="M598.94,91.5v.33h-.71V94h-.41V91.83h-.71V91.5Z"/><path d="M601.07,93.13h-1.52a.58.58,0,0,0,.17.45.53.53,0,0,0,.39.15.58.58,0,0,0,.35-.1.46.46,0,0,0,.17-.28h.44a.84.84,0,0,1-.17.37.8.8,0,0,1-.32.25,1.14,1.14,0,0,1-.45.1,1,1,0,0,1-.51-.13.84.84,0,0,1-.35-.35,1.19,1.19,0,0,1,0-1.08.87.87,0,0,1,.35-.36,1,1,0,0,1,.51-.12,1.07,1.07,0,0,1,.51.12.87.87,0,0,1,.33.33.94.94,0,0,1,.12.47A.9.9,0,0,1,601.07,93.13Zm-.46-.51a.48.48,0,0,0-.2-.2.67.67,0,0,0-.28-.06.59.59,0,0,0-.41.15.63.63,0,0,0-.17.43h1.12A.53.53,0,0,0,600.61,92.62Z"/><path d="M602.18,92.14a.8.8,0,0,1,.43-.12v.45h-.12a.65.65,0,0,0-.43.13.53.53,0,0,0-.17.44v1h-.41v-2h.41v.39A.79.79,0,0,1,602.18,92.14Z"/><path d="M515.34,137.21a1.17,1.17,0,0,1-.46.45,1.59,1.59,0,0,1-.72.15h-.85v-2.54h.85a1.47,1.47,0,0,1,.72.16,1.09,1.09,0,0,1,.46.44,1.57,1.57,0,0,1,0,1.34Zm-.51,0a1,1,0,0,0,0-1.34,1,1,0,0,0-.7-.23h-.41v1.8h.41A1,1,0,0,0,514.83,137.21Z"/><path d="M517.74,136.9h-1.53a.63.63,0,0,0,.17.46.54.54,0,0,0,.39.14.58.58,0,0,0,.35-.1.43.43,0,0,0,.17-.28h.44a.82.82,0,0,1-.16.37.93.93,0,0,1-.33.26,1.1,1.1,0,0,1-.45.09,1.07,1.07,0,0,1-.51-.12.93.93,0,0,1-.35-.36,1.27,1.27,0,0,1,0-1.08.91.91,0,0,1,.35-.35,1.07,1.07,0,0,1,1,0,.81.81,0,0,1,.33.33,1.07,1.07,0,0,1,.11.64Zm-.47-.51a.46.46,0,0,0-.2-.19.6.6,0,0,0-.68.08.6.6,0,0,0-.18.44h1.13A.67.67,0,0,0,517.27,136.39Z"/><path d="M519.4,135.94a.67.67,0,0,1,.27.35v-.46h.41v2a1.15,1.15,0,0,1-.11.5.81.81,0,0,1-.33.33,1,1,0,0,1-.5.13,1.12,1.12,0,0,1-.68-.2.88.88,0,0,1-.32-.54h.41a.51.51,0,0,0,.19.28.7.7,0,0,0,.37.1.52.52,0,0,0,.4-.16.55.55,0,0,0,.16-.44v-.48a.69.69,0,0,1-.27.36.83.83,0,0,1-.46.13.9.9,0,0,1-.46-.12.86.86,0,0,1-.32-.36,1.38,1.38,0,0,1,0-1.08.84.84,0,0,1,.32-.35.91.91,0,0,1,.46-.13A.76.76,0,0,1,519.4,135.94Zm-.77.4a.8.8,0,0,0,0,1,.57.57,0,0,0,.44.18.56.56,0,0,0,.31-.09.56.56,0,0,0,.21-.22.67.67,0,0,0,.08-.35.63.63,0,0,0-.08-.34.52.52,0,0,0-.21-.23.55.55,0,0,0-.31-.08A.57.57,0,0,0,518.63,136.34Z"/><path d="M521.27,135.91a.9.9,0,0,1,.44-.11v.44h-.13a.65.65,0,0,0-.43.14.5.5,0,0,0-.16.43v1h-.41v-2H521v.39A.76.76,0,0,1,521.27,135.91Z"/><path d="M523.27,135.94a.67.67,0,0,1,.27.35v-.46H524v2h-.41v-.46a.69.69,0,0,1-.27.36.86.86,0,0,1-.46.13.91.91,0,0,1-.47-.12.84.84,0,0,1-.31-.36,1.27,1.27,0,0,1,0-1.08.81.81,0,0,1,.31-.35.92.92,0,0,1,.47-.13A.78.78,0,0,1,523.27,135.94Zm-.77.4a.76.76,0,0,0,0,1,.55.55,0,0,0,.43.18.54.54,0,0,0,.31-.09.58.58,0,0,0,.22-.22.78.78,0,0,0,.08-.35.74.74,0,0,0-.08-.34.54.54,0,0,0-.22-.23.53.53,0,0,0-.31-.08A.54.54,0,0,0,522.5,136.34Z"/><path d="M525.7,135.94a.65.65,0,0,1,.26.35v-1.14h.42v2.66H526v-.46a.68.68,0,0,1-.26.36.86.86,0,0,1-.46.13.91.91,0,0,1-.47-.12.84.84,0,0,1-.31-.36,1.27,1.27,0,0,1,0-1.08.81.81,0,0,1,.31-.35.92.92,0,0,1,.47-.13A.78.78,0,0,1,525.7,135.94Zm-.77.4a.76.76,0,0,0,0,1,.55.55,0,0,0,.43.18.54.54,0,0,0,.31-.09.58.58,0,0,0,.22-.22.78.78,0,0,0,.08-.35.74.74,0,0,0-.08-.34.54.54,0,0,0-.22-.23.53.53,0,0,0-.31-.08A.54.54,0,0,0,524.93,136.34Z"/><path d="M528.13,135.94a.79.79,0,0,1,.27.35v-.46h.41v2h-.41v-.46a.82.82,0,0,1-.27.36.86.86,0,0,1-.46.13.91.91,0,0,1-.47-.12.84.84,0,0,1-.31-.36,1.27,1.27,0,0,1,0-1.08.81.81,0,0,1,.31-.35.92.92,0,0,1,.47-.13A.78.78,0,0,1,528.13,135.94Zm-.77.4a.76.76,0,0,0,0,1,.59.59,0,0,0,.74.09.58.58,0,0,0,.22-.22.78.78,0,0,0,.08-.35.74.74,0,0,0-.08-.34.54.54,0,0,0-.22-.23.63.63,0,0,0-.74.09Z"/><path d="M530.3,137.46v.35H530a.69.69,0,0,1-.48-.15.71.71,0,0,1-.16-.51v-1h-.28v-.35h.28v-.49h.41v.49h.48v.35h-.48v1a.33.33,0,0,0,.07.23.26.26,0,0,0,.22.07Z"/><path d="M530.7,135.08a.29.29,0,0,1,.38,0,.22.22,0,0,1,.07.17.21.21,0,0,1-.07.17.29.29,0,0,1-.38,0,.21.21,0,0,1-.08-.17A.23.23,0,0,1,530.7,135.08Zm.39.75v2h-.41v-2Z"/><path d="M533,135.93a.81.81,0,0,1,.36.35,1.19,1.19,0,0,1,0,1.08.83.83,0,0,1-.36.36,1.07,1.07,0,0,1-.51.12,1.08,1.08,0,0,1-.52-.12,1,1,0,0,1-.36-.36,1.19,1.19,0,0,1,0-1.08.93.93,0,0,1,.36-.35,1.09,1.09,0,0,1,1,0Zm-.8.3a.54.54,0,0,0-.22.23.77.77,0,0,0-.08.36.81.81,0,0,0,.08.37.52.52,0,0,0,.22.22.54.54,0,0,0,.29.07.59.59,0,0,0,.29-.07.5.5,0,0,0,.21-.22.7.7,0,0,0,.08-.37.66.66,0,0,0-.08-.36.52.52,0,0,0-.21-.23.73.73,0,0,0-.29-.07A.65.65,0,0,0,532.21,136.23Z"/><path d="M535.56,136a.9.9,0,0,1,.21.64v1.15h-.41V136.7a.58.58,0,0,0-.13-.41.5.5,0,0,0-.38-.15.53.53,0,0,0-.39.16.64.64,0,0,0-.15.46v1.05h-.41v-2h.41v.44a.63.63,0,0,1,.27-.35.77.77,0,0,1,.43-.12A.71.71,0,0,1,535.56,136Z"/><path d="M530.31,90.87v.33h-1.09V92h.9v.32h-.9v1.1h-.41V90.87Z"/><path d="M532.73,93.41h-.41l-1.24-1.87v1.87h-.41V90.88h.41l1.24,1.88V90.88h.41Z"/><path d="M534.56,93.41l-.63-1h-.29v1h-.41V90.87h.89a.93.93,0,0,1,.66.21.76.76,0,0,1,.23.57.75.75,0,0,1-.17.49.84.84,0,0,1-.48.24l.66,1Zm-.92-1.3h.45c.33,0,.5-.15.5-.44a.45.45,0,0,0-.12-.33.52.52,0,0,0-.38-.12h-.45Z"/><path d="M524,96.75v1h-.41V95.19h.86a.93.93,0,0,1,.66.21.74.74,0,0,1,.22.57.71.71,0,0,1-.23.57.92.92,0,0,1-.65.21Zm.91-.78a.45.45,0,0,0-.12-.33.57.57,0,0,0-.38-.11H524v.88h.41C524.77,96.41,524.94,96.27,524.94,96Z"/><path d="M526.42,95.83a.77.77,0,0,1,.43-.11v.44h-.12a.74.74,0,0,0-.44.13.57.57,0,0,0-.16.44v1h-.41v-2h.41v.39A.78.78,0,0,1,526.42,95.83Z"/><path d="M528.58,95.85a.81.81,0,0,1,.36.35,1.19,1.19,0,0,1,0,1.08.76.76,0,0,1-.36.35,1,1,0,0,1-.52.13,1,1,0,0,1-.51-.13.87.87,0,0,1-.36-.35,1.19,1.19,0,0,1,0-1.08.93.93,0,0,1,.36-.35,1,1,0,0,1,.51-.13A1,1,0,0,1,528.58,95.85Zm-.81.3a.5.5,0,0,0-.21.22.9.9,0,0,0,0,.74.56.56,0,0,0,.21.22.73.73,0,0,0,.29.07.73.73,0,0,0,.3-.07.56.56,0,0,0,.21-.22.9.9,0,0,0,0-.74.5.5,0,0,0-.21-.22.6.6,0,0,0-.3-.07A.59.59,0,0,0,527.77,96.15Z"/><path d="M532.51,95.94a.9.9,0,0,1,.21.64v1.15h-.41V96.62a.55.55,0,0,0-.13-.4.42.42,0,0,0-.35-.14.53.53,0,0,0-.39.15.65.65,0,0,0-.14.45v1h-.41V96.62a.55.55,0,0,0-.13-.4.45.45,0,0,0-.36-.14.5.5,0,0,0-.38.15.65.65,0,0,0-.14.45v1h-.41v-2h.41v.41a.64.64,0,0,1,.25-.33.72.72,0,0,1,.41-.11.75.75,0,0,1,.43.12.68.68,0,0,1,.27.35.74.74,0,0,1,.28-.35.77.77,0,0,1,.43-.12A.73.73,0,0,1,532.51,95.94Z"/><path d="M534.63,95.85a.93.93,0,0,1,.36.35,1.19,1.19,0,0,1,0,1.08.87.87,0,0,1-.36.35,1,1,0,0,1-.52.13,1,1,0,0,1-.52-.13.87.87,0,0,1-.36-.35,1.19,1.19,0,0,1,0-1.08.93.93,0,0,1,.36-.35,1,1,0,0,1,.52-.13A1,1,0,0,1,534.63,95.85Zm-.81.3a.58.58,0,0,0-.22.22.9.9,0,0,0,0,.74.66.66,0,0,0,.22.22.65.65,0,0,0,.29.07.73.73,0,0,0,.29-.07.56.56,0,0,0,.21-.22.9.9,0,0,0,0-.74.5.5,0,0,0-.21-.22.59.59,0,0,0-.29-.07A.54.54,0,0,0,533.82,96.15Z"/><path d="M536.51,97.38v.35h-.25a.66.66,0,0,1-.48-.15.66.66,0,0,1-.17-.51v-1h-.28v-.35h.28v-.49H536v.49h.47v.35H536v1a.33.33,0,0,0,.06.23.3.3,0,0,0,.22.07Z"/><path d="M538.72,96.82H537.2a.62.62,0,0,0,.16.46.61.61,0,0,0,.4.14.55.55,0,0,0,.34-.1.41.41,0,0,0,.18-.28h.44a.84.84,0,0,1-.17.37.87.87,0,0,1-.33.26,1.06,1.06,0,0,1-.45.09.91.91,0,0,1-.5-.13.79.79,0,0,1-.35-.35,1.19,1.19,0,0,1,0-1.08.84.84,0,0,1,.35-.35.91.91,0,0,1,.5-.13,1,1,0,0,1,.51.12.86.86,0,0,1,.34.34.91.91,0,0,1,.12.47A.88.88,0,0,1,538.72,96.82Zm-.47-.51a.43.43,0,0,0-.2-.2.61.61,0,0,0-.28-.06.57.57,0,0,0-.4.15.59.59,0,0,0-.17.43h1.12A.54.54,0,0,0,538.25,96.31Z"/><path d="M539.83,95.83a.79.79,0,0,1,.43-.11v.44h-.12a.71.71,0,0,0-.43.13.54.54,0,0,0-.17.44v1h-.41v-2h.41v.39A.86.86,0,0,1,539.83,95.83Z"/><path d="M533.38,16.61a1.16,1.16,0,0,1,.42.65h-.44a.75.75,0,0,0-.28-.37.82.82,0,0,0-.48-.13.7.7,0,0,0-.41.11.73.73,0,0,0-.28.32,1.2,1.2,0,0,0,0,1,.73.73,0,0,0,.28.32.78.78,0,0,0,.41.11.82.82,0,0,0,.48-.13.75.75,0,0,0,.28-.37h.44a1.13,1.13,0,0,1-.42.65,1.29,1.29,0,0,1-.78.23,1.18,1.18,0,0,1-.63-.16,1.06,1.06,0,0,1-.43-.46,1.44,1.44,0,0,1-.15-.67,1.47,1.47,0,0,1,.15-.67,1.06,1.06,0,0,1,.43-.46,1.18,1.18,0,0,1,.63-.16A1.23,1.23,0,0,1,533.38,16.61Z"/><path d="M535.46,17.07a.67.67,0,0,1,.27.35V17h.41v2h-.41v-.46a.63.63,0,0,1-.27.35A.76.76,0,0,1,535,19a.82.82,0,0,1-.46-.13.84.84,0,0,1-.32-.35,1.38,1.38,0,0,1,0-1.08.84.84,0,0,1,.32-.35.82.82,0,0,1,.46-.13A.76.76,0,0,1,535.46,17.07Zm-.77.4a.65.65,0,0,0-.16.48.68.68,0,0,0,.16.48.6.6,0,0,0,.44.17.53.53,0,0,0,.31-.08.61.61,0,0,0,.22-.23.71.71,0,0,0,.07-.34.78.78,0,0,0-.07-.35.69.69,0,0,0-.22-.23.62.62,0,0,0-.31-.08A.57.57,0,0,0,534.69,17.47Z"/><path d="M537.33,17a.8.8,0,0,1,.44-.11v.44h-.13a.71.71,0,0,0-.43.13.54.54,0,0,0-.16.44v1h-.41V17h.41v.39A.76.76,0,0,1,537.33,17Z"/><path d="M539.67,17.06a.73.73,0,0,1,.32.35,1.27,1.27,0,0,1,0,1.08.73.73,0,0,1-.32.35.8.8,0,0,1-.46.13.78.78,0,0,1-.46-.14.63.63,0,0,1-.27-.35v.46h-.41V16.28h.41v1.14a.67.67,0,0,1,.27-.35.78.78,0,0,1,.46-.14A.8.8,0,0,1,539.67,17.06Zm-.89.31a.54.54,0,0,0-.22.23.78.78,0,0,0-.08.35.71.71,0,0,0,.08.34.49.49,0,0,0,.22.23.52.52,0,0,0,.3.08.59.59,0,0,0,.44-.17.76.76,0,0,0,0-1,.56.56,0,0,0-.44-.18A.61.61,0,0,0,538.78,17.37Z"/><path d="M541.93,17.06a.87.87,0,0,1,.36.35,1.19,1.19,0,0,1,0,1.08.87.87,0,0,1-.36.35,1,1,0,0,1-.52.13,1,1,0,0,1-.52-.13.93.93,0,0,1-.36-.35,1.2,1.2,0,0,1-.13-.54,1.13,1.13,0,0,1,.13-.54.87.87,0,0,1,.36-.35,1,1,0,0,1,.52-.13A1,1,0,0,1,541.93,17.06Zm-.81.3a.58.58,0,0,0-.22.22.81.81,0,0,0-.08.37.84.84,0,0,0,.08.37.66.66,0,0,0,.22.22.64.64,0,0,0,.58,0,.66.66,0,0,0,.22-.22A.84.84,0,0,0,542,18a.81.81,0,0,0-.08-.37.58.58,0,0,0-.22-.22.64.64,0,0,0-.58,0Z"/><path d="M544.48,17.15a.9.9,0,0,1,.21.64v1.15h-.41V17.83a.56.56,0,0,0-.14-.41.49.49,0,0,0-.38-.15.5.5,0,0,0-.39.16.64.64,0,0,0-.15.46v1.05h-.41V17h.41v.43a.76.76,0,0,1,.27-.34.8.8,0,0,1,.43-.12A.73.73,0,0,1,544.48,17.15Z"/><path d="M548,18.34a1,1,0,0,1-.46.44,1.46,1.46,0,0,1-.71.16H546V16.4h.85a1.46,1.46,0,0,1,.71.16A1,1,0,0,1,548,17a1.41,1.41,0,0,1,.16.67A1.44,1.44,0,0,1,548,18.34Zm-.5,0a1,1,0,0,0,0-1.33,1,1,0,0,0-.71-.24h-.4v1.81h.4A1,1,0,0,0,547.53,18.33Z"/><path d="M548.62,16.21a.24.24,0,0,1,.19-.07.26.26,0,0,1,.19.07.24.24,0,0,1,0,.34.32.32,0,0,1-.19.07.27.27,0,0,1-.19-.07.22.22,0,0,1,0-.34ZM549,17v2h-.41V17Z"/><path d="M550.93,17.06a.76.76,0,0,1,.36.35,1.19,1.19,0,0,1,0,1.08.76.76,0,0,1-.36.35,1,1,0,0,1-.51.13,1,1,0,0,1-.52-.13.93.93,0,0,1-.36-.35,1.08,1.08,0,0,1-.13-.54,1,1,0,0,1,.13-.54.87.87,0,0,1,.36-.35,1,1,0,0,1,.52-.13A1,1,0,0,1,550.93,17.06Zm-.81.3a.56.56,0,0,0-.21.22.81.81,0,0,0-.08.37.84.84,0,0,0,.08.37.63.63,0,0,0,.21.22.73.73,0,0,0,.3.07.73.73,0,0,0,.29-.07.56.56,0,0,0,.21-.22A.84.84,0,0,0,551,18a.81.81,0,0,0-.08-.37.5.5,0,0,0-.21-.22.59.59,0,0,0-.29-.07A.6.6,0,0,0,550.12,17.36Z"/><path d="M553,18.94l-.48-.7-.43.7h-.46l.66-1-.66-.95h.46l.48.68L553,17h.45l-.65,1,.68,1Z"/><path d="M553.75,16.21a.27.27,0,0,1,.2-.07.26.26,0,0,1,.19.07.24.24,0,0,1,0,.34.32.32,0,0,1-.19.07.32.32,0,0,1-.2-.07.24.24,0,0,1,0-.34Zm.4.75v2h-.41V17Z"/><path d="M555.9,17.07a.67.67,0,0,1,.27.35V16.28h.41v2.66h-.41v-.46a.63.63,0,0,1-.27.35.76.76,0,0,1-.46.14.82.82,0,0,1-.46-.13.78.78,0,0,1-.32-.35,1.38,1.38,0,0,1,0-1.08.78.78,0,0,1,.32-.35.82.82,0,0,1,.46-.13A.76.76,0,0,1,555.9,17.07Zm-.77.4A.65.65,0,0,0,555,18a.68.68,0,0,0,.16.48.6.6,0,0,0,.44.17.55.55,0,0,0,.31-.08.52.52,0,0,0,.21-.23.61.61,0,0,0,.08-.34.67.67,0,0,0-.08-.35.58.58,0,0,0-.21-.23.65.65,0,0,0-.31-.08A.57.57,0,0,0,555.13,17.47Z"/><path d="M558.91,18h-1.53a.6.6,0,0,0,.17.45.54.54,0,0,0,.39.15.58.58,0,0,0,.35-.1.43.43,0,0,0,.17-.28h.44a.82.82,0,0,1-.16.37,1.06,1.06,0,0,1-.33.26A1.13,1.13,0,0,1,558,19a1,1,0,0,1-.51-.13.84.84,0,0,1-.35-.35,1.28,1.28,0,0,1,0-1.08.84.84,0,0,1,.35-.35,1,1,0,0,1,.51-.13,1.07,1.07,0,0,1,.51.12.81.81,0,0,1,.33.33,1.1,1.1,0,0,1,.11.65Zm-.47-.51a.55.55,0,0,0-.2-.2.67.67,0,0,0-.28-.06.55.55,0,0,0-.4.15.59.59,0,0,0-.18.43h1.13A.63.63,0,0,0,558.44,17.52Z"/></g><g id="Layer_28" data-name="Layer 28"><line class="cls-4" x1="23.18" y1="110.8" x2="122.27" y2="110.8"/><line class="cls-4" x1="146.05" y1="110.8" x2="257.04" y2="110.8"/><line class="cls-4" x1="25.36" y1="110.53" x2="25.36" y2="90.41"/><line class="cls-4" x1="25.51" y1="90.41" x2="43.39" y2="90.41"/><line class="cls-4" x1="43.32" y1="90.34" x2="40.14" y2="87.16"/><line class="cls-4" x1="40.14" y1="93.64" x2="43.32" y2="90.46"/><line class="cls-4" x1="92.41" y1="55.64" x2="94.91" y2="55.64"/><line class="cls-13" x1="98.04" y1="55.64" x2="154.92" y2="55.64"/><line class="cls-4" x1="156.49" y1="55.64" x2="158.99" y2="55.64"/><line class="cls-4" x1="158.99" y1="84.76" x2="158.99" y2="82.26"/><line class="cls-14" x1="158.99" y1="79.58" x2="158.99" y2="59.48"/><line class="cls-4" x1="158.99" y1="58.14" x2="158.99" y2="55.64"/><line class="cls-15" x1="154.97" y1="84.77" x2="162.9" y2="84.77"/><rect class="cls-16" x="245.97" y="53.21" width="16.89" height="5.2" rx="2.6" transform="translate(6.18 134.69) rotate(-30)"/><rect class="cls-6" x="70.82" y="54.66" width="16.89" height="5.2" rx="2.6" transform="translate(-18.01 47.3) rotate(-30)"/><line class="cls-17" x1="249.78" y1="110.27" x2="249.78" y2="91.71"/><line class="cls-17" x1="241.27" y1="91.61" x2="258.33" y2="91.61"/><line class="cls-17" x1="110.52" y1="110.27" x2="110.52" y2="91.71"/><line class="cls-17" x1="102.01" y1="91.61" x2="119.07" y2="91.61"/><polygon class="cls-8" points="236.46 110.92 229.37 116.02 218.19 116.02 218.34 105.58 229.62 105.85 236.46 110.92"/><polygon class="cls-5" points="209.44 110.59 202.35 115.69 191.17 115.69 191.32 105.25 202.6 105.52 209.44 110.59"/><polygon class="cls-2" points="90.53 110.86 83.44 115.95 72.26 115.95 72.41 105.51 83.69 105.78 90.53 110.86"/><path class="cls-18" d="M183.05,110.53H169.24c0-7.42,3.09-13.43,6.9-13.43S183.05,103.11,183.05,110.53Z"/><path class="cls-18" d="M59.25,110.53H45.44c0-7.42,3.09-13.43,6.9-13.43S59.25,103.11,59.25,110.53Z"/><line class="cls-19" x1="151.67" y1="110.27" x2="151.67" y2="90.15"/><line class="cls-19" x1="151.82" y1="90.15" x2="169.7" y2="90.15"/><line class="cls-19" x1="169.63" y1="90.07" x2="166.45" y2="86.9"/><line class="cls-19" x1="166.45" y1="93.38" x2="169.63" y2="90.2"/><line class="cls-4" x1="78.34" y1="101.29" x2="78.34" y2="66.67"/><line class="cls-4" x1="75.05" y1="69.98" x2="78.36" y2="66.67"/><line class="cls-4" x1="81.66" y1="69.98" x2="78.35" y2="66.67"/><line class="cls-20" x1="109.54" y1="39.1" x2="107.71" y2="38.13"/><circle class="cls-21" cx="107.42" cy="37.9" r="0.84"/><polygon class="cls-22" points="108.9 38.8 113.17 36.74 116.45 40.17 114.21 44.34 109.54 43.5 108.9 38.8"/><line class="cls-20" x1="144.28" y1="22.51" x2="145.6" y2="20.99"/><circle class="cls-21" cx="145.87" cy="20.78" r="0.81"/><polygon class="cls-22" points="144.7 21.97 145.7 26.45 141.76 28.78 138.32 25.75 140.14 21.55 144.7 21.97"/><line class="cls-20" x1="236.27" y1="37.66" x2="238.56" y2="36.76"/><circle class="cls-21" cx="238.98" cy="36.68" r="0.99"/><polygon class="cls-22" points="237.03 37.32 235.59 42.74 229.99 43.05 227.97 37.81 232.32 34.27 237.03 37.32"/><line class="cls-20" x1="264.08" y1="23.85" x2="265.84" y2="25.9"/><circle class="cls-21" cx="266.07" cy="26.31" r="1.09"/><polygon class="cls-22" points="264.71 24.52 258.58 24.96 256.26 19.27 260.96 15.3 266.18 18.55 264.71 24.52"/><line class="cls-20" x1="179.35" y1="44.13" x2="180.32" y2="45.89"/><circle class="cls-21" cx="180.43" cy="46.23" r="0.81"/><polygon class="cls-22" points="179.71 44.72 175.16 44.13 174.31 39.63 178.33 37.43 181.67 40.57 179.71 44.72"/><line class="cls-20" x1="25.81" y1="23.26" x2="24.37" y2="21.33"/><circle class="cls-21" cx="24.19" cy="20.95" r="0.97"/><polygon class="cls-22" points="25.29 22.63 30.77 22.6 32.49 27.8 28.07 31.04 23.62 27.84 25.29 22.63"/><line class="cls-20" x1="210.56" y1="22.6" x2="210.08" y2="20.64"/><circle class="cls-21" cx="210.06" cy="20.29" r="0.81"/><polygon class="cls-22" points="210.37 21.94 214.6 23.7 214.24 28.27 209.78 29.34 207.39 25.43 210.37 21.94"/><line class="cls-20" x1="284.26" y1="39.72" x2="282.39" y2="39"/><circle class="cls-21" cx="282.09" cy="38.81" r="0.81"/><polygon class="cls-22" points="283.61 39.51 287.48 37.05 291.02 39.97 289.33 44.23 284.76 43.95 283.61 39.51"/><line class="cls-20" x1="75.81" y1="24.75" x2="73.95" y2="26.89"/><circle class="cls-21" cx="73.56" cy="27.19" r="1.15"/><polygon class="cls-22" points="75.21 25.51 73.81 19.2 79.37 15.91 84.22 20.19 81.65 26.12 75.21 25.51"/><line class="cls-20" x1="26.23" y1="64.09" x2="27.78" y2="62.55"/><circle class="cls-21" cx="28.1" cy="62.33" r="0.88"/><polygon class="cls-22" points="26.73 63.54 27.46 68.47 22.99 70.69 19.5 67.12 21.82 62.7 26.73 63.54"/><line class="cls-20" x1="73.55" y1="48.24" x2="72.41" y2="46.41"/><circle class="cls-21" cx="72.27" cy="46.06" r="0.87"/><polygon class="cls-22" points="73.14 47.63 78.03 47.99 79.19 52.75 75.03 55.34 71.28 52.17 73.14 47.63"/><path d="M51.63,44v.39H50.35v.92h1v.37h-1V47h-.49V44Z"/><path d="M52.88,44.72a1,1,0,0,1,.51-.14v.53h-.15a.81.81,0,0,0-.51.15.66.66,0,0,0-.19.51V47h-.48V44.62h.48v.46A.9.9,0,0,1,52.88,44.72Z"/><path d="M55.89,44.62V47h-.48v-.51a.7.7,0,0,1-.31.4.9.9,0,0,1-.51.15.83.83,0,0,1-.65-.27,1,1,0,0,1-.25-.75V44.62h.48v1.3a.72.72,0,0,0,.16.49.57.57,0,0,0,.44.17.59.59,0,0,0,.46-.18.77.77,0,0,0,.18-.54V44.62Z"/><path d="M58.26,44.83a1,1,0,0,1,.36.65h-.51a.52.52,0,0,0-.2-.34A.63.63,0,0,0,57.5,45a.6.6,0,0,0-.46.2.77.77,0,0,0-.19.57.78.78,0,0,0,.19.58.57.57,0,0,0,.46.2.69.69,0,0,0,.41-.12.56.56,0,0,0,.2-.35h.51a1,1,0,0,1-.36.65,1.16,1.16,0,0,1-.75.24,1.27,1.27,0,0,1-.6-.14,1.1,1.1,0,0,1-.41-.42,1.42,1.42,0,0,1,0-1.27,1,1,0,0,1,.41-.41,1.28,1.28,0,0,1,1.35.09Z"/><path d="M60.26,46.53V47H60a.81.81,0,0,1-.57-.18.79.79,0,0,1-.19-.6V45h-.34v-.41h.34V44h.48v.58h.57V45h-.57v1.15a.41.41,0,0,0,.08.28.35.35,0,0,0,.26.07Z"/><path d="M62.39,44.74a1,1,0,0,1,.42.41,1.42,1.42,0,0,1,0,1.27,1.06,1.06,0,0,1-.42.42,1.37,1.37,0,0,1-.61.14,1.34,1.34,0,0,1-.61-.14,1.06,1.06,0,0,1-.42-.42,1.42,1.42,0,0,1,0-1.27,1,1,0,0,1,.42-.41,1.23,1.23,0,0,1,.61-.15A1.25,1.25,0,0,1,62.39,44.74Zm-1,.35a.6.6,0,0,0-.25.27.79.79,0,0,0-.1.42.84.84,0,0,0,.1.44.55.55,0,0,0,.25.25.64.64,0,0,0,.34.09.67.67,0,0,0,.34-.09.55.55,0,0,0,.25-.25.84.84,0,0,0,.1-.44.79.79,0,0,0-.1-.42.6.6,0,0,0-.25-.27.77.77,0,0,0-.34-.08A.74.74,0,0,0,61.44,45.09Z"/><path d="M64.85,44.8a.84.84,0,0,1,.3.56H64.7a.5.5,0,0,0-.17-.31.54.54,0,0,0-.35-.11.41.41,0,0,0-.28.09.26.26,0,0,0-.1.23.24.24,0,0,0,.07.18.52.52,0,0,0,.18.1l.31.09.42.12a.69.69,0,0,1,.28.2.56.56,0,0,1,.12.38.6.6,0,0,1-.22.47.93.93,0,0,1-.6.18,1.19,1.19,0,0,1-.71-.2.91.91,0,0,1-.32-.57h.47a.42.42,0,0,0,.17.31.61.61,0,0,0,.39.12.4.4,0,0,0,.27-.09.29.29,0,0,0,.1-.23.28.28,0,0,0-.08-.2.5.5,0,0,0-.19-.11,2.24,2.24,0,0,0-.31-.08,3.05,3.05,0,0,1-.41-.12.58.58,0,0,1-.27-.19.52.52,0,0,1-.11-.36.58.58,0,0,1,.22-.48.89.89,0,0,1,.61-.19A1,1,0,0,1,64.85,44.8Z"/><path d="M67.81,45.88H66a.7.7,0,0,0,.19.53.66.66,0,0,0,.47.18.6.6,0,0,0,.4-.13.54.54,0,0,0,.21-.32h.51a1,1,0,0,1-.19.44,1.05,1.05,0,0,1-.39.29,1.1,1.1,0,0,1-.52.11,1.27,1.27,0,0,1-.6-.14,1,1,0,0,1-.41-.42,1.42,1.42,0,0,1,0-1.27,1,1,0,0,1,.41-.41,1.16,1.16,0,0,1,.6-.15,1.25,1.25,0,0,1,.59.14,1.07,1.07,0,0,1,.4.39,1.15,1.15,0,0,1,.14.55A1.25,1.25,0,0,1,67.81,45.88Zm-.55-.6a.59.59,0,0,0-.24-.23A.71.71,0,0,0,66.7,45a.67.67,0,0,0-.48.17.74.74,0,0,0-.2.51h1.32A.74.74,0,0,0,67.26,45.28Z"/><line class="cls-4" x1="210.78" y1="101.2" x2="210.78" y2="57.73"/><line class="cls-4" x1="210.78" y1="57.73" x2="236.61" y2="57.69"/><line class="cls-4" x1="236.54" y1="57.62" x2="233.36" y2="54.44"/><line class="cls-4" x1="233.36" y1="60.92" x2="236.54" y2="57.74"/><path d="M26,117.14a1,1,0,0,1,.38.41,1.64,1.64,0,0,1,0,1.28,1,1,0,0,1-.38.41,1,1,0,0,1-.54.14,1,1,0,0,1-.54-.15.82.82,0,0,1-.31-.42v1.65h-.49V117h.49v.55a.82.82,0,0,1,.31-.42,1,1,0,0,1,.54-.15A1,1,0,0,1,26,117.14Zm-1.05.37a.84.84,0,0,0-.26.27.91.91,0,0,0-.09.41.84.84,0,0,0,.09.4.68.68,0,0,0,.26.27.65.65,0,0,0,.36.1.67.67,0,0,0,.52-.21.76.76,0,0,0,.19-.56.8.8,0,0,0-.19-.57.7.7,0,0,0-.52-.2A.74.74,0,0,0,25,117.51Z"/><path d="M27.48,119h1v.37H27v-3h.48Z"/><path d="M30.36,117.15a.84.84,0,0,1,.32.42V117h.48v2.33h-.48v-.54a.84.84,0,0,1-.32.42,1,1,0,0,1-.54.15,1,1,0,0,1-.54-.14,1.08,1.08,0,0,1-.38-.41,1.64,1.64,0,0,1,0-1.28,1.08,1.08,0,0,1,.38-.41,1,1,0,0,1,.54-.14A1,1,0,0,1,30.36,117.15Zm-.9.47a.81.81,0,0,0-.2.57.77.77,0,0,0,.2.56A.65.65,0,0,0,30,119a.61.61,0,0,0,.36-.1.62.62,0,0,0,.26-.27.84.84,0,0,0,.09-.4.91.91,0,0,0-.09-.41.75.75,0,0,0-.26-.27.69.69,0,0,0-.36-.09A.68.68,0,0,0,29.46,117.62Z"/><path d="M33.53,117.23a1,1,0,0,1,.36.65h-.51a.54.54,0,0,0-.2-.34.69.69,0,0,0-.41-.13.63.63,0,0,0-.47.2.82.82,0,0,0-.18.58.86.86,0,0,0,.18.58.63.63,0,0,0,.47.2.69.69,0,0,0,.41-.13.56.56,0,0,0,.2-.35h.51a1,1,0,0,1-.36.65,1.32,1.32,0,0,1-1.35.1,1.08,1.08,0,0,1-.41-.41,1.44,1.44,0,0,1,0-1.28,1.08,1.08,0,0,1,.41-.41,1.16,1.16,0,0,1,.6-.14A1.22,1.22,0,0,1,33.53,117.23Z"/><path d="M20.27,123.27v1.16h-.48v-3h1a1.06,1.06,0,0,1,.78.25.89.89,0,0,1,.26.67.87.87,0,0,1-.27.67,1.09,1.09,0,0,1-.77.24Zm1.08-.91a.53.53,0,0,0-.14-.39.67.67,0,0,0-.46-.13h-.48v1h.48C21.15,122.88,21.35,122.7,21.35,122.36Z"/><path d="M23.08,122.19a1,1,0,0,1,.51-.13v.52h-.14a.82.82,0,0,0-.51.16.6.6,0,0,0-.19.51v1.18h-.49V122.1h.49v.45A.88.88,0,0,1,23.08,122.19Z"/><path d="M25.62,122.21a1.09,1.09,0,0,1,.43.42,1.42,1.42,0,0,1,0,1.27,1,1,0,0,1-.43.41,1.3,1.3,0,0,1-1.21,0,1,1,0,0,1-.42-.41,1.24,1.24,0,0,1-.16-.64,1.18,1.18,0,0,1,.16-.63,1.06,1.06,0,0,1,.42-.42,1.38,1.38,0,0,1,1.21,0Zm-.95.36a.63.63,0,0,0-.25.26.94.94,0,0,0-.09.43.91.91,0,0,0,.09.43.63.63,0,0,0,.25.26A.69.69,0,0,0,25,124a.68.68,0,0,0,.34-.08.63.63,0,0,0,.25-.26.91.91,0,0,0,.09-.43.94.94,0,0,0-.09-.43.63.63,0,0,0-.25-.26.81.81,0,0,0-.34-.08A.82.82,0,0,0,24.67,122.57Z"/><path d="M30.24,122.32a1.09,1.09,0,0,1,.25.75v1.36H30v-1.31a.68.68,0,0,0-.15-.47.54.54,0,0,0-.42-.17.58.58,0,0,0-.45.18.76.76,0,0,0-.16.53v1.24h-.49v-1.31a.68.68,0,0,0-.15-.47.54.54,0,0,0-.42-.17.58.58,0,0,0-.45.18.76.76,0,0,0-.16.53v1.24h-.49V122.1h.49v.48a.74.74,0,0,1,.29-.38.88.88,0,0,1,.49-.14.92.92,0,0,1,.5.14.78.78,0,0,1,.31.42.84.84,0,0,1,.33-.41,1,1,0,0,1,1.17.11Z"/><path d="M32.72,122.21a1.15,1.15,0,0,1,.43.42,1.42,1.42,0,0,1,0,1.27,1.06,1.06,0,0,1-.43.41,1.3,1.3,0,0,1-1.21,0,1.06,1.06,0,0,1-.43-.41,1.34,1.34,0,0,1-.15-.64,1.28,1.28,0,0,1,.15-.63,1.15,1.15,0,0,1,.43-.42,1.38,1.38,0,0,1,1.21,0Zm-.95.36a.63.63,0,0,0-.25.26.94.94,0,0,0-.1.43.91.91,0,0,0,.1.43.63.63,0,0,0,.25.26.68.68,0,0,0,.34.08.63.63,0,0,0,.6-.34.91.91,0,0,0,.09-.43.94.94,0,0,0-.09-.43.7.7,0,0,0-.25-.26.82.82,0,0,0-.35-.08A.81.81,0,0,0,31.77,122.57Z"/><path d="M34.93,124v.42h-.29a.81.81,0,0,1-.57-.18.83.83,0,0,1-.19-.6v-1.14h-.33v-.41h.33v-.58h.49v.58h.56v.41h-.56v1.15a.38.38,0,0,0,.07.27.37.37,0,0,0,.26.08Z"/><path d="M37.53,123.36H35.74a.74.74,0,0,0,.2.53.63.63,0,0,0,.46.17.69.69,0,0,0,.41-.12.48.48,0,0,0,.2-.32h.52a1.11,1.11,0,0,1-.19.43,1,1,0,0,1-.39.3,1.29,1.29,0,0,1-.53.11,1.21,1.21,0,0,1-.6-.15.93.93,0,0,1-.4-.41,1.42,1.42,0,0,1,0-1.27,1,1,0,0,1,.4-.42,1.33,1.33,0,0,1,.6-.14,1.27,1.27,0,0,1,.6.14.92.92,0,0,1,.39.39,1,1,0,0,1,.14.55A.68.68,0,0,1,37.53,123.36Zm-.54-.6a.53.53,0,0,0-.24-.23.73.73,0,0,0-.33-.08.66.66,0,0,0-.47.18.67.67,0,0,0-.21.51h1.32A.74.74,0,0,0,37,122.76Z"/><path d="M38.84,122.19a.91.91,0,0,1,.5-.13v.52H39.2a.82.82,0,0,0-.51.16.6.6,0,0,0-.19.51v1.18H38V122.1h.48v.45A.9.9,0,0,1,38.84,122.19Z"/><path d="M77.68,120.46v.39H76.4v.93h1v.37h-1v1.3h-.49v-3Z"/><path d="M78.93,121.22a.93.93,0,0,1,.51-.14v.53h-.15a.81.81,0,0,0-.51.15.6.6,0,0,0-.19.51v1.18h-.48v-2.33h.48v.46A.79.79,0,0,1,78.93,121.22Z"/><path d="M81.94,121.12v2.33h-.48v-.51a.74.74,0,0,1-.31.4.89.89,0,0,1-.51.14.86.86,0,0,1-.66-.26,1.06,1.06,0,0,1-.24-.75v-1.35h.48v1.3a.72.72,0,0,0,.16.49.57.57,0,0,0,.44.17.6.6,0,0,0,.46-.18.77.77,0,0,0,.18-.54v-1.24Z"/><path d="M84.09,123.45l-.74-1.19H83v1.19h-.48v-3h1a1.12,1.12,0,0,1,.78.25.86.86,0,0,1,.26.66.85.85,0,0,1-.19.58,1,1,0,0,1-.57.29l.78,1.21ZM83,121.92h.54c.38,0,.58-.18.58-.52A.52.52,0,0,0,84,121a.63.63,0,0,0-.44-.14H83Z"/><path d="M78.37,125.79a1.34,1.34,0,0,1,.49.75h-.51a.87.87,0,0,0-.33-.42,1,1,0,0,0-.57-.16.81.81,0,0,0-.47.13.91.91,0,0,0-.33.37,1.14,1.14,0,0,0-.13.57,1.17,1.17,0,0,0,.13.57A.91.91,0,0,0,77,128a.81.81,0,0,0,.47.13,1,1,0,0,0,.57-.16.92.92,0,0,0,.33-.42h.51a1.31,1.31,0,0,1-.49.75,1.41,1.41,0,0,1-.91.28,1.55,1.55,0,0,1-.75-.19,1.3,1.3,0,0,1-.5-.54A1.67,1.67,0,0,1,76,127a1.7,1.7,0,0,1,.18-.79,1.3,1.3,0,0,1,.5-.54,1.44,1.44,0,0,1,.75-.19A1.41,1.41,0,0,1,78.37,125.79Z"/><path d="M81.72,127.82a1.33,1.33,0,0,1-.53.52,1.87,1.87,0,0,1-.85.18h-1v-3h1a1.87,1.87,0,0,1,.85.18,1.27,1.27,0,0,1,.53.52,1.54,1.54,0,0,1,.19.79A1.57,1.57,0,0,1,81.72,127.82Zm-.59,0a1.21,1.21,0,0,0,0-1.57,1.17,1.17,0,0,0-.83-.27h-.47v2.12h.47A1.13,1.13,0,0,0,81.13,127.81Z"/><path d="M84.25,128.14a.85.85,0,0,1-.32.3,1.22,1.22,0,0,1-.53.11,1.38,1.38,0,0,1-.55-.1,1,1,0,0,1-.38-.31.88.88,0,0,1-.17-.45h.52A.51.51,0,0,0,83,128a.53.53,0,0,0,.39.14.47.47,0,0,0,.34-.12.41.41,0,0,0,.12-.3.4.4,0,0,0-.09-.27.6.6,0,0,0-.22-.16l-.36-.14a4,4,0,0,1-.45-.17.83.83,0,0,1-.3-.26.77.77,0,0,1-.12-.45.73.73,0,0,1,.11-.42.86.86,0,0,1,.34-.28,1.19,1.19,0,0,1,.51-.1,1.07,1.07,0,0,1,.72.22.82.82,0,0,1,.31.57h-.52a.47.47,0,0,0-.16-.28.48.48,0,0,0-.35-.13.5.5,0,0,0-.33.11.38.38,0,0,0-.12.3.37.37,0,0,0,.09.25.58.58,0,0,0,.21.16l.35.13a3.35,3.35,0,0,1,.47.18.83.83,0,0,1,.3.26.81.81,0,0,1,.12.46A.83.83,0,0,1,84.25,128.14Z"/><path d="M149,116.08a1,1,0,0,1,.38.42,1.39,1.39,0,0,1,.13.63,1.41,1.41,0,0,1-.13.64,1,1,0,0,1-.38.41,1,1,0,0,1-.54.15,1,1,0,0,1-.54-.16.81.81,0,0,1-.32-.41v1.64h-.48V116h.48v.54a.88.88,0,0,1,.32-.42,1,1,0,0,1,.54-.15A1.09,1.09,0,0,1,149,116.08Zm-1.05.38a.62.62,0,0,0-.26.27.84.84,0,0,0-.09.4.88.88,0,0,0,.09.41.65.65,0,0,0,.26.26.63.63,0,0,0,.36.1.69.69,0,0,0,.52-.21.76.76,0,0,0,.19-.56.78.78,0,0,0-.19-.56.69.69,0,0,0-.52-.21A.63.63,0,0,0,147.94,116.46Z"/><path d="M151.73,115.31v.39h-1.28v.93h1.05V117h-1.05v1.3H150v-3Z"/><path d="M153,116.06a1,1,0,0,1,.51-.13v.52h-.15a.76.76,0,0,0-.51.16.63.63,0,0,0-.19.51v1.18h-.48V116h.48v.45A.9.9,0,0,1,153,116.06Z"/><path d="M156,116v2.33h-.48v-.51a.77.77,0,0,1-.31.4,1,1,0,0,1-.51.14.86.86,0,0,1-.65-.26,1,1,0,0,1-.25-.75V116h.48v1.3a.74.74,0,0,0,.16.49.6.6,0,0,0,.44.17.56.56,0,0,0,.46-.19.73.73,0,0,0,.18-.54V116Z"/><path d="M158.57,117a.71.71,0,0,1,.16.47.74.74,0,0,1-.25.59,1.07,1.07,0,0,1-.72.22h-1.19v-3h1.17a1.07,1.07,0,0,1,.69.2.69.69,0,0,1,.24.55.67.67,0,0,1-.15.46.72.72,0,0,1-.39.24A.69.69,0,0,1,158.57,117Zm-1.51-.42h.59a.57.57,0,0,0,.39-.12.48.48,0,0,0,0-.66.64.64,0,0,0-.4-.11h-.58Zm1,1.17a.41.41,0,0,0,.15-.34.43.43,0,0,0-.15-.35.63.63,0,0,0-.43-.13h-.6v1h.6A.61.61,0,0,0,158.09,117.77Z"/><path d="M143.68,122.21v1.16h-.49v-3h1a1.1,1.1,0,0,1,.77.25.85.85,0,0,1,.26.67.89.89,0,0,1-.26.67,1.13,1.13,0,0,1-.77.24Zm1.07-.91a.46.46,0,0,0-.14-.38.62.62,0,0,0-.45-.14h-.48v1h.48C144.55,121.82,144.75,121.65,144.75,121.3Z"/><path d="M146.49,121.14a.92.92,0,0,1,.5-.14v.53h-.14a.81.81,0,0,0-.51.15.6.6,0,0,0-.19.51v1.18h-.48V121h.48v.46A.79.79,0,0,1,146.49,121.14Z"/><path d="M149,121.15a1.06,1.06,0,0,1,.42.42,1.42,1.42,0,0,1,0,1.27,1.06,1.06,0,0,1-.42.42,1.37,1.37,0,0,1-.61.14,1.34,1.34,0,0,1-.61-.14,1.06,1.06,0,0,1-.42-.42,1.34,1.34,0,0,1,0-1.27,1.06,1.06,0,0,1,.42-.42,1.34,1.34,0,0,1,.61-.14A1.37,1.37,0,0,1,149,121.15Zm-.95.36a.72.72,0,0,0-.26.26.94.94,0,0,0-.09.43.89.89,0,0,0,.09.43.59.59,0,0,0,.26.26.64.64,0,0,0,.34.09.67.67,0,0,0,.34-.09.53.53,0,0,0,.25-.26.78.78,0,0,0,.1-.43.83.83,0,0,0-.1-.43.63.63,0,0,0-.25-.26.77.77,0,0,0-.34-.08A.74.74,0,0,0,148.08,121.51Z"/><path d="M153.64,121.26a1,1,0,0,1,.25.75v1.36h-.48v-1.31a.68.68,0,0,0-.15-.47.57.57,0,0,0-.42-.17.62.62,0,0,0-.45.18.77.77,0,0,0-.17.53v1.24h-.48v-1.31a.68.68,0,0,0-.15-.47.57.57,0,0,0-.42-.17.62.62,0,0,0-.45.18.72.72,0,0,0-.17.53v1.24h-.48V121h.48v.49a.74.74,0,0,1,.3-.39.85.85,0,0,1,.48-.14.88.88,0,0,1,.51.15.82.82,0,0,1,.31.41.87.87,0,0,1,.32-.41A.9.9,0,0,1,153,121,.87.87,0,0,1,153.64,121.26Z"/><path d="M156.13,121.15a1.06,1.06,0,0,1,.42.42,1.42,1.42,0,0,1,0,1.27,1.06,1.06,0,0,1-.42.42,1.37,1.37,0,0,1-.61.14,1.34,1.34,0,0,1-.61-.14,1.06,1.06,0,0,1-.42-.42,1.19,1.19,0,0,1-.16-.64,1.18,1.18,0,0,1,.16-.63,1.06,1.06,0,0,1,.42-.42,1.34,1.34,0,0,1,.61-.14A1.37,1.37,0,0,1,156.13,121.15Zm-1,.36a.78.78,0,0,0-.25.26.94.94,0,0,0-.09.43.89.89,0,0,0,.09.43.63.63,0,0,0,.25.26.7.7,0,0,0,.35.09.67.67,0,0,0,.34-.09.57.57,0,0,0,.25-.26.88.88,0,0,0,.1-.43.94.94,0,0,0-.1-.43.69.69,0,0,0-.25-.26.77.77,0,0,0-.34-.08A.82.82,0,0,0,155.17,121.51Z"/><path d="M158.34,123v.42H158a.77.77,0,0,1-.56-.18.79.79,0,0,1-.2-.6v-1.14H157V121h.33v-.58h.49V121h.56v.41h-.56v1.15a.47.47,0,0,0,.07.28.37.37,0,0,0,.26.07Z"/><path d="M160.94,122.3h-1.79a.7.7,0,0,0,.19.53.65.65,0,0,0,.46.18.61.61,0,0,0,.41-.13.54.54,0,0,0,.21-.32h.51a.93.93,0,0,1-.19.43,1,1,0,0,1-.39.3,1.24,1.24,0,0,1-.52.11,1.27,1.27,0,0,1-.6-.14,1,1,0,0,1-.41-.42,1.42,1.42,0,0,1,0-1.27,1,1,0,0,1,.41-.42,1.33,1.33,0,0,1,1.19,0,1.07,1.07,0,0,1,.4.39,1.14,1.14,0,0,1,.13.55A1.34,1.34,0,0,1,160.94,122.3Zm-.55-.6a.53.53,0,0,0-.24-.23.71.71,0,0,0-.32-.07.67.67,0,0,0-.48.17.72.72,0,0,0-.2.51h1.32A.74.74,0,0,0,160.39,121.7Z"/><path d="M162.24,121.14a1,1,0,0,1,.51-.14v.53h-.15a.81.81,0,0,0-.51.15.63.63,0,0,0-.19.51v1.18h-.48V121h.48v.46A.79.79,0,0,1,162.24,121.14Z"/><path d="M196.38,121.75h-1.26l-.23.64h-.51l1.09-2.94H196l1.09,2.94h-.51Zm-.14-.38-.49-1.39-.5,1.39Z"/><path d="M199.44,120.29a1.06,1.06,0,0,1,.24.75v1.35h-.48v-1.3a.69.69,0,0,0-.16-.49.67.67,0,0,0-.9,0,.77.77,0,0,0-.18.54v1.24h-.48v-2.33H198v.51a.8.8,0,0,1,.32-.4,1,1,0,0,1,1.16.12Z"/><path d="M201.41,122v.42h-.29a.81.81,0,0,1-.57-.18.83.83,0,0,1-.19-.6v-1.14H200v-.41h.33v-.58h.49v.58h.56v.41h-.56v1.15a.39.39,0,0,0,.07.28.37.37,0,0,0,.26.07Z"/><path d="M201.88,119.18a.34.34,0,0,1,.23-.08.31.31,0,0,1,.22.08.27.27,0,0,1,.09.21.23.23,0,0,1-.09.19.27.27,0,0,1-.22.08.3.3,0,0,1-.23-.08.26.26,0,0,1-.08-.19A.3.3,0,0,1,201.88,119.18Zm.47.88v2.33h-.48v-2.33Z"/><path d="M189.76,124.48v3h-.48v-3Z"/><path d="M192.29,125.36a1,1,0,0,1,.25.75v1.36h-.48v-1.31a.74.74,0,0,0-.16-.49.65.65,0,0,0-.9,0,.73.73,0,0,0-.18.54v1.24h-.48v-2.33h.48v.51a.82.82,0,0,1,.32-.41.92.92,0,0,1,.5-.14A.86.86,0,0,1,192.29,125.36Z"/><path d="M194.06,127l.66-1.83h.51l-.88,2.33h-.59l-.89-2.33h.52Z"/><path d="M197.74,126.4h-1.8a.76.76,0,0,0,.2.53.73.73,0,0,0,.87,0,.53.53,0,0,0,.21-.33h.51a1,1,0,0,1-.58.74,1.25,1.25,0,0,1-.53.11,1.15,1.15,0,0,1-.59-.15,1,1,0,0,1-.41-.41,1.32,1.32,0,0,1-.15-.64,1.25,1.25,0,0,1,.15-.63,1,1,0,0,1,.41-.42,1.15,1.15,0,0,1,.59-.14,1.16,1.16,0,0,1,.6.14,1,1,0,0,1,.4.39,1.12,1.12,0,0,1,.13.55A1.34,1.34,0,0,1,197.74,126.4Zm-.55-.61a.51.51,0,0,0-.24-.22.73.73,0,0,0-.33-.08.67.67,0,0,0-.47.18.71.71,0,0,0-.21.51h1.33A.78.78,0,0,0,197.19,125.79Z"/><path d="M199,125.23a.92.92,0,0,1,.51-.13v.52h-.15a.76.76,0,0,0-.51.16.6.6,0,0,0-.19.51v1.18h-.48v-2.33h.48v.45A.9.9,0,0,1,199,125.23Z"/><path d="M201.08,127.05v.42h-.3a.77.77,0,0,1-.56-.18.79.79,0,0,1-.2-.6v-1.14h-.33v-.41H200v-.58h.49v.58h.56v.41h-.56v1.15a.38.38,0,0,0,.07.27.37.37,0,0,0,.26.08Z"/><path d="M203,125.26a.88.88,0,0,1,.32.42v-.54h.48v2.33h-.48v-.55a.84.84,0,0,1-.32.42,1,1,0,0,1-.54.16,1,1,0,0,1-.54-.15.93.93,0,0,1-.37-.41,1.44,1.44,0,0,1-.14-.64,1.36,1.36,0,0,1,.14-.63,1,1,0,0,1,.37-.42,1,1,0,0,1,.54-.14A1,1,0,0,1,203,125.26Zm-.9.47a.81.81,0,0,0-.2.57.77.77,0,0,0,.2.56.66.66,0,0,0,.51.21.61.61,0,0,0,.36-.1.65.65,0,0,0,.26-.26.91.91,0,0,0,.09-.41.84.84,0,0,0-.09-.4.7.7,0,0,0-.26-.28.76.76,0,0,0-.87.11Z"/><path d="M205.8,125.32a.87.87,0,0,1,.31.56h-.46a.49.49,0,0,0-.16-.31.52.52,0,0,0-.36-.12.41.41,0,0,0-.28.09.33.33,0,0,0-.1.23.22.22,0,0,0,.08.18.4.4,0,0,0,.18.11l.3.08a3.49,3.49,0,0,1,.43.12.71.71,0,0,1,.28.21.58.58,0,0,1,.11.37.57.57,0,0,1-.22.47.94.94,0,0,1-.6.19,1.1,1.1,0,0,1-.7-.21.83.83,0,0,1-.33-.56h.47a.44.44,0,0,0,.17.3.61.61,0,0,0,.39.12.37.37,0,0,0,.27-.09.29.29,0,0,0,.1-.23.25.25,0,0,0-.07-.19.45.45,0,0,0-.19-.11l-.32-.09-.41-.12a.61.61,0,0,1-.27-.19.57.57,0,0,1-.11-.36.58.58,0,0,1,.22-.48,1,1,0,0,1,.62-.18A1,1,0,0,1,205.8,125.32Z"/><path d="M208.76,126.4H207a.72.72,0,0,0,.2.53.67.67,0,0,0,.46.17A.69.69,0,0,0,208,127a.48.48,0,0,0,.2-.33h.52a1,1,0,0,1-.2.44.94.94,0,0,1-.38.3,1.32,1.32,0,0,1-.53.11,1.19,1.19,0,0,1-.6-.15,1,1,0,0,1-.41-.41,1.44,1.44,0,0,1-.14-.64,1.36,1.36,0,0,1,.14-.63,1,1,0,0,1,.41-.42,1.18,1.18,0,0,1,.6-.14,1.16,1.16,0,0,1,.6.14.92.92,0,0,1,.39.39,1.12,1.12,0,0,1,.14.55A1.25,1.25,0,0,1,208.76,126.4Zm-.55-.61a.45.45,0,0,0-.23-.22.73.73,0,0,0-.33-.08.64.64,0,0,0-.47.18.67.67,0,0,0-.21.51h1.32A.68.68,0,0,0,208.21,125.79Z"/><path d="M197.15,129.8a1.37,1.37,0,0,1,.49.76h-.51a.9.9,0,0,0-.34-.43,1,1,0,0,0-.56-.16,1,1,0,0,0-.48.13.94.94,0,0,0-.33.38,1.26,1.26,0,0,0-.12.57,1.25,1.25,0,0,0,.12.56.94.94,0,0,0,.33.38,1,1,0,0,0,.48.13,1,1,0,0,0,.56-.16.9.9,0,0,0,.34-.43h.51a1.37,1.37,0,0,1-.49.76,1.49,1.49,0,0,1-.91.28,1.45,1.45,0,0,1-.75-.2,1.17,1.17,0,0,1-.5-.53,1.7,1.7,0,0,1-.18-.79,1.67,1.67,0,0,1,.18-.79,1.24,1.24,0,0,1,.5-.54,1.44,1.44,0,0,1,.75-.19A1.49,1.49,0,0,1,197.15,129.8Z"/><path d="M200.5,131.83a1.18,1.18,0,0,1-.54.52,1.68,1.68,0,0,1-.84.19h-1v-3h1a1.8,1.8,0,0,1,.84.19,1.18,1.18,0,0,1,.54.52,1.61,1.61,0,0,1,.19.78A1.65,1.65,0,0,1,200.5,131.83Zm-.59,0a1.24,1.24,0,0,0,0-1.57,1.17,1.17,0,0,0-.83-.28h-.48v2.12h.48A1.17,1.17,0,0,0,199.91,131.83Z"/><path d="M203,132.15a.8.8,0,0,1-.32.31,1.22,1.22,0,0,1-.53.11,1.35,1.35,0,0,1-.55-.11.9.9,0,0,1-.55-.75h.52a.49.49,0,0,0,.17.33.49.49,0,0,0,.39.14.47.47,0,0,0,.34-.11.41.41,0,0,0,.12-.31.39.39,0,0,0-.09-.26.76.76,0,0,0-.22-.17l-.36-.13a3.16,3.16,0,0,1-.46-.18.79.79,0,0,1-.29-.26.68.68,0,0,1-.13-.44.74.74,0,0,1,.12-.42.73.73,0,0,1,.34-.28,1.19,1.19,0,0,1,.51-.1,1.09,1.09,0,0,1,.72.22.84.84,0,0,1,.31.57h-.52a.49.49,0,0,0-.51-.41.49.49,0,0,0-.33.11.34.34,0,0,0-.12.29.37.37,0,0,0,.08.25.6.6,0,0,0,.22.16,3,3,0,0,0,.35.13,3.16,3.16,0,0,1,.46.18.88.88,0,0,1,.31.27.78.78,0,0,1,.12.46A.79.79,0,0,1,203,132.15Z"/><path d="M255.27,65.86H254l-.23.65h-.52l1.1-2.94h.56L256,66.51h-.51Zm-.14-.37-.49-1.4-.5,1.4Z"/><path d="M258.32,64.4a1,1,0,0,1,.25.75v1.36h-.48V65.2a.74.74,0,0,0-.16-.49.65.65,0,0,0-.9,0,.73.73,0,0,0-.18.54v1.24h-.48V64.18h.48v.51a.82.82,0,0,1,.32-.41.92.92,0,0,1,.5-.14A.86.86,0,0,1,258.32,64.4Z"/><path d="M260.3,66.09v.42H260a.81.81,0,0,1-.57-.18.79.79,0,0,1-.19-.6V64.59h-.33v-.41h.33V63.6h.49v.58h.56v.41h-.56v1.15a.38.38,0,0,0,.07.27.37.37,0,0,0,.26.08Z"/><path d="M260.77,63.3a.3.3,0,0,1,.23-.08.27.27,0,0,1,.22.08.27.27,0,0,1,0,.4.31.31,0,0,1-.22.07.33.33,0,0,1-.23-.07.29.29,0,0,1,0-.4Zm.47.88v2.33h-.48V64.18Z"/><path d="M248.65,68.59v3h-.49v-3Z"/><path d="M251.18,69.47a1,1,0,0,1,.25.75v1.36H251V70.27a.69.69,0,0,0-.16-.48.57.57,0,0,0-.44-.17.59.59,0,0,0-.46.18.73.73,0,0,0-.18.54v1.24h-.48V69.25h.48v.51a.78.78,0,0,1,.31-.4.9.9,0,0,1,.51-.15A.86.86,0,0,1,251.18,69.47Z"/><path d="M253,71.08l.66-1.83h.51l-.89,2.33h-.58l-.89-2.33h.52Z"/><path d="M256.62,70.51h-1.79a.74.74,0,0,0,.2.53.65.65,0,0,0,.46.18.69.69,0,0,0,.41-.13.48.48,0,0,0,.2-.32h.52a1,1,0,0,1-.19.43,1,1,0,0,1-.39.3,1.29,1.29,0,0,1-.53.11,1.15,1.15,0,0,1-.59-.15,1,1,0,0,1-.41-.41,1.42,1.42,0,0,1,0-1.27,1,1,0,0,1,.41-.42,1.33,1.33,0,0,1,1.19,0,1.06,1.06,0,0,1,.53.94A.68.68,0,0,1,256.62,70.51Zm-.54-.6a.53.53,0,0,0-.24-.23.73.73,0,0,0-.33-.08.66.66,0,0,0-.47.18.67.67,0,0,0-.21.51h1.33A.74.74,0,0,0,256.08,69.91Z"/><path d="M257.93,69.34a1,1,0,0,1,.5-.13v.53h-.14a.81.81,0,0,0-.51.15.6.6,0,0,0-.19.51v1.18h-.48V69.25h.48v.46A.87.87,0,0,1,257.93,69.34Z"/><path d="M260,71.16v.42h-.29a.81.81,0,0,1-.57-.18.83.83,0,0,1-.19-.6V69.66h-.33v-.41h.33v-.58h.49v.58H260v.41h-.56v1.15a.38.38,0,0,0,.07.27.37.37,0,0,0,.26.08Z"/><path d="M261.89,69.38a.81.81,0,0,1,.32.41v-.54h.48v2.33h-.48V71a.81.81,0,0,1-.32.41.89.89,0,0,1-.54.16,1,1,0,0,1-.54-.15,1,1,0,0,1-.38-.41,1.41,1.41,0,0,1-.13-.64,1.39,1.39,0,0,1,.13-.63,1,1,0,0,1,.38-.42,1.09,1.09,0,0,1,.54-.14A.89.89,0,0,1,261.89,69.38Zm-.9.47a.77.77,0,0,0-.2.56.81.81,0,0,0,.2.57.68.68,0,0,0,.51.2.71.71,0,0,0,.36-.09.84.84,0,0,0,.26-.27.88.88,0,0,0,.09-.41.84.84,0,0,0-.09-.4.68.68,0,0,0-.26-.27.63.63,0,0,0-.36-.1A.65.65,0,0,0,261,69.85Z"/><path d="M264.69,69.43A.9.9,0,0,1,265,70h-.46a.49.49,0,0,0-.16-.31.57.57,0,0,0-.36-.11.47.47,0,0,0-.28.08.33.33,0,0,0-.1.24.29.29,0,0,0,.07.18.52.52,0,0,0,.18.1l.31.09a2.31,2.31,0,0,1,.43.12.66.66,0,0,1,.27.2A.55.55,0,0,1,265,71a.58.58,0,0,1-.22.48.93.93,0,0,1-.6.18,1.16,1.16,0,0,1-.7-.2.88.88,0,0,1-.33-.57h.47a.46.46,0,0,0,.17.31.61.61,0,0,0,.39.12.37.37,0,0,0,.27-.09.29.29,0,0,0,.1-.23.26.26,0,0,0-.07-.2.59.59,0,0,0-.19-.11,1.48,1.48,0,0,0-.32-.08l-.41-.12a.83.83,0,0,1-.27-.19.58.58,0,0,1-.11-.37.61.61,0,0,1,.22-.48,1.13,1.13,0,0,1,1.27,0Z"/><path d="M267.65,70.51h-1.79a.7.7,0,0,0,.2.53.62.62,0,0,0,.46.18.71.71,0,0,0,.41-.13.48.48,0,0,0,.2-.32h.52a1,1,0,0,1-.58.73,1.32,1.32,0,0,1-.53.11,1.16,1.16,0,0,1-.6-.15,1,1,0,0,1-.41-.41,1.42,1.42,0,0,1,0-1.27,1.1,1.1,0,0,1,.41-.42,1.36,1.36,0,0,1,1.2,0,1,1,0,0,1,.39.39,1.15,1.15,0,0,1,.14.55A1.25,1.25,0,0,1,267.65,70.51Zm-.55-.6a.47.47,0,0,0-.23-.23.73.73,0,0,0-.33-.08.64.64,0,0,0-.47.18.67.67,0,0,0-.21.51h1.32A.65.65,0,0,0,267.1,69.91Z"/><path d="M51.31,118.3l-.75-1.19h-.34v1.19h-.48v-3h1a1.14,1.14,0,0,1,.78.25.86.86,0,0,1,.26.66.85.85,0,0,1-.19.58,1,1,0,0,1-.57.29l.78,1.21Zm-1.09-1.54h.54c.38,0,.58-.17.58-.51a.52.52,0,0,0-.14-.38.63.63,0,0,0-.44-.14h-.54Z"/><path d="M54.26,117a.71.71,0,0,1,.17.47.72.72,0,0,1-.25.59,1.05,1.05,0,0,1-.72.22H52.27v-3h1.17a1,1,0,0,1,.68.21.66.66,0,0,1,.24.55.69.69,0,0,1-.15.46.73.73,0,0,1-.39.23A.74.74,0,0,1,54.26,117Zm-1.51-.42h.6a.52.52,0,0,0,.38-.12.42.42,0,0,0,.14-.33.4.4,0,0,0-.14-.32.56.56,0,0,0-.4-.12h-.58Zm1,1.18a.44.44,0,0,0,.15-.35.43.43,0,0,0-.15-.35.6.6,0,0,0-.42-.13h-.61v1h.61A.66.66,0,0,0,53.78,117.78Z"/><path d="M56.74,117.91a.72.72,0,0,1-.32.3,1.09,1.09,0,0,1-.53.12,1.38,1.38,0,0,1-.55-.11.9.9,0,0,1-.55-.75h.52a.49.49,0,0,0,.17.33.49.49,0,0,0,.39.14.47.47,0,0,0,.34-.11.41.41,0,0,0,.12-.31.39.39,0,0,0-.09-.26.62.62,0,0,0-.22-.17l-.36-.13a2.61,2.61,0,0,1-.45-.18.76.76,0,0,1-.43-.7.74.74,0,0,1,.12-.42.73.73,0,0,1,.34-.28,1.19,1.19,0,0,1,.51-.1,1.09,1.09,0,0,1,.72.22.81.81,0,0,1,.31.57h-.52a.5.5,0,0,0-.16-.29.48.48,0,0,0-.35-.12.49.49,0,0,0-.33.11.34.34,0,0,0-.12.29.37.37,0,0,0,.08.25.6.6,0,0,0,.22.16,3,3,0,0,0,.35.13,3.16,3.16,0,0,1,.46.18.8.8,0,0,1,.31.27.77.77,0,0,1,.12.45A.8.8,0,0,1,56.74,117.91Z"/><path d="M110.42,115.45v.39h-.83v2.59h-.49v-2.59h-.83v-.39Z"/><path d="M112.93,117.36h-1.79a.74.74,0,0,0,.19.54.69.69,0,0,0,.46.17.66.66,0,0,0,.41-.12.56.56,0,0,0,.21-.33h.51a1,1,0,0,1-.19.44,1.05,1.05,0,0,1-.39.29,1.1,1.1,0,0,1-.52.11,1.27,1.27,0,0,1-.6-.14,1,1,0,0,1-.41-.42,1.42,1.42,0,0,1,0-1.27,1,1,0,0,1,.41-.41,1.16,1.16,0,0,1,.6-.15,1.25,1.25,0,0,1,.59.14,1.07,1.07,0,0,1,.4.39,1.16,1.16,0,0,1,.13.56A1.27,1.27,0,0,1,112.93,117.36Zm-.55-.6a.59.59,0,0,0-.24-.23.71.71,0,0,0-.32-.07.72.72,0,0,0-.48.17.74.74,0,0,0-.2.51h1.32A.74.74,0,0,0,112.38,116.76Z"/><path d="M114.23,116.2a1,1,0,0,1,.51-.13v.52h-.15a.81.81,0,0,0-.51.15.66.66,0,0,0-.19.51v1.18h-.48V116.1h.48v.46A.9.9,0,0,1,114.23,116.2Z"/><path d="M174.7,118.72l-.75-1.19h-.34v1.19h-.48v-3h1.05a1.09,1.09,0,0,1,.78.25.87.87,0,0,1,.26.66.84.84,0,0,1-.19.57.92.92,0,0,1-.57.29l.78,1.21Zm-1.09-1.53h.54c.38,0,.58-.17.58-.52a.52.52,0,0,0-.14-.38.64.64,0,0,0-.44-.14h-.54Z"/><path d="M177.65,117.44a.74.74,0,0,1,.17.48.72.72,0,0,1-.25.58,1.05,1.05,0,0,1-.72.22h-1.19v-3h1.17a1,1,0,0,1,.68.2.68.68,0,0,1,.24.55.69.69,0,0,1-.15.46.67.67,0,0,1-.39.23A.79.79,0,0,1,177.65,117.44Zm-1.51-.42h.6a.54.54,0,0,0,.38-.12.39.39,0,0,0,.14-.32.42.42,0,0,0-.14-.33.58.58,0,0,0-.4-.12h-.58Zm1,1.18a.48.48,0,0,0,0-.7.66.66,0,0,0-.42-.13h-.61v1h.61A.66.66,0,0,0,177.17,118.2Z"/><path d="M180.13,118.34a.85.85,0,0,1-.32.3,1.22,1.22,0,0,1-.53.11,1.2,1.2,0,0,1-.55-.11.9.9,0,0,1-.55-.75h.52a.53.53,0,0,0,.56.48.47.47,0,0,0,.34-.12.41.41,0,0,0,.12-.31.39.39,0,0,0-.09-.26.6.6,0,0,0-.22-.16l-.36-.14c-.19-.06-.34-.12-.46-.17a.89.89,0,0,1-.29-.26.71.71,0,0,1-.13-.45.74.74,0,0,1,.12-.42.79.79,0,0,1,.34-.28,1.19,1.19,0,0,1,.51-.1,1.09,1.09,0,0,1,.72.22.86.86,0,0,1,.31.57h-.52a.47.47,0,0,0-.16-.28.46.46,0,0,0-.35-.13.49.49,0,0,0-.33.11.38.38,0,0,0-.12.3.41.41,0,0,0,.08.25.57.57,0,0,0,.22.15,2.78,2.78,0,0,0,.35.14,3.16,3.16,0,0,1,.46.18,1,1,0,0,1,.31.26.81.81,0,0,1,.12.46A.86.86,0,0,1,180.13,118.34Z"/><path d="M220.78,120.49v3h-.48v-1.34h-1.41v1.34h-.48v-3h.48v1.26h1.41v-1.26Z"/><path d="M221.38,120.27a.34.34,0,0,1,.23-.08.31.31,0,0,1,.22.08.25.25,0,0,1,.09.2.24.24,0,0,1-.09.2.31.31,0,0,1-.22.08.34.34,0,0,1-.23-.08.26.26,0,0,1-.08-.2A.28.28,0,0,1,221.38,120.27Zm.47.88v2.33h-.48v-2.33Z"/><path d="M223.85,121.33a.9.9,0,0,1,.31.56h-.46a.49.49,0,0,0-.16-.31.57.57,0,0,0-.36-.11.47.47,0,0,0-.28.08.33.33,0,0,0-.1.24.25.25,0,0,0,.08.18.39.39,0,0,0,.18.1l.3.09a3.49,3.49,0,0,1,.43.12.69.69,0,0,1,.28.2.6.6,0,0,1,.11.37.58.58,0,0,1-.22.48.93.93,0,0,1-.6.18,1.16,1.16,0,0,1-.7-.2.88.88,0,0,1-.33-.57h.47a.46.46,0,0,0,.17.31.61.61,0,0,0,.39.12.37.37,0,0,0,.27-.09.29.29,0,0,0,.1-.23.26.26,0,0,0-.07-.2.59.59,0,0,0-.19-.11,1.48,1.48,0,0,0-.32-.08l-.41-.12a.83.83,0,0,1-.27-.19.58.58,0,0,1-.11-.37.61.61,0,0,1,.22-.48,1,1,0,0,1,.62-.18A1,1,0,0,1,223.85,121.33Z"/><path d="M226.08,121.75v.4h-1.75v-.4Z"/><path d="M228.72,120.49v.39h-.83v2.6h-.49v-2.6h-.82v-.39Z"/><path d="M230.56,121.28a.87.87,0,0,1,.32.41v-.54h.48v2.33h-.48v-.54a.87.87,0,0,1-.32.41.89.89,0,0,1-.54.16,1.1,1.1,0,0,1-.55-.14,1,1,0,0,1-.37-.42,1.51,1.51,0,0,1,0-1.27,1,1,0,0,1,.37-.42,1.1,1.1,0,0,1,.55-.14A.89.89,0,0,1,230.56,121.28Zm-.91.47a.76.76,0,0,0-.19.56.8.8,0,0,0,.19.57.7.7,0,0,0,.52.2.74.74,0,0,0,.36-.09.72.72,0,0,0,.25-.27.89.89,0,0,0,.1-.41.88.88,0,0,0-.1-.4.6.6,0,0,0-.25-.27.75.75,0,0,0-.36-.1A.67.67,0,0,0,229.65,121.75Z"/><path d="M233.41,121.28a.81.81,0,0,1,.32.41v-.54h.48v2.35a1.21,1.21,0,0,1-.13.58,1,1,0,0,1-.38.4,1.27,1.27,0,0,1-.6.14,1.3,1.3,0,0,1-.79-.23,1,1,0,0,1-.38-.63h.48a.58.58,0,0,0,.23.32.71.71,0,0,0,.43.12.64.64,0,0,0,.47-.18.67.67,0,0,0,.19-.52v-.56a.81.81,0,0,1-.32.41.89.89,0,0,1-.54.16,1.09,1.09,0,0,1-.54-.14A1,1,0,0,1,232,123a1.41,1.41,0,0,1-.13-.64,1.39,1.39,0,0,1,.13-.63,1,1,0,0,1,.38-.42,1.09,1.09,0,0,1,.54-.14A.89.89,0,0,1,233.41,121.28Zm-.91.47a.81.81,0,0,0-.19.56.85.85,0,0,0,.19.57.7.7,0,0,0,.52.2.74.74,0,0,0,.36-.09.84.84,0,0,0,.26-.27.88.88,0,0,0,.09-.41.87.87,0,0,0-.09-.4.68.68,0,0,0-.26-.27.75.75,0,0,0-.36-.1A.67.67,0,0,0,232.5,121.75Z"/><path d="M249.8,115.87v.39H249v2.59h-.48v-2.59h-.83v-.39Z"/><path d="M252.3,117.79h-1.79a.78.78,0,0,0,.2.53.67.67,0,0,0,.46.17.69.69,0,0,0,.41-.12.48.48,0,0,0,.2-.33h.52a1.09,1.09,0,0,1-.19.44,1.07,1.07,0,0,1-.39.3,1.29,1.29,0,0,1-.53.1,1.21,1.21,0,0,1-.6-.14,1,1,0,0,1-.4-.41,1.44,1.44,0,0,1,0-1.28,1,1,0,0,1,.4-.41,1.21,1.21,0,0,1,.6-.14,1.16,1.16,0,0,1,.6.14.92.92,0,0,1,.39.39,1,1,0,0,1,.14.55A.68.68,0,0,1,252.3,117.79Zm-.54-.61a.59.59,0,0,0-.24-.23.72.72,0,0,0-.33-.07.7.7,0,0,0-.47.17.71.71,0,0,0-.21.52h1.32A.78.78,0,0,0,251.76,117.18Z"/><path d="M253.61,116.62a.91.91,0,0,1,.5-.13V117H254a.76.76,0,0,0-.51.16.59.59,0,0,0-.19.5v1.18h-.48v-2.33h.48V117A.9.9,0,0,1,253.61,116.62Z"/><path d="M85.87,60.35v.39H84.59v.93h1V62h-1v1.29H84.1v-3Z"/><path d="M87.12,61.1a.94.94,0,0,1,.51-.13v.52h-.15a.76.76,0,0,0-.51.16.6.6,0,0,0-.19.51v1.17H86.3V61h.48v.46A.9.9,0,0,1,87.12,61.1Z"/><path d="M90.13,61v2.33h-.48v-.5a.82.82,0,0,1-.31.4,1,1,0,0,1-.51.14.86.86,0,0,1-.65-.26,1,1,0,0,1-.25-.75V61h.48v1.31a.74.74,0,0,0,.16.49A.6.6,0,0,0,89,63a.58.58,0,0,0,.46-.19.73.73,0,0,0,.18-.54V61Z"/><path d="M92.28,63.33l-.74-1.19h-.35v1.19h-.48v-3h1.06a1.07,1.07,0,0,1,.77.25.87.87,0,0,1,.27.66.84.84,0,0,1-.2.57.92.92,0,0,1-.57.29l.78,1.21ZM91.19,61.8h.54c.39,0,.58-.17.58-.52a.52.52,0,0,0-.14-.38.63.63,0,0,0-.44-.14h-.54Z"/></g></svg>