<svg xmlns="http://www.w3.org/2000/svg" xmlns:xlink="http://www.w3.org/1999/xlink" viewBox="0 0 640 100"><defs><style>.cls-1,.cls-31,.cls-41,.cls-48,.cls-49,.cls-50,.cls-51,.cls-52,.cls-53{fill:none;}.cls-19,.cls-2{fill:#fff;}.cls-3,.cls-4{fill:#3bb7b1;}.cls-10,.cls-3{opacity:0.1;}.cls-4{opacity:0.07;}.cls-5{fill:#79d1ca;opacity:0.15;}.cls-6{fill:#7de2db;opacity:0.05;}.cls-10,.cls-11,.cls-12,.cls-13,.cls-7,.cls-8,.cls-9{fill:#8e5c13;}.cls-7{opacity:0.5;}.cls-38,.cls-8{opacity:0.19;}.cls-9{opacity:0.16;}.cls-11{opacity:0.11;}.cls-12{opacity:0.2;}.cls-13{opacity:0.14;}.cls-14{fill:#87dd50;}.cls-15{fill:#43990b;}.cls-16{fill:#fca430;}.cls-17{fill:#ffc215;}.cls-18{fill:#e5820c;}.cls-19{opacity:0.31;}.cls-20{fill:#f0fffe;}.cls-21{clip-path:url(#clip-path);}.cls-22{fill:#c3fcf6;}.cls-23{fill:#3f3f3f;}.cls-24{fill:#e5921a;}.cls-25{fill:#6d6d6c;}.cls-26{fill:#e2e2e2;}.cls-27{fill:#9b9b9b;}.cls-28{fill:#ccc836;}.cls-29{fill:#838911;}.cls-30{opacity:0.76;}.cls-31{stroke:#fff;}.cls-31,.cls-41,.cls-48,.cls-53{stroke-linecap:round;stroke-linejoin:round;}.cls-31,.cls-41,.cls-48,.cls-49,.cls-50,.cls-51,.cls-52,.cls-53{stroke-width:0.5px;}.cls-32{fill:#873e0c;stroke:#000;stroke-width:0.25px;}.cls-32,.cls-49,.cls-50,.cls-51,.cls-52{stroke-miterlimit:10;}.cls-33{fill:#a37831;}.cls-34{fill:#754d12;}.cls-35{fill:#492e0b;}.cls-36,.cls-37,.cls-38{fill:#bababa;}.cls-36{opacity:0.36;}.cls-37{opacity:0.22;}.cls-39{fill:#c3d3e0;}.cls-40{fill:#95a9b7;}.cls-41{stroke:#ffc215;}.cls-41,.cls-46{opacity:0.9;}.cls-42{fill:#e8a613;}.cls-43{fill:#fff5e1;}.cls-44{fill:#bdebff;}.cls-45{fill:#8dcad8;}.cls-46{fill:#5b5b5b;}.cls-47{fill:#ea526f;}.cls-48{stroke:#1faaad;}.cls-49{stroke:#25ced1;}.cls-50{stroke:#ea526f;}.cls-51{stroke:#f56e65;}.cls-52{stroke:#92e7e8;}.cls-53{stroke:#ffc5ad;}.cls-54{fill:#1faaad;}</style><clipPath id="clip-path"><path class="cls-1" d="M164.36,65.58H147.43a1.7,1.7,0,0,1-1.7-1.7V51.38a1.7,1.7,0,0,1,1.7-1.71h14.15A1.7,1.7,0,0,1,163.24,51L166,63.51A1.7,1.7,0,0,1,164.36,65.58Z"/></clipPath></defs><g id="TITLE"><rect class="cls-2" width="640" height="100"/></g><g id="Layer_23" data-name="Layer 23"><g id="cloud_bg" data-name="cloud bg"><path class="cls-3" d="M51.19,78.11S62.11,66,63.93,55.86,50,4.26,84.38,7c16.2,1.28,21.49,15.71,32.15,20.71,14.54,6.81,23.67-9.78,40.13-9.27,14.08.44,20.73,27.78,20.58,39.75-.27,21.45-23.66,23.41-23.66,23.41h0Z"/><path class="cls-4" d="M129.37,81.59s6.84-14.85,11.48-22.73c6.51-11.07,11.25-3.22,29.51-22,7.46-7.7,2.3-30.31,30.43-31.23,34.94-1.14-2.18,30.7,9.76,36.05C222,46.78,231,52.08,230.87,62.76c-.24,19.15-31.14,19.64-31.14,19.64h0Z"/><path class="cls-4" d="M524.54,76.74S502,61.2,502,49.25,510.16-.37,549.54,4.67C563.43,6.45,585.28-20,599.31-20.67c30.55-1.53,14,45.8,14,57.75S627,77,627,77Z"/><path class="cls-5" d="M-21.78,82.36S-2.5,60.58-2.5,49.28-35.8-19.89,14.11-19.89c20.7,0,25.79,42.16,37.3,42.57,25.33.9,51.3,13.21,52.46,42.41.64,15.81-33.09,17.27-33.09,17.27Z"/><path class="cls-6" d="M535.08,73.74S513.14,64,510.77,52.26s-2-47.73-39.6-34.95C457.9,21.82,449-3.23,435.07-1.13,404.83,3.44,409,36.43,411.34,48.15s10.81,26.49,10.81,26.49Z"/><path class="cls-6" d="M555.39,76.16s16.38-7.3,18.15-16S575,24.48,603.11,34c9.91,3.37,16.58-15.33,26.95-13.77,22.58,3.42,19.49,28.05,17.71,36.8s-8.06,19.78-8.06,19.78Z"/><path class="cls-4" d="M402,76.18s21.93-9.76,24.31-21.47,2-47.73,39.59-35C479.13,24.26,488.07-.79,502,1.31c30.24,4.58,26.1,37.57,23.73,49.28s-10.81,26.49-10.81,26.49Z"/></g><g id="ground"><path class="cls-7" d="M192.94,86.44c-5.23,4.46-26.61,6.48-37.58,7-9.64.41-22-1.75-27.54-1.79-11.38-.07-20.33,1-25.2.72-11.05-.6-28.77-3-28.77-4.38s21.89-1.53,35.11-2c8.89-.34,14.83-1.65,18.86-1.6,11.47.14,22.13-1.58,40.62.53C175.33,85.62,194.15,85.41,192.94,86.44Z"/><path class="cls-8" d="M2.1,92.43C4.42,93.5.17,112.43,14.39,113c11.85.44,32.09-3.3,51-3.75,14.75-.34,38.13-7,44.43-7.31,14.32-.6,49.22-3.66,49.24-11.24,0-1.48-44.07-7.33-61.2-7.85-11.52-.35-25.64-.59-30.86-.54-14.86.15-23-3.36-46.92-1.24C11.16,81.8.4,91.65,2.1,92.43Z"/><path class="cls-9" d="M638.82,87.44c-2.32,1.07,1.93,20-12.29,20.52-11.85.43-31.73-11.51-50.67-12-14.75-.34-38.48,1.16-44.78.89-14.32-.59-37.27-4.9-37.29-12.49,0-1.47,32.12-6.08,49.25-6.6,11.52-.34,25.64-.58,30.86-.53,14.86.14,23-3.36,46.92-1.25C629.76,76.81,640.52,86.65,638.82,87.44Z"/><path class="cls-10" d="M413.08,83.71c1.76,1.33,14.84,11.07,2.86,8.43-40.68-9-28.06,5.44-44.38,5.23-12.71-.16-24.92-6.12-30.35-6.29-12.35-.39-12.08,6.73-22.92-1.15-1-.74-7-7.32,7.76-7.92,9.92-.4,20.87-.72,25.37-.73,12.81,0,19.77-3.1,40.42-1.49C399.55,80.38,407.66,79.62,413.08,83.71Z"/><path class="cls-11" d="M119.76,84.92c-2.25,1.69-4.12,26.07,11.42,23.9,56.2-7.85,33.71-1.33,54.59-1.6C202,107,210,117.42,217,117.21c15.8-.49,30,3,31-13.56.11-1.62,5.85-20.29-13-21.05-12.7-.52-33.13,2.86-38.89,2.85-16.39,0-21-5.09-47.46-3C138.8,83.18,126.7,79.68,119.76,84.92Z"/><path class="cls-12" d="M183.52,89.58c10-.71,7.72-.52,21.94,0,11.86.44,32.63,7.4,51.56,7,14.75-.35,44.91-4.56,51.21-4.82,14.32-.6,49,1,49.06-6.6,0-1.48-51.56-.56-68.69-1.07-11.52-.35-27.24,4-32.47,4.1-14.86.14-35.28-8.71-59.23-6.6C188,82.34,181.65,89.71,183.52,89.58Z"/><path class="cls-13" d="M381.38,78c8.95.21,37.69,1.42,51.91.89,11.85-.43,31-.21,50,.23,14.75.34,38.12.4,44.42.67,14.33.59,67.2-6.67,61.55-1.61C576.73,89.35,565,110.47,547.83,111c-11.52.35-64-7.62-69.22-7.67-14.86-.14-41,3.71-64.94,1.6C404.73,104.13,366.21,77.63,381.38,78Z"/></g><g id="cane"><rect class="cls-14" x="15.62" y="46.03" width="1.95" height="8.42"/><rect class="cls-15" x="16.75" y="46.11" width="0.71" height="8.23"/><polygon class="cls-14" points="17.57 45.16 15.62 45.16 15.78 36.75 17.37 36.75 17.57 45.16"/><polygon class="cls-15" points="17.46 45.07 16.75 45.07 16.75 36.84 17.25 36.84 17.46 45.07"/><rect class="cls-14" x="15.62" y="55.31" width="1.95" height="8.42"/><rect class="cls-15" x="16.75" y="55.4" width="0.71" height="8.23"/><rect class="cls-14" x="15.62" y="73.87" width="1.95" height="8.42"/><rect class="cls-15" x="16.75" y="73.96" width="0.71" height="8.23"/><rect class="cls-14" x="15.62" y="64.59" width="1.95" height="8.42"/><rect class="cls-15" x="16.75" y="64.68" width="0.71" height="8.23"/><rect class="cls-14" x="23.89" y="48.39" width="1.95" height="8.42"/><rect class="cls-15" x="25.02" y="48.48" width="0.71" height="8.23"/><polygon class="cls-14" points="25.84 47.53 23.89 47.53 24.05 39.11 25.64 39.11 25.84 47.53"/><polygon class="cls-15" points="25.73 47.43 25.02 47.43 25.02 39.2 25.53 39.2 25.73 47.43"/><rect class="cls-14" x="23.89" y="57.67" width="1.95" height="8.42"/><rect class="cls-15" x="25.02" y="57.77" width="0.71" height="8.23"/><rect class="cls-14" x="23.89" y="76.23" width="1.95" height="8.42"/><rect class="cls-15" x="25.02" y="76.32" width="0.71" height="8.23"/><rect class="cls-14" x="23.89" y="66.95" width="1.95" height="8.42"/><rect class="cls-15" x="25.02" y="67.04" width="0.71" height="8.23"/><rect class="cls-14" x="19.87" y="47.8" width="1.95" height="8.42"/><rect class="cls-15" x="21.01" y="47.89" width="0.71" height="8.23"/><polygon class="cls-14" points="21.82 28.62 19.87 28.62 20.03 20.2 21.62 20.2 21.82 28.62"/><polygon class="cls-15" points="21.72 28.53 21.01 28.53 21.01 20.3 21.51 20.3 21.72 28.53"/><rect class="cls-14" x="19.87" y="57.08" width="1.95" height="8.42"/><rect class="cls-15" x="21.01" y="57.18" width="0.71" height="8.23"/><rect class="cls-14" x="19.87" y="29.25" width="1.95" height="8.42"/><rect class="cls-15" x="21.01" y="29.33" width="0.71" height="8.23"/><rect class="cls-14" x="19.87" y="38.53" width="1.95" height="8.42"/><rect class="cls-15" x="21.01" y="38.62" width="0.71" height="8.23"/><rect class="cls-14" x="19.87" y="75.64" width="1.95" height="8.42"/><rect class="cls-15" x="21.01" y="75.73" width="0.71" height="8.23"/><rect class="cls-14" x="19.87" y="66.36" width="1.95" height="8.42"/><rect class="cls-15" x="21.01" y="66.45" width="0.71" height="8.23"/><rect class="cls-14" x="41.93" y="35.89" width="1.95" height="8.42"/><rect class="cls-15" x="43.06" y="35.98" width="0.71" height="8.23"/><rect class="cls-14" x="41.93" y="45.91" width="1.95" height="8.42"/><rect class="cls-15" x="43.06" y="46" width="0.71" height="8.23"/><rect class="cls-14" x="41.93" y="55.93" width="1.95" height="8.42"/><rect class="cls-15" x="43.06" y="56.03" width="0.71" height="8.23"/><rect class="cls-14" x="41.93" y="65.95" width="1.95" height="8.42"/><rect class="cls-15" x="43.06" y="66.05" width="0.71" height="8.23"/><rect class="cls-14" x="41.93" y="75.97" width="1.95" height="8.42"/><rect class="cls-15" x="43.06" y="76.07" width="0.71" height="8.23"/><polygon class="cls-14" points="43.88 34.76 41.93 34.76 42.15 26.34 43.69 26.34 43.88 34.76"/><polygon class="cls-15" points="43.77 34.67 43.06 34.67 43.06 26.44 43.59 26.44 43.77 34.67"/><path class="cls-14" d="M43.54,25.29h-1a.37.37,0,0,1-.4-.32l.5-8.78c0-.18.2-.52.42-.52h.21a.56.56,0,0,1,.48.43L43.93,25A.36.36,0,0,1,43.54,25.29Z"/><path class="cls-15" d="M43.84,25.07c0,.17-.78.12-.78.12l.18-9.55a.93.93,0,0,1,.47.36C43.84,16.26,43.76,22.71,43.84,25.07Z"/><rect class="cls-14" x="54.1" y="42.74" width="1.95" height="8.42"/><rect class="cls-15" x="55.23" y="42.84" width="0.71" height="8.23"/><rect class="cls-14" x="54.1" y="51.58" width="1.95" height="8.42"/><rect class="cls-15" x="55.23" y="51.68" width="0.71" height="8.23"/><rect class="cls-14" x="54.1" y="60.42" width="1.95" height="8.42"/><rect class="cls-15" x="55.23" y="60.52" width="0.71" height="8.23"/><rect class="cls-14" x="54.1" y="69.26" width="1.95" height="8.42"/><rect class="cls-15" x="55.23" y="69.36" width="0.71" height="8.23"/><rect class="cls-14" x="54.1" y="78.1" width="1.95" height="8.42"/><rect class="cls-15" x="55.23" y="78.19" width="0.71" height="8.23"/><polygon class="cls-14" points="56.05 42.2 54.1 42.2 54.32 33.79 55.86 33.79 56.05 42.2"/><polygon class="cls-15" points="55.94 42.11 55.23 42.11 55.23 33.88 55.76 33.88 55.94 42.11"/><path class="cls-14" d="M55.71,33.21h-1a.37.37,0,0,1-.4-.32l.5-8.78c0-.18.2-.52.42-.52h.21a.55.55,0,0,1,.48.42l.22,8.88A.36.36,0,0,1,55.71,33.21Z"/><path class="cls-15" d="M56,33c0,.17-.78.12-.78.12l.18-9.55a1,1,0,0,1,.47.35C56,24.17,55.93,30.62,56,33Z"/><rect class="cls-14" x="49.61" y="39.08" width="1.95" height="8.42"/><rect class="cls-15" x="50.74" y="39.17" width="0.71" height="8.23"/><rect class="cls-14" x="49.61" y="47.92" width="1.95" height="8.42"/><rect class="cls-15" x="50.74" y="48.01" width="0.71" height="8.23"/><rect class="cls-14" x="49.61" y="57" width="1.95" height="8.42"/><rect class="cls-15" x="50.74" y="57.09" width="0.71" height="8.23"/><rect class="cls-14" x="49.61" y="66.07" width="1.95" height="8.42"/><rect class="cls-15" x="50.74" y="66.16" width="0.71" height="8.23"/><rect class="cls-14" x="49.61" y="75.03" width="1.95" height="8.42"/><rect class="cls-15" x="50.74" y="75.12" width="0.71" height="8.23"/><polygon class="cls-14" points="51.56 38.54 49.61 38.54 49.83 30.13 51.37 30.13 51.56 38.54"/><polygon class="cls-15" points="51.45 38.45 50.74 38.45 50.74 30.22 51.27 30.22 51.45 38.45"/><path class="cls-14" d="M51.22,29.66h-1a.37.37,0,0,1-.4-.32l.5-8.78c0-.18.2-.52.42-.52h.21a.54.54,0,0,1,.48.43l.22,8.87A.36.36,0,0,1,51.22,29.66Z"/><path class="cls-15" d="M51.52,29.44c0,.18-.78.12-.78.12L50.92,20a.93.93,0,0,1,.47.36C51.52,20.63,51.44,27.08,51.52,29.44Z"/><rect class="cls-14" x="26.33" y="37.9" width="1.95" height="8.42"/><rect class="cls-15" x="27.46" y="37.99" width="0.71" height="8.23"/><rect class="cls-14" x="26.33" y="46.74" width="1.95" height="8.42"/><rect class="cls-15" x="27.46" y="46.83" width="0.71" height="8.23"/><rect class="cls-14" x="26.33" y="55.81" width="1.95" height="8.42"/><rect class="cls-15" x="27.46" y="55.91" width="0.71" height="8.23"/><rect class="cls-14" x="26.33" y="64.89" width="1.95" height="8.42"/><rect class="cls-15" x="27.46" y="64.98" width="0.71" height="8.23"/><rect class="cls-14" x="26.33" y="73.85" width="1.95" height="8.42"/><rect class="cls-15" x="27.46" y="73.94" width="0.71" height="8.23"/><polygon class="cls-14" points="28.28 37.36 26.33 37.36 26.55 28.94 28.09 28.94 28.28 37.36"/><polygon class="cls-15" points="28.17 37.27 27.46 37.27 27.46 29.04 28 29.04 28.17 37.27"/><path class="cls-14" d="M27.94,28.48h-1a.37.37,0,0,1-.4-.32l.5-8.78c0-.18.2-.52.42-.52h.21a.54.54,0,0,1,.48.43l.23,8.87A.37.37,0,0,1,27.94,28.48Z"/><path class="cls-15" d="M28.25,28.26c0,.17-.79.12-.79.12l.18-9.55a.93.93,0,0,1,.47.36C28.24,19.45,28.16,25.9,28.25,28.26Z"/><rect class="cls-14" x="47.4" y="55.8" width="1.53" height="6.6" transform="translate(5.33 -3.97) rotate(5)"/><rect class="cls-15" x="48.29" y="55.91" width="0.56" height="6.45" transform="translate(5.34 -4.01) rotate(5)"/><rect class="cls-14" x="48.05" y="48.35" width="1.53" height="6.6" transform="translate(4.69 -4.06) rotate(5)"/><rect class="cls-15" x="48.94" y="48.48" width="0.56" height="6.45" transform="translate(4.69 -4.09) rotate(5)"/><rect class="cls-14" x="48.7" y="40.9" width="1.53" height="6.6" transform="translate(4.04 -4.14) rotate(5)"/><rect class="cls-15" x="49.59" y="41.01" width="0.56" height="6.45" transform="translate(4.04 -4.18) rotate(5)"/><polygon class="cls-14" points="50.69 40.1 49.17 39.97 49.76 34.83 50.92 34.93 50.69 40.1"/><polygon class="cls-15" points="50.63 40.02 50.04 39.97 50.48 34.96 50.84 34.99 50.63 40.02"/><rect class="cls-14" x="46.74" y="63.26" width="1.53" height="6.6" transform="translate(5.98 -3.89) rotate(5)"/><rect class="cls-15" x="47.63" y="63.37" width="0.56" height="6.45" transform="translate(5.99 -3.92) rotate(5)"/><rect class="cls-14" x="46.09" y="70.71" width="1.53" height="6.6" transform="translate(6.63 -3.8) rotate(5)"/><rect class="cls-15" x="46.98" y="70.82" width="0.56" height="6.45" transform="translate(6.63 -3.84) rotate(5)"/><rect class="cls-14" x="45.44" y="78.17" width="1.53" height="6.6" transform="translate(7.28 -3.72) rotate(5)"/><rect class="cls-15" x="46.33" y="78.27" width="0.56" height="6.45" transform="translate(7.28 -3.75) rotate(5)"/><rect class="cls-14" x="21.73" y="54.15" width="1.53" height="6.6" transform="translate(3.04 -1.1) rotate(3)"/><rect class="cls-15" x="22.62" y="54.24" width="0.56" height="6.45" transform="translate(3.04 -1.12) rotate(3)"/><rect class="cls-14" x="22.12" y="46.67" width="1.53" height="6.6" transform="translate(2.65 -1.13) rotate(3)"/><rect class="cls-15" x="23.01" y="46.79" width="0.56" height="6.45" transform="translate(2.65 -1.15) rotate(3)"/><rect class="cls-14" x="22.51" y="39.2" width="1.53" height="6.6" transform="translate(2.26 -1.16) rotate(3)"/><rect class="cls-15" x="23.4" y="39.3" width="0.56" height="6.45" transform="translate(2.26 -1.18) rotate(3)"/><polygon class="cls-14" points="24.36 38.37 22.83 38.29 23.25 33.13 24.41 33.19 24.36 38.37"/><polygon class="cls-15" points="24.29 38.29 23.71 38.26 23.97 33.23 24.33 33.25 24.29 38.29"/><rect class="cls-14" x="21.34" y="61.62" width="1.53" height="6.6" transform="translate(3.43 -1.07) rotate(3)"/><rect class="cls-15" x="22.23" y="61.71" width="0.56" height="6.45" transform="translate(3.43 -1.09) rotate(3)"/><rect class="cls-14" x="20.95" y="69.09" width="1.53" height="6.6" transform="translate(3.82 -1.04) rotate(3)"/><rect class="cls-15" x="21.84" y="69.19" width="0.56" height="6.45" transform="matrix(1, 0.05, -0.05, 1, 3.82, -1.06)"/><rect class="cls-14" x="20.55" y="76.56" width="1.53" height="6.6" transform="translate(4.21 -1.01) rotate(3)"/><rect class="cls-15" x="21.44" y="76.66" width="0.56" height="6.45" transform="translate(4.21 -1.03) rotate(3)"/><rect class="cls-14" x="31.18" y="36.36" width="1.95" height="8.42"/><rect class="cls-15" x="32.31" y="36.46" width="0.71" height="8.23"/><rect class="cls-14" x="31.18" y="46.38" width="1.95" height="8.42"/><rect class="cls-15" x="32.31" y="46.48" width="0.71" height="8.23"/><rect class="cls-14" x="31.18" y="56.4" width="1.95" height="8.42"/><rect class="cls-15" x="32.31" y="56.5" width="0.71" height="8.23"/><rect class="cls-14" x="31.18" y="66.43" width="1.95" height="8.42"/><rect class="cls-15" x="32.31" y="66.52" width="0.71" height="8.23"/><rect class="cls-14" x="31.18" y="76.45" width="1.95" height="8.42"/><rect class="cls-15" x="32.31" y="76.54" width="0.71" height="8.23"/><polygon class="cls-14" points="33.13 35.23 31.18 35.23 31.4 26.82 32.93 26.82 33.13 35.23"/><polygon class="cls-15" points="33.02 35.14 32.31 35.14 32.31 26.91 32.84 26.91 33.02 35.14"/><path class="cls-14" d="M32.79,25.76H31.74a.36.36,0,0,1-.39-.32l.5-8.78c0-.18.2-.52.41-.52h.21a.56.56,0,0,1,.49.43l.22,8.87A.36.36,0,0,1,32.79,25.76Z"/><path class="cls-15" d="M33.09,25.54c0,.18-.78.13-.78.13l.17-9.55a.9.9,0,0,1,.48.35C33.09,16.73,33,23.18,33.09,25.54Z"/><rect class="cls-14" x="29.38" y="47.68" width="1.95" height="8.42"/><rect class="cls-15" x="30.52" y="47.77" width="0.71" height="8.23"/><rect class="cls-14" x="29.38" y="38.13" width="1.95" height="8.42"/><rect class="cls-15" x="30.52" y="38.26" width="0.71" height="8.23"/><rect class="cls-14" x="29.38" y="28.59" width="1.95" height="8.42"/><rect class="cls-15" x="30.52" y="28.68" width="0.71" height="8.23"/><polygon class="cls-14" points="31.46 27.46 29.51 27.46 29.7 20.86 31.18 20.86 31.46 27.46"/><polygon class="cls-15" points="31.37 27.37 30.62 27.37 30.62 20.94 31.09 20.94 31.37 27.37"/><rect class="cls-14" x="29.38" y="57.22" width="1.95" height="8.42"/><rect class="cls-15" x="30.52" y="57.32" width="0.71" height="8.23"/><rect class="cls-14" x="29.38" y="66.77" width="1.95" height="8.42"/><rect class="cls-15" x="30.52" y="66.86" width="0.71" height="8.23"/><rect class="cls-14" x="29.38" y="76.32" width="1.95" height="8.42"/><rect class="cls-15" x="30.52" y="76.41" width="0.71" height="8.23"/><rect class="cls-14" x="35.06" y="48.03" width="1.95" height="8.42"/><rect class="cls-15" x="36.19" y="48.13" width="0.71" height="8.23"/><rect class="cls-14" x="35.06" y="38.49" width="1.95" height="8.42"/><rect class="cls-15" x="36.19" y="38.61" width="0.71" height="8.23"/><rect class="cls-14" x="35.06" y="28.94" width="1.95" height="8.42"/><rect class="cls-15" x="36.19" y="29.04" width="0.71" height="8.23"/><polygon class="cls-14" points="37.13 27.81 35.18 27.81 35.37 21.22 36.85 21.22 37.13 27.81"/><polygon class="cls-15" points="37.04 27.72 36.3 27.72 36.3 21.3 36.76 21.3 37.04 27.72"/><rect class="cls-14" x="35.06" y="57.58" width="1.95" height="8.42"/><rect class="cls-15" x="36.19" y="57.67" width="0.71" height="8.23"/><rect class="cls-14" x="35.06" y="67.12" width="1.95" height="8.42"/><rect class="cls-15" x="36.19" y="67.22" width="0.71" height="8.23"/><rect class="cls-14" x="35.06" y="76.67" width="1.95" height="8.42"/><rect class="cls-15" x="36.19" y="76.76" width="0.71" height="8.23"/><rect class="cls-14" x="17.62" y="48.63" width="1.95" height="8.42"/><rect class="cls-15" x="18.76" y="48.71" width="0.71" height="8.23"/><polygon class="cls-14" points="19.57 29.45 17.62 29.45 17.79 21.03 19.38 21.03 19.57 29.45"/><polygon class="cls-15" points="19.47 29.35 18.76 29.35 18.76 21.13 19.26 21.13 19.47 29.35"/><rect class="cls-14" x="17.62" y="57.91" width="1.95" height="8.42"/><rect class="cls-15" x="18.76" y="58" width="0.71" height="8.23"/><rect class="cls-14" x="17.62" y="30.08" width="1.95" height="8.42"/><rect class="cls-15" x="18.76" y="30.16" width="0.71" height="8.23"/><rect class="cls-14" x="17.62" y="39.36" width="1.95" height="8.42"/><rect class="cls-15" x="18.76" y="39.45" width="0.71" height="8.23"/><rect class="cls-14" x="17.62" y="76.47" width="1.95" height="8.42"/><rect class="cls-15" x="18.76" y="76.56" width="0.71" height="8.23"/><rect class="cls-14" x="17.62" y="67.19" width="1.95" height="8.42"/><rect class="cls-15" x="18.76" y="67.28" width="0.71" height="8.23"/><rect class="cls-14" x="39.47" y="46.5" width="1.95" height="8.42" transform="translate(-4.27 3.72) rotate(-5)"/><rect class="cls-15" x="40.61" y="46.54" width="0.71" height="8.23" transform="translate(-4.26 3.76) rotate(-5)"/><polygon class="cls-14" points="39.38 27.33 37.44 27.5 36.87 19.1 38.45 18.96 39.38 27.33"/><polygon class="cls-15" points="39.27 27.24 38.56 27.3 37.85 19.11 38.35 19.06 39.27 27.24"/><rect class="cls-14" x="40.28" y="55.75" width="1.95" height="8.42" transform="translate(-5.07 3.82) rotate(-5)"/><rect class="cls-15" x="41.42" y="55.8" width="0.71" height="8.23" transform="translate(-5.06 3.87) rotate(-5)"/><rect class="cls-14" x="37.86" y="28.02" width="1.95" height="8.42" transform="translate(-2.66 3.51) rotate(-5)"/><rect class="cls-15" x="38.99" y="28.06" width="0.71" height="8.23" transform="translate(-2.65 3.55) rotate(-5)"/><rect class="cls-14" x="38.67" y="37.27" width="1.95" height="8.42" transform="translate(-3.46 3.61) rotate(-5)"/><rect class="cls-15" x="39.8" y="37.31" width="0.71" height="8.23" transform="translate(-3.46 3.66) rotate(-5)"/><rect class="cls-14" x="41.9" y="74.24" width="1.95" height="8.42" transform="translate(-6.67 4.04) rotate(-5)"/><rect class="cls-15" x="43.03" y="74.28" width="0.71" height="8.23" transform="translate(-6.67 4.08) rotate(-5)"/><rect class="cls-14" x="41.09" y="64.99" width="1.95" height="8.42" transform="translate(-5.87 3.93) rotate(-5)"/><rect class="cls-15" x="42.23" y="65.04" width="0.71" height="8.23" transform="translate(-5.86 3.97) rotate(-5)"/><rect class="cls-14" x="44.39" y="47.56" width="1.95" height="8.42"/><rect class="cls-15" x="45.53" y="47.66" width="0.71" height="8.23"/><rect class="cls-14" x="44.39" y="38.02" width="1.95" height="8.42"/><rect class="cls-15" x="45.53" y="38.14" width="0.71" height="8.23"/><rect class="cls-14" x="44.39" y="28.47" width="1.95" height="8.42"/><rect class="cls-15" x="45.53" y="28.56" width="0.71" height="8.23"/><polygon class="cls-14" points="46.47 27.34 44.52 27.34 44.7 20.75 46.19 20.75 46.47 27.34"/><polygon class="cls-15" points="46.38 27.25 45.63 27.25 45.63 20.82 46.09 20.82 46.38 27.25"/><rect class="cls-14" x="44.39" y="57.11" width="1.95" height="8.42"/><rect class="cls-15" x="45.53" y="57.2" width="0.71" height="8.23"/><rect class="cls-14" x="44.39" y="66.65" width="1.95" height="8.42"/><rect class="cls-15" x="45.53" y="66.75" width="0.71" height="8.23"/><rect class="cls-14" x="44.39" y="76.2" width="1.95" height="8.42"/><rect class="cls-15" x="45.53" y="76.29" width="0.71" height="8.23"/><rect class="cls-14" x="39.6" y="46.74" width="1.95" height="8.42"/><rect class="cls-15" x="40.74" y="46.82" width="0.71" height="8.23"/><polygon class="cls-14" points="41.55 45.87 39.6 45.87 39.77 37.46 41.35 37.46 41.55 45.87"/><polygon class="cls-15" points="41.45 45.78 40.74 45.78 40.74 37.55 41.24 37.55 41.45 45.78"/><rect class="cls-14" x="39.6" y="56.02" width="1.95" height="8.42"/><rect class="cls-15" x="40.74" y="56.11" width="0.71" height="8.23"/><rect class="cls-14" x="39.6" y="74.58" width="1.95" height="8.42"/><rect class="cls-15" x="40.74" y="74.67" width="0.71" height="8.23"/><rect class="cls-14" x="39.6" y="65.3" width="1.95" height="8.42"/><rect class="cls-15" x="40.74" y="65.39" width="0.71" height="8.23"/><path class="cls-14" d="M56.67,30.18c1.71-5.69,9.1-8.84,14.33-7.26C62.42,19.38,57.82,22.15,56.67,30.18Z"/><path class="cls-15" d="M56.67,30.18c1.71-5.69,9.23-8.85,14.22-7.3C62.65,20.82,59.15,23.72,56.67,30.18Z"/><path class="cls-14" d="M45.57,14.68c-6.17-.2-11.72,6-11.88,11.7C33.79,16.09,38.6,11,45.57,14.68Z"/><path class="cls-15" d="M45.57,14.68c-5.64-.09-11.77,6.15-11.89,11.57C34.2,19,39.35,12.21,45.57,14.68Z"/><path class="cls-14" d="M14.45,18.72c5.9-.19,11.22,5.77,11.38,11.2C25.72,20.07,21.13,15.23,14.45,18.72Z"/><path class="cls-15" d="M14.45,18.72c5.4-.09,11.27,5.89,11.39,11.08C25.34,22.85,20.4,16.36,14.45,18.72Z"/><path class="cls-14" d="M52.39,16.86c-5.17-.89-6.08,4.45-5.52,8.24A8.27,8.27,0,0,1,52.39,16.86Z"/><path class="cls-15" d="M52.39,16.86c-3.66.05-5.73,4.09-5.52,8.24A8.27,8.27,0,0,1,52.39,16.86Z"/><path class="cls-14" d="M44.12,32.28c-4.88-1.91-6.84,3.14-7,7A8.24,8.24,0,0,1,44.12,32.28Z"/><path class="cls-15" d="M44.12,32.28c-3.6-.69-6.42,2.86-7,7A8.24,8.24,0,0,1,44.12,32.28Z"/><path class="cls-14" d="M9.08,25.78c5.62-1.91,7.58,3.91,7.62,8.25A9.36,9.36,0,0,0,9.08,25.78Z"/><path class="cls-15" d="M9.08,25.78c4.1-.59,7.12,3.57,7.62,8.25A9.36,9.36,0,0,0,9.08,25.78Z"/><path class="cls-14" d="M23.62,11.84c5.61-1.91,7.57,3.9,7.61,8.24A9.34,9.34,0,0,0,23.62,11.84Z"/><path class="cls-15" d="M23.62,11.84c4.1-.59,7.11,3.56,7.61,8.24A9.34,9.34,0,0,0,23.62,11.84Z"/><path class="cls-14" d="M55.21,15.74c-.59,2.79-2.22,9.92-3.12,13m3.12-13c-2.5,2.55-3.65,10-3.12,13"/><path class="cls-15" d="M55.17,15.76c-.75,2.72-1.94,9.58-2.94,12.56m2.94-12.56a40.24,40.24,0,0,0-2.94,12.56"/><path class="cls-14" d="M22.3,25.08c.59,2.79,2.23,9.91,3.12,13m-3.12-13c2.5,2.54,3.66,10,3.12,13"/><path class="cls-15" d="M22.34,25.1c.75,2.72,1.94,9.58,2.94,12.55M22.34,25.1a40.18,40.18,0,0,1,2.94,12.55"/><path class="cls-14" d="M49.26,28.19c-.45,2.15-1.71,7.63-2.4,10m2.4-10c-1.92,2-2.81,7.73-2.4,10"/><path class="cls-15" d="M49.23,28.2c-.58,2.1-1.49,7.38-2.26,9.66m2.26-9.66A30.92,30.92,0,0,0,47,37.86"/><path class="cls-14" d="M59.19,32.92c-.46,2.14-1.71,7.63-2.4,10m2.4-10c-1.93,2-2.81,7.72-2.4,10"/><path class="cls-15" d="M59.16,32.93c-.58,2.09-1.49,7.37-2.26,9.66m2.26-9.66a30.92,30.92,0,0,0-2.26,9.66"/><path class="cls-14" d="M53.68,39.26c-.29,2.2-1.22,7.23-1.61,9.19m1.61-9.19c-1.09,1.83-2.4,7-1.61,9.19"/></g><g id="hori_cane" data-name="hori cane"><rect class="cls-14" x="105.63" y="52.65" width="1.87" height="8.07" transform="translate(49.88 163.25) rotate(-90)"/><rect class="cls-15" x="106.21" y="52.25" width="0.68" height="7.89" transform="translate(50.36 162.74) rotate(-90)"/><polygon class="cls-14" points="101.7 55.75 101.7 57.62 93.63 57.46 93.63 55.94 101.7 55.75"/><polygon class="cls-15" points="101.61 55.85 101.61 56.53 93.72 56.53 93.72 56.05 101.61 55.85"/><rect class="cls-14" x="114.52" y="52.65" width="1.87" height="8.07" transform="translate(58.77 172.14) rotate(-90)"/><rect class="cls-15" x="115.12" y="52.25" width="0.68" height="7.89" transform="translate(59.27 171.65) rotate(-90)"/><rect class="cls-14" x="132.31" y="52.65" width="1.87" height="8.07" transform="translate(76.56 189.93) rotate(-90)"/><rect class="cls-15" x="132.9" y="52.25" width="0.68" height="7.89" transform="translate(77.05 189.43) rotate(-90)"/><rect class="cls-14" x="123.42" y="52.65" width="1.87" height="8.07" transform="translate(67.67 181.04) rotate(-90)"/><rect class="cls-15" x="124.01" y="52.25" width="0.68" height="7.89" transform="translate(68.16 180.54) rotate(-90)"/><rect class="cls-14" x="105.17" y="49.31" width="1.87" height="8.07" transform="translate(52.77 159.45) rotate(-90)"/><rect class="cls-15" x="105.77" y="48.9" width="0.68" height="7.89" transform="translate(53.26 158.95) rotate(-90)"/><rect class="cls-14" x="96.02" y="49.31" width="1.87" height="8.07" transform="translate(43.62 150.3) rotate(-90)"/><rect class="cls-15" x="96.64" y="48.9" width="0.68" height="7.89" transform="translate(44.14 149.83) rotate(-90)"/><rect class="cls-14" x="96.02" y="45.78" width="1.87" height="8.07" transform="translate(47.15 146.77) rotate(-90)"/><rect class="cls-15" x="96.62" y="45.38" width="0.68" height="7.89" transform="translate(47.64 146.28) rotate(-90)"/><rect class="cls-14" x="105.63" y="45.78" width="1.87" height="8.07" transform="translate(56.75 156.37) rotate(-90)"/><rect class="cls-15" x="106.22" y="45.38" width="0.68" height="7.89" transform="translate(57.24 155.88) rotate(-90)"/><rect class="cls-14" x="115.23" y="45.78" width="1.87" height="8.07" transform="translate(66.36 165.98) rotate(-90)"/><rect class="cls-15" x="115.83" y="45.38" width="0.68" height="7.89" transform="translate(66.85 165.49) rotate(-90)"/><rect class="cls-14" x="124.84" y="45.78" width="1.87" height="8.07" transform="translate(75.96 175.58) rotate(-90)"/><rect class="cls-15" x="125.43" y="45.38" width="0.68" height="7.89" transform="translate(76.45 175.09) rotate(-90)"/><rect class="cls-14" x="134.44" y="45.78" width="1.87" height="8.07" transform="translate(85.57 185.19) rotate(-90)"/><rect class="cls-15" x="135.04" y="45.38" width="0.68" height="7.89" transform="translate(86.06 184.7) rotate(-90)"/><rect class="cls-14" x="86.87" y="49.31" width="1.87" height="8.07" transform="translate(34.47 141.15) rotate(-90)"/><rect class="cls-15" x="87.47" y="48.9" width="0.68" height="7.89" transform="translate(34.96 140.65) rotate(-90)"/><polygon class="cls-14" points="91.84 48.88 91.84 50.75 83.78 50.53 83.78 49.06 91.84 48.88"/><polygon class="cls-15" points="91.75 48.98 91.75 49.66 83.86 49.66 83.86 49.15 91.75 48.98"/><path class="cls-14" d="M82.76,49.2v1a.34.34,0,0,1-.3.38L74,50.1c-.17,0-.49-.19-.49-.4v-.2A.51.51,0,0,1,74,49l8.51-.21A.33.33,0,0,1,82.76,49.2Z"/><path class="cls-15" d="M82.56,48.91c.16,0,.11.75.11.75h-9s0-.46.09-.48C74,49.05,80.29,49,82.56,48.91Z"/><polygon class="cls-14" points="82.69 52.29 82.69 54.16 76.37 53.98 76.37 52.55 82.69 52.29"/><polygon class="cls-15" points="82.6 52.37 82.6 53.09 76.45 53.09 76.45 52.64 82.6 52.37"/><rect class="cls-14" x="92.42" y="61.09" width="1.87" height="8.07" transform="translate(28.24 158.48) rotate(-90)"/><rect class="cls-15" x="93.02" y="60.68" width="0.68" height="7.89" transform="translate(28.73 157.98) rotate(-90)"/><polygon class="cls-14" points="97.39 60.66 97.39 62.52 89.33 62.31 89.33 60.84 97.39 60.66"/><polygon class="cls-15" points="97.3 60.76 97.3 61.44 89.42 61.44 89.42 60.93 97.3 60.76"/><path class="cls-14" d="M88.31,61v1a.34.34,0,0,1-.3.38l-8.42-.48c-.17,0-.49-.19-.49-.4v-.2a.51.51,0,0,1,.4-.46L88,60.6A.34.34,0,0,1,88.31,61Z"/><path class="cls-15" d="M88.11,60.69c.16,0,.11.75.11.75h-9s0-.46.09-.49C79.51,60.83,85.84,60.77,88.11,60.69Z"/><polygon class="cls-14" points="88.24 64.06 88.24 65.93 81.92 65.75 81.92 64.33 88.24 64.06"/><polygon class="cls-15" points="88.15 64.15 88.15 64.87 82 64.87 82 64.42 88.15 64.15"/><rect class="cls-14" x="98.2" y="63.24" width="1.87" height="8.07" transform="translate(31.86 166.41) rotate(-90)"/><rect class="cls-15" x="98.79" y="62.83" width="0.68" height="7.89" transform="translate(32.36 165.91) rotate(-90)"/><polygon class="cls-14" points="103.17 62.81 103.17 64.68 95.1 64.47 95.1 62.99 103.17 62.81"/><polygon class="cls-15" points="103.08 62.91 103.08 63.59 95.19 63.59 95.19 63.08 103.08 62.91"/><path class="cls-14" d="M94.09,63.13v1a.35.35,0,0,1-.31.38L85.37,64c-.17,0-.5-.19-.5-.4v-.2a.53.53,0,0,1,.41-.46l8.5-.21A.35.35,0,0,1,94.09,63.13Z"/><path class="cls-15" d="M93.88,62.84c.17,0,.12.75.12.75H84.94s0-.46.1-.48C85.29,63,91.61,62.92,93.88,62.84Z"/><polygon class="cls-14" points="94.02 66.22 94.02 68.09 87.7 67.91 87.7 66.48 94.02 66.22"/><polygon class="cls-15" points="93.93 66.3 93.93 67.02 87.77 67.02 87.77 66.57 93.93 66.3"/><rect class="cls-14" x="89.44" y="54.29" width="1.87" height="8.07" transform="translate(32.05 148.7) rotate(-90)"/><rect class="cls-15" x="90.04" y="53.89" width="0.68" height="7.89" transform="translate(32.55 148.21) rotate(-90)"/><polygon class="cls-14" points="84.87 54.88 84.87 56.75 92.94 56.54 92.94 55.07 84.87 54.88"/><polygon class="cls-15" points="84.96 54.98 84.96 55.66 92.85 55.66 92.85 55.15 84.96 54.98"/><polygon class="cls-14" points="85.92 57.37 85.92 59.24 77.85 59.03 77.85 57.56 85.92 57.37"/><polygon class="cls-15" points="85.83 57.48 85.83 58.16 77.94 58.16 77.94 57.65 85.83 57.48"/><polygon class="cls-14" points="97.02 58.84 97.02 60.71 88.95 60.5 88.95 59.03 97.02 58.84"/><polygon class="cls-15" points="96.92 58.95 96.92 59.63 89.04 59.63 89.04 59.12 96.92 58.95"/><polygon class="cls-14" points="87.16 66.43 87.16 67.92 80.73 67.75 80.73 66.58 87.16 66.43"/><polygon class="cls-15" points="87.09 66.52 87.09 67.06 80.8 67.06 80.8 66.65 87.09 66.52"/><path class="cls-14" d="M133,53.28v1a.35.35,0,0,0,.31.38l8.42-.48c.17,0,.49-.19.49-.4v-.2a.52.52,0,0,0-.41-.46l-8.5-.22A.35.35,0,0,0,133,53.28Z"/><path class="cls-15" d="M133.23,53c-.16,0-.11.75-.11.75h9a1.89,1.89,0,0,0-.09-.49C141.83,53.12,135.5,53.07,133.23,53Z"/><polygon class="cls-14" points="92.32 57.38 92.32 59.25 98.64 59.07 98.64 57.65 92.32 57.38"/><polygon class="cls-15" points="92.41 57.47 92.41 58.18 98.57 58.18 98.57 57.74 92.41 57.47"/><rect class="cls-14" x="79.02" y="51.8" width="1.87" height="8.07" transform="translate(24.13 135.79) rotate(-90)"/><rect class="cls-15" x="79.62" y="51.39" width="0.68" height="7.89" transform="translate(24.62 135.29) rotate(-90)"/><rect class="cls-14" x="93.07" y="43.53" width="1.87" height="8.07" transform="translate(46.44 141.57) rotate(-90)"/><rect class="cls-15" x="93.66" y="43.13" width="0.68" height="7.89" transform="translate(46.93 141.07) rotate(-90)"/><rect class="cls-14" x="84.35" y="43.42" width="1.87" height="8.07" transform="translate(37.83 132.73) rotate(-90)"/><rect class="cls-15" x="84.94" y="43.01" width="0.68" height="7.89" transform="translate(38.33 132.24) rotate(-90)"/><rect class="cls-14" x="82.19" y="47.5" width="1.87" height="8.07" transform="translate(31.6 134.66) rotate(-90)"/><rect class="cls-15" x="82.79" y="47.09" width="0.68" height="7.89" transform="translate(32.1 134.16) rotate(-90)"/><rect class="cls-14" x="91.71" y="47.5" width="1.87" height="8.07" transform="translate(41.11 144.17) rotate(-90)"/><rect class="cls-15" x="92.3" y="47.09" width="0.68" height="7.89" transform="translate(41.61 143.68) rotate(-90)"/><polygon class="cls-14" points="92.55 50.7 92.55 52.57 98.87 52.39 98.87 50.97 92.55 50.7"/><polygon class="cls-15" points="92.64 50.79 92.64 51.5 98.79 51.5 98.79 51.06 92.64 50.79"/><rect class="cls-14" x="114.32" y="49.31" width="1.87" height="8.07" transform="translate(61.91 168.6) rotate(-90)"/><rect class="cls-15" x="114.91" y="48.9" width="0.68" height="7.89" transform="translate(62.41 168.1) rotate(-90)"/><rect class="cls-14" x="123.47" y="49.31" width="1.87" height="8.07" transform="translate(71.06 177.74) rotate(-90)"/><rect class="cls-15" x="124.06" y="48.9" width="0.68" height="7.89" transform="translate(71.56 177.25) rotate(-90)"/><rect class="cls-14" x="132.62" y="49.31" width="1.87" height="8.07" transform="translate(80.21 186.89) rotate(-90)"/><rect class="cls-15" x="133.21" y="48.9" width="0.68" height="7.89" transform="translate(80.71 186.4) rotate(-90)"/><rect class="cls-14" x="109.81" y="51.26" width="1.87" height="8.07" transform="translate(55.45 166.03) rotate(-90)"/><rect class="cls-15" x="110.39" y="50.85" width="0.68" height="7.89" transform="translate(55.94 165.53) rotate(-90)"/><polygon class="cls-14" points="105.88 54.36 105.88 56.23 97.81 56.07 97.81 54.55 105.88 54.36"/><polygon class="cls-15" points="105.79 54.45 105.79 55.14 97.9 55.14 97.9 54.65 105.79 54.45"/><rect class="cls-14" x="118.7" y="51.26" width="1.87" height="8.07" transform="translate(64.34 174.93) rotate(-90)"/><rect class="cls-15" x="119.29" y="50.85" width="0.68" height="7.89" transform="translate(64.84 174.43) rotate(-90)"/><rect class="cls-14" x="136.49" y="51.26" width="1.87" height="8.07" transform="translate(82.13 192.72) rotate(-90)"/><rect class="cls-15" x="137.08" y="50.85" width="0.68" height="7.89" transform="translate(82.62 192.21) rotate(-90)"/><rect class="cls-14" x="127.6" y="51.26" width="1.87" height="8.07" transform="translate(73.24 183.82) rotate(-90)"/><rect class="cls-15" x="128.19" y="50.85" width="0.68" height="7.89" transform="translate(73.73 183.32) rotate(-90)"/><rect class="cls-14" x="111.39" y="43.67" width="1.87" height="8.07" transform="translate(64.62 160.03) rotate(-90)"/><rect class="cls-15" x="111.98" y="43.26" width="0.68" height="7.89" transform="translate(65.11 159.52) rotate(-90)"/><polygon class="cls-14" points="107.47 46.77 107.47 48.64 99.4 48.48 99.4 46.96 107.47 46.77"/><polygon class="cls-15" points="107.38 46.87 107.38 47.55 99.49 47.55 99.49 47.07 107.38 46.87"/><rect class="cls-14" x="120.29" y="43.67" width="1.87" height="8.07" transform="translate(73.52 168.92) rotate(-90)"/><rect class="cls-15" x="120.88" y="43.26" width="0.68" height="7.89" transform="translate(74.01 168.43) rotate(-90)"/><rect class="cls-14" x="138.08" y="43.67" width="1.87" height="8.07" transform="translate(91.31 186.71) rotate(-90)"/><rect class="cls-15" x="138.66" y="43.26" width="0.68" height="7.89" transform="translate(91.8 186.21) rotate(-90)"/><rect class="cls-14" x="129.18" y="43.67" width="1.87" height="8.07" transform="translate(82.41 177.82) rotate(-90)"/><rect class="cls-15" x="129.77" y="43.26" width="0.68" height="7.89" transform="translate(82.91 177.32) rotate(-90)"/></g><g id="truck"><rect class="cls-16" x="92.35" y="58.69" width="50.65" height="21.09"/><path class="cls-17" d="M173.38,79.84H143V50.14a2.31,2.31,0,0,1,2.31-2.32h17.58a2.32,2.32,0,0,1,2.27,1.86c1,5.11,2.85,12.75,3.68,16.19a2.31,2.31,0,0,0,2,1.75,5.19,5.19,0,0,1,2.35.75c2.45,1.55,3.52,5.42,2.37,9.74A2.33,2.33,0,0,1,173.38,79.84Z"/><rect class="cls-18" x="140.3" y="58.85" width="2.58" height="20.85"/><rect class="cls-18" x="115.7" y="53.06" width="3.4" height="49.88" transform="translate(39.39 195.4) rotate(-90)"/><rect class="cls-18" x="116.59" y="34.76" width="1.7" height="49.88" transform="translate(57.73 177.14) rotate(-90)"/><path class="cls-19" d="M165.57,76.71H145.74V68.88a1.34,1.34,0,0,1,1.39-1.29h17.28A1.63,1.63,0,0,1,166,68.86l1.16,6A1.58,1.58,0,0,1,165.57,76.71Z"/><path class="cls-20" d="M164.53,65.7H147.26A1.74,1.74,0,0,1,145.52,64V51.2a1.73,1.73,0,0,1,1.74-1.73H161.7a1.72,1.72,0,0,1,1.69,1.36l2.84,12.75A1.74,1.74,0,0,1,164.53,65.7Z"/><g id="window"><g class="cls-21"><rect class="cls-22" x="161.44" y="49.23" width="5.1" height="18.2"/></g></g><path class="cls-23" d="M98,81.06h-7.5a.62.62,0,0,1-.61-.76l.67-2.91H98Z"/><g id="wheel_3" data-name="wheel 3"><path class="cls-24" d="M96.49,81a6.38,6.38,0,0,1,12.72-1.07"/><circle class="cls-25" cx="102.86" cy="80.58" r="6.12"/><circle class="cls-26" cx="102.86" cy="80.61" r="3.44"/><circle class="cls-27" cx="102.86" cy="80.59" r="1.32"/></g><g id="wheel_1" data-name="wheel 1"><path class="cls-28" d="M151.77,79.67a6.4,6.4,0,0,1,12.69.11"/><circle class="cls-25" cx="158.11" cy="80.58" r="6.12"/><circle class="cls-26" cx="158.11" cy="80.61" r="3.44"/><circle class="cls-27" cx="158.11" cy="80.59" r="1.32"/></g><path class="cls-23" d="M169.56,81.05h6.82a.62.62,0,0,0,.6-.76l-.66-2.91h-7.44Z"/><ellipse class="cls-29" cx="171.4" cy="72.68" rx="1.53" ry="3.25"/><ellipse class="cls-2" cx="171.53" cy="72.77" rx="0.86" ry="1.98"/><g id="wheel_2" data-name="wheel 2"><path class="cls-24" d="M127.33,79.67a6.4,6.4,0,0,1,12.69.11"/><circle class="cls-25" cx="133.67" cy="80.58" r="6.12"/><circle class="cls-26" cx="133.67" cy="80.61" r="3.44"/><circle class="cls-27" cx="133.67" cy="80.59" r="1.32"/></g><g id="cube" class="cls-30"><polygon class="cls-31" points="127.55 71.22 123.04 72.83 123.04 67.62 127.55 66.01 127.55 71.22"/><polygon class="cls-31" points="119.05 70.47 123.04 72.83 123.04 67.62 119.05 65.26 119.05 70.47"/><polygon class="cls-31" points="127.55 65.94 123.04 67.64 119.05 65.19 123.64 63.63 127.55 65.94"/><line class="cls-31" x1="107.85" y1="70.25" x2="117.77" y2="70.25"/><line class="cls-31" x1="108.15" y1="65.26" x2="117.95" y2="65.26"/><line class="cls-31" x1="112.39" y1="67.92" x2="117.03" y2="67.92"/><line class="cls-31" x1="105.57" y1="67.92" x2="110.1" y2="67.92"/></g><rect class="cls-32" x="147.93" y="71.46" width="4.24" height="1.23" rx="0.34"/><g id="truck_fence" data-name="truck fence"><rect class="cls-33" x="92.35" y="56.78" width="50.68" height="1.98"/><rect class="cls-34" x="114.67" y="56.88" width="0.57" height="1.78"/><rect class="cls-34" x="139.02" y="56.88" width="0.57" height="1.78"/><rect class="cls-33" x="92.35" y="50.75" width="50.68" height="1.98"/><rect class="cls-34" x="114.67" y="50.85" width="0.57" height="1.78"/><rect class="cls-34" x="139.02" y="50.85" width="0.57" height="1.78"/><rect class="cls-33" x="92.35" y="45.08" width="50.68" height="1.98"/><rect class="cls-34" x="139.02" y="45.17" width="0.57" height="1.78"/><rect class="cls-34" x="114.67" y="45.17" width="0.57" height="1.78"/><rect class="cls-33" x="92.35" y="43.8" width="3.34" height="14.95"/><rect class="cls-34" x="94.44" y="43.86" width="1.14" height="14.78"/><rect class="cls-33" x="115.36" y="43.8" width="3.34" height="14.95"/><rect class="cls-34" x="117.44" y="43.85" width="1.14" height="14.78"/><rect class="cls-33" x="139.7" y="43.8" width="3.34" height="14.95"/><rect class="cls-34" x="141.74" y="43.88" width="1.14" height="14.78"/></g></g><g id="fence"><rect class="cls-34" x="14.74" y="80.66" width="45.16" height="2.36"/><rect class="cls-35" x="34.63" y="80.78" width="0.51" height="2.13"/><rect class="cls-35" x="56.33" y="80.78" width="0.51" height="2.13"/><rect class="cls-34" x="14.74" y="75.48" width="45.16" height="2.36"/><rect class="cls-35" x="34.63" y="75.6" width="0.51" height="2.13"/><rect class="cls-35" x="56.33" y="75.6" width="0.51" height="2.13"/><rect class="cls-34" x="14.74" y="70.31" width="45.16" height="2.36"/><rect class="cls-35" x="56.33" y="70.43" width="0.51" height="2.13"/><rect class="cls-35" x="34.63" y="70.43" width="0.51" height="2.13"/><rect class="cls-34" x="14.74" y="65.14" width="45.16" height="2.36"/><rect class="cls-35" x="56.33" y="65.25" width="0.51" height="2.13"/><rect class="cls-35" x="34.63" y="65.25" width="0.51" height="2.13"/><rect class="cls-34" x="14.74" y="62.91" width="2.98" height="21.96"/><rect class="cls-35" x="16.6" y="63" width="1.02" height="21.72"/><rect class="cls-34" x="35.25" y="62.91" width="2.98" height="21.96"/><rect class="cls-35" x="37.1" y="62.99" width="1.02" height="21.72"/><rect class="cls-34" x="56.93" y="62.91" width="2.98" height="21.96"/><rect class="cls-35" x="58.76" y="63.03" width="1.02" height="21.72"/></g><g id="factory_smoke" data-name="factory smoke"><path class="cls-36" d="M545.79,27.75c4.48,0,3.22-3.72,5.05-6.31,4.15-5.86,5.42-.46,9.48-3.07,5-3.24,8.4-13.62,2.07-12.17-9.47,2.16,3.79-6,1-6-10.3,0-15.75.52-22,0-31.93-2.61,7,4.15,6.32,8S540.51,11,536,13.86C530.1,17.56,538.49,27.75,545.79,27.75Z"/><path class="cls-37" d="M560.77,35.15c-3.8,0-3.14-6.47-4.69-8.66-3.52-5-5.17-7.67-5.6-11.72-.63-6,5.48-5,10.83-6.32,2.62-.64,12.75-10.54,14.34-11,9.38-2.71,23-1.76,27.69,2.25,6.31,5.41-15,16.6-27.78,21.47-3.87,1.47-11.07-1.3-11.19,3.25C564.1,34.88,564.83,35.15,560.77,35.15Z"/><path class="cls-38" d="M560.41,34.16c-2.71.16,1.87-8.8-.64-11.73-6.49-7.57-8.47-22-.81-22.19,2.46,0,30.36-3.93,32.84,0,3.32,5.28-26.19,13.82-27.88,18.59C562.69,22.32,563.47,34,560.41,34.16Z"/></g><g id="mill"><polygon class="cls-39" points="612 79.67 571.67 79.67 571.67 28.44 612 38.48 612 79.67"/><rect class="cls-39" x="535.96" y="46.35" width="50.67" height="33.31"/><g id="top_pipes" data-name="top pipes"><polygon class="cls-39" points="552.16 46.35 537.52 46.35 539.99 26.53 549.8 26.53 552.16 46.35"/><polygon class="cls-39" points="567.32 46.34 555.28 46.34 556.42 32.22 566.17 32.22 567.32 46.34"/><polygon class="cls-40" points="549.84 26.53 552.16 46.35 549.61 46.35 547.45 26.53 549.84 26.53"/><polygon class="cls-40" points="566.17 32.22 567.32 46.35 565.34 46.35 564.35 32.21 566.17 32.22"/><line class="cls-41" x1="539.24" y1="31.17" x2="550.32" y2="31.17"/><line class="cls-41" x1="539.06" y1="34.02" x2="550.69" y2="34.02"/><line class="cls-41" x1="556.06" y1="36.68" x2="566.53" y2="36.68"/><line class="cls-41" x1="555.81" y1="39.35" x2="566.78" y2="39.35"/><path class="cls-42" d="M548,31h2.35a.18.18,0,0,1,.18.18v0a.18.18,0,0,1-.18.18H548a0,0,0,0,1,0,0V31A0,0,0,0,1,548,31Z"/><path class="cls-42" d="M548.32,33.8h2.35a.18.18,0,0,1,.18.18v0a.18.18,0,0,1-.18.18h-2.35a0,0,0,0,1,0,0V33.8a0,0,0,0,1,0,0Z"/><path class="cls-42" d="M564.65,36.5h1.89a.18.18,0,0,1,.18.18v0a.18.18,0,0,1-.18.18h-1.89a0,0,0,0,1,0,0V36.5A0,0,0,0,1,564.65,36.5Z"/><path class="cls-42" d="M564.85,39.17h1.94a.18.18,0,0,1,.18.18v0a.18.18,0,0,1-.18.18h-1.94a0,0,0,0,1,0,0v-.36A0,0,0,0,1,564.85,39.17Z"/></g><g id="windows_btm" data-name="windows btm"><path class="cls-17" d="M541.44,60.11h4.8a0,0,0,0,1,0,0v4.8a.45.45,0,0,1-.45.45H541a0,0,0,0,1,0,0v-4.8A.45.45,0,0,1,541.44,60.11Z"/><path class="cls-43" d="M540.73,60.65h4.8a0,0,0,0,1,0,0v4.8a.45.45,0,0,1-.45.45h-4.8a0,0,0,0,1,0,0V61.1A.45.45,0,0,1,540.73,60.65Z"/><path class="cls-17" d="M552.07,60.11h4.8a0,0,0,0,1,0,0v4.81a.45.45,0,0,1-.45.45h-4.8a0,0,0,0,1,0,0V60.56A.45.45,0,0,1,552.07,60.11Z"/><path class="cls-43" d="M551.36,60.64h4.8a0,0,0,0,1,0,0v4.81a.45.45,0,0,1-.45.45h-4.8a0,0,0,0,1,0,0V61.09A.45.45,0,0,1,551.36,60.64Z"/><path class="cls-17" d="M552.07,70.55h4.8a0,0,0,0,1,0,0v4.79a.45.45,0,0,1-.45.45h-4.8a0,0,0,0,1,0,0V71A.45.45,0,0,1,552.07,70.55Z"/><path class="cls-43" d="M551.36,71.11h4.8a0,0,0,0,1,0,0v4.79a.45.45,0,0,1-.45.45h-4.8a0,0,0,0,1,0,0V71.56A.45.45,0,0,1,551.36,71.11Z"/><path class="cls-17" d="M541.44,70.56h4.8a0,0,0,0,1,0,0v4.79a.45.45,0,0,1-.45.45H541a0,0,0,0,1,0,0V71A.45.45,0,0,1,541.44,70.56Z"/><path class="cls-43" d="M540.73,71.12h4.8a0,0,0,0,1,0,0v4.79a.45.45,0,0,1-.45.45h-4.8a0,0,0,0,1,0,0V71.57A.45.45,0,0,1,540.73,71.12Z"/><path class="cls-17" d="M566.79,60.13h4.84a0,0,0,0,1,0,0v4.74a.45.45,0,0,1-.45.45h-4.84a0,0,0,0,1,0,0V60.58A.45.45,0,0,1,566.79,60.13Z"/><path class="cls-43" d="M566.13,60.73H571a0,0,0,0,1,0,0v4.74a.45.45,0,0,1-.45.45h-4.84a0,0,0,0,1,0,0V61.19A.45.45,0,0,1,566.13,60.73Z"/><path class="cls-17" d="M577.64,60.13h4.77a0,0,0,0,1,0,0v4.81a.45.45,0,0,1-.45.45h-4.77a0,0,0,0,1,0,0V60.58A.45.45,0,0,1,577.64,60.13Z"/><path class="cls-43" d="M576.91,60.66h4.77a0,0,0,0,1,0,0v4.81a.45.45,0,0,1-.45.45h-4.77a0,0,0,0,1,0,0V61.11A.45.45,0,0,1,576.91,60.66Z"/><path class="cls-17" d="M577.64,70.59h4.77a0,0,0,0,1,0,0v4.87a.45.45,0,0,1-.45.45h-4.77a0,0,0,0,1,0,0V71A.45.45,0,0,1,577.64,70.59Z"/><path class="cls-43" d="M576.91,71.07h4.77a0,0,0,0,1,0,0v4.87a.45.45,0,0,1-.45.45h-4.77a0,0,0,0,1,0,0V71.52A.45.45,0,0,1,576.91,71.07Z"/><path class="cls-17" d="M566.79,70.65h4.84a0,0,0,0,1,0,0v4.87a.45.45,0,0,1-.45.45h-4.84a0,0,0,0,1,0,0V71.1A.45.45,0,0,1,566.79,70.65Z"/><path class="cls-43" d="M566.13,71.12H571a0,0,0,0,1,0,0V76a.45.45,0,0,1-.45.45h-4.84a0,0,0,0,1,0,0V71.57A.45.45,0,0,1,566.13,71.12Z"/></g><rect class="cls-40" x="568.93" y="61.94" width="33.29" height="2.16" transform="translate(522.55 648.59) rotate(-90)"/><polygon class="cls-40" points="612 38.48 612 79.67 608.42 79.67 608.42 37.59 612 38.48"/><g id="window_top" data-name="window top"><rect class="cls-44" x="537.94" y="51.35" width="44.52" height="4.72"/><rect class="cls-45" x="541.88" y="51.35" width="1.01" height="4.72"/><rect class="cls-45" x="546.83" y="51.35" width="1.01" height="4.72"/><rect class="cls-45" x="551.78" y="51.35" width="1.01" height="4.72"/><rect class="cls-45" x="556.72" y="51.35" width="1.01" height="4.72"/><rect class="cls-45" x="561.67" y="51.35" width="1.01" height="4.72"/><rect class="cls-45" x="566.62" y="51.35" width="1.01" height="4.72"/><rect class="cls-45" x="571.56" y="51.35" width="1.01" height="4.72"/><rect class="cls-45" x="576.51" y="51.35" width="1.01" height="4.72"/><rect class="cls-45" x="581.46" y="51.35" width="1.01" height="4.72"/></g><g id="stair"><polygon class="cls-46" points="595.6 79.67 594.01 79.67 594.01 34 595.6 34.4 595.6 79.67"/><polygon class="cls-46" points="603.36 79.67 601.77 79.67 601.77 35.94 603.36 36.33 603.36 79.67"/><g id="stair-2" data-name="stair"><rect class="cls-46" x="594.01" y="38.74" width="9.34" height="1.08"/><rect class="cls-46" x="594.01" y="73.58" width="9.34" height="1.08"/><rect class="cls-46" x="594.01" y="70.09" width="9.34" height="1.08"/><rect class="cls-46" x="594.01" y="66.61" width="9.34" height="1.08"/><rect class="cls-46" x="594.01" y="63.13" width="9.34" height="1.08"/><rect class="cls-46" x="594.01" y="59.64" width="9.34" height="1.08"/><rect class="cls-46" x="594.01" y="56.16" width="9.34" height="1.08"/><rect class="cls-46" x="594.01" y="52.68" width="9.34" height="1.08"/><rect class="cls-46" x="594.01" y="49.19" width="9.34" height="1.08"/><rect class="cls-46" x="594.01" y="45.71" width="9.34" height="1.08"/><rect class="cls-46" x="594.01" y="42.23" width="9.34" height="1.08"/><rect class="cls-46" x="594.01" y="77.06" width="9.34" height="1.08"/></g></g></g></g><g id="Layer_26" data-name="Layer 26"><path class="cls-47" d="M632,8V92H8V8H632m8-8H0V100H640V0Z"/><path class="cls-47" d="M314.61,42.43a2.94,2.94,0,0,0-.7-.43,1.9,1.9,0,0,0-.68-.13,1.15,1.15,0,0,0-.69.19.65.65,0,0,0-.26.52.53.53,0,0,0,.13.36,1.16,1.16,0,0,0,.35.25,2.67,2.67,0,0,0,.48.18l.54.17a3.27,3.27,0,0,1,1.54.94,2.3,2.3,0,0,1,.49,1.54,3,3,0,0,1-.21,1.15,2.34,2.34,0,0,1-.63.89,3,3,0,0,1-1,.57,4.37,4.37,0,0,1-1.36.2,5,5,0,0,1-2.92-.93l.93-1.74a3.82,3.82,0,0,0,1,.64,2.24,2.24,0,0,0,.93.21,1.13,1.13,0,0,0,.79-.25.74.74,0,0,0,.26-.55.79.79,0,0,0-.07-.32.64.64,0,0,0-.22-.25,1.84,1.84,0,0,0-.4-.22l-.6-.22c-.28-.09-.55-.18-.82-.29a2.84,2.84,0,0,1-.72-.42,2,2,0,0,1-.5-.67,2.34,2.34,0,0,1-.2-1,2.9,2.9,0,0,1,.21-1.12,2.28,2.28,0,0,1,.57-.85,2.59,2.59,0,0,1,.9-.56,3.51,3.51,0,0,1,1.2-.2,5.3,5.3,0,0,1,1.28.17,5.94,5.94,0,0,1,1.29.5Z"/><path class="cls-47" d="M322.62,40.3v4.52c0,.24,0,.49,0,.74a2.18,2.18,0,0,0,.17.69,1.15,1.15,0,0,0,.43.5,1.54,1.54,0,0,0,.84.19,1.5,1.5,0,0,0,.83-.19,1.22,1.22,0,0,0,.43-.5,1.75,1.75,0,0,0,.17-.69c0-.25,0-.5,0-.74V40.3h2.15v4.81a3.89,3.89,0,0,1-.89,2.83,4.62,4.62,0,0,1-5.45,0,3.84,3.84,0,0,1-.89-2.83V40.3Z"/><path class="cls-47" d="M336.78,44h4.28a10.93,10.93,0,0,1-.06,1.2,4,4,0,0,1-.22,1,4.1,4.1,0,0,1-.62,1.15,3.85,3.85,0,0,1-.93.83,4.32,4.32,0,0,1-1.18.52,5.29,5.29,0,0,1-1.34.17,4.56,4.56,0,0,1-1.76-.32,3.91,3.91,0,0,1-1.37-.89,4.12,4.12,0,0,1-.9-1.39,5.14,5.14,0,0,1,0-3.57,3.82,3.82,0,0,1,.89-1.38,4,4,0,0,1,1.39-.89,5,5,0,0,1,1.82-.32,4.59,4.59,0,0,1,2.28.56,4,4,0,0,1,1.55,1.74l-2.05.85a2.14,2.14,0,0,0-.74-1,1.86,1.86,0,0,0-1-.3,2,2,0,0,0-1.56.7,2.63,2.63,0,0,0-.44.81,3.23,3.23,0,0,0-.16,1.06,3.41,3.41,0,0,0,.14,1,2.23,2.23,0,0,0,.41.78,1.82,1.82,0,0,0,.68.51,2.33,2.33,0,0,0,.95.18,2.56,2.56,0,0,0,.62-.07,1.67,1.67,0,0,0,.53-.23,1.27,1.27,0,0,0,.39-.41,1.81,1.81,0,0,0,.21-.62h-1.77Z"/><path class="cls-47" d="M350.5,47.16h-3.08l-.5,1.44h-2.3l3.16-8.3h2.36l3.15,8.3H351Zm-.57-1.64-1-2.76-1,2.76Z"/><path class="cls-47" d="M364.44,48.6h-2.68l-2.06-3.19V48.6h-2.16V40.3h3.36a3.19,3.19,0,0,1,1.21.21,2.24,2.24,0,0,1,.85.55,2.26,2.26,0,0,1,.51.82,2.94,2.94,0,0,1,.17,1,2.38,2.38,0,0,1-.46,1.53,2.24,2.24,0,0,1-1.35.8ZM359.7,44h.41a1.63,1.63,0,0,0,1-.26,1,1,0,0,0,0-1.52,1.57,1.57,0,0,0-1-.26h-.41Z"/><path class="cls-47" d="M372.58,44h4.28a10.93,10.93,0,0,1-.06,1.2,4.43,4.43,0,0,1-.22,1,3.89,3.89,0,0,1-.63,1.15,3.51,3.51,0,0,1-.93.83,4.13,4.13,0,0,1-1.17.52,5.29,5.29,0,0,1-1.34.17,4.57,4.57,0,0,1-1.77-.32,4,4,0,0,1-1.37-.89,4.09,4.09,0,0,1-.89-1.39,5.14,5.14,0,0,1,0-3.57,3.69,3.69,0,0,1,.89-1.38,4,4,0,0,1,1.39-.89,5,5,0,0,1,1.82-.32,4.52,4.52,0,0,1,2.27.56,3.89,3.89,0,0,1,1.55,1.74l-2,.85a2.14,2.14,0,0,0-.74-1,1.89,1.89,0,0,0-1-.3,1.92,1.92,0,0,0-1.56.7,2.44,2.44,0,0,0-.44.81,3.23,3.23,0,0,0-.16,1.06,3.1,3.1,0,0,0,.14,1,2.23,2.23,0,0,0,.41.78,1.82,1.82,0,0,0,.68.51,2.33,2.33,0,0,0,1,.18,2.43,2.43,0,0,0,.61-.07,1.63,1.63,0,0,0,.54-.23,1.27,1.27,0,0,0,.39-.41,1.81,1.81,0,0,0,.21-.62h-1.77Z"/><path class="cls-47" d="M386.3,47.16h-3.08l-.5,1.44h-2.3l3.16-8.3h2.36l3.15,8.3h-2.3Zm-.57-1.64-1-2.76-1,2.76Z"/><path class="cls-47" d="M395.5,40.3v8.3h-2.16V40.3Z"/><path class="cls-47" d="M400.54,48.6V40.3h2.16l4,5.08V40.3h2.15v8.3h-2.15l-4-5.07V48.6Z"/><polyline class="cls-48" points="276.49 75.21 278.34 78.37 246.2 79 238.97 66.78"/><polyline class="cls-48" points="275.35 27.44 278.34 22.22 294.79 49.96 278.34 78.37 276.49 75.21"/><polyline class="cls-48" points="273.65 30.42 262.09 50.61 229.39 50.61 245.29 22.22 278.34 22.22 275.34 27.46"/><polyline class="cls-48" points="274.78 72.29 262.09 50.61 273.65 30.42"/><polyline class="cls-48" points="237.33 64.02 229.39 50.61 262.09 50.61 274.78 72.29"/><path class="cls-49" d="M266.08,25.42c8.44-1.6,16.07,6.69,14,13.43m-2.65.95c1.6-5.69-4.53-12.72-11.26-11.41m-.12-3c-3.3.4-2.15,3.68.12,3M277.46,39.8c-.76,2.19,1.94,2,2.65-.95"/><path class="cls-50" d="M231.19,54c-5.38,12.17,5.63,15.76,13.15,10.38m-.64-2.75c-5.78,4.52-12.94,3-10.55-4.41m10.55,4.41c1.84-1.7,3.4,1,.64,2.75"/><path class="cls-50" d="M264.43,75.79c9.28,4.74,19.56-4.53,16.84-11m-2.74-.67c2.18,5.49-6.44,12.87-13.3,8.83m-.8,2.87c-3.12-1.14-1.25-4.08.8-2.87m13.3-8.83c-1-2.1,1.72-2.19,2.74.67"/><polygon class="cls-49" points="238.52 40.61 240.49 40.61 249.44 23.79 247.65 23.79 238.52 40.61"/><polygon class="cls-49" points="244.79 36.67 246.69 36.67 253.61 23.79 251.66 23.79 244.79 36.67"/><polygon class="cls-49" points="250.34 33.99 252.31 33.99 257.67 23.97 255.88 23.97 250.34 33.99"/><circle class="cls-51" cx="260" cy="54.78" r="0.96"/><circle class="cls-51" cx="261.93" cy="58" r="0.96"/><circle class="cls-51" cx="263.86" cy="61.21" r="0.96"/><circle class="cls-51" cx="265.79" cy="64.43" r="0.96"/><path class="cls-52" d="M290.22,52l-1,1.72a.31.31,0,0,1-.43.11l-1-1.62c-.17-.36-.17-.36-.09-.48l1-1.72a.31.31,0,0,1,.43-.11l1,1.67C290.25,51.89,290.31,51.89,290.22,52Z"/><path class="cls-52" d="M286.1,59l-1,1.72a.31.31,0,0,1-.43.11l-1-1.62c-.18-.36-.18-.36-.1-.48l1-1.72a.31.31,0,0,1,.43-.11l1,1.67C286.13,58.87,286.19,58.87,286.1,59Z"/><path class="cls-52" d="M288.25,55.26l-1,1.72a.31.31,0,0,1-.43.11l-1-1.62c-.18-.36-.18-.36-.1-.48l1-1.72a.31.31,0,0,1,.43-.11l1,1.68C288.28,55.11,288.34,55.12,288.25,55.26Z"/><line class="cls-53" x1="264.74" y1="64.51" x2="251.86" y2="64.69"/><line class="cls-53" x1="260.09" y1="78.83" x2="251.86" y2="64.69"/><line class="cls-53" x1="262.95" y1="58.06" x2="266.53" y2="58.06"/><line class="cls-53" x1="275.22" y1="42.76" x2="266.55" y2="58.06"/><line class="cls-53" x1="284.04" y1="57.76" x2="275.22" y2="42.76"/><line class="cls-53" x1="286.26" y1="53.99" x2="282.37" y2="47.24"/><line class="cls-53" x1="287.57" y1="37.75" x2="282.37" y2="47.24"/><line class="cls-53" x1="292.49" y1="46.07" x2="289.8" y2="50.73"/><line class="cls-53" x1="260.72" y1="32.74" x2="250.44" y2="50.55"/><line class="cls-53" x1="270.02" y1="28.8" x2="257.42" y2="50.55"/><line class="cls-53" x1="273.96" y1="22.18" x2="271.99" y2="25.58"/><line class="cls-53" x1="250.51" y1="50.64" x2="256.96" y2="61.38"/><line class="cls-53" x1="257.5" y1="50.64" x2="259.46" y2="53.86"/><line class="cls-53" x1="262.86" y1="61.38" x2="257.14" y2="61.38"/><line class="cls-53" x1="253.2" y1="32.74" x2="260.72" y2="32.74"/><path class="cls-54" d="M320.6,56.7a.49.49,0,0,1,.34-.12.5.5,0,0,1,.35.12.43.43,0,0,1,0,.62.5.5,0,0,1-.35.12.49.49,0,0,1-.34-.12.43.43,0,0,1,0-.62Zm.69,1.54v4.21h-.7V58.24Z"/><path class="cls-54" d="M328,57.46a2.32,2.32,0,0,1,.86,1.27h-.74a1.64,1.64,0,0,0-.64-.79,2.06,2.06,0,0,0-2,0,1.87,1.87,0,0,0-.69.73,2.47,2.47,0,0,0-.25,1.12,2.4,2.4,0,0,0,.26,1.14,1.7,1.7,0,0,0,.7.73,2,2,0,0,0,1,.26,1.88,1.88,0,0,0,.91-.22A1.73,1.73,0,0,0,328,61a2,2,0,0,0,.32-1h-2.12v-.52H329v.64a2.76,2.76,0,0,1-.4,1.17,2.39,2.39,0,0,1-.88.82,2.58,2.58,0,0,1-1.28.31,2.66,2.66,0,0,1-1.37-.35,2.41,2.41,0,0,1-.93-1,3.18,3.18,0,0,1,0-2.86,2.41,2.41,0,0,1,.93-1,2.56,2.56,0,0,1,1.37-.35A2.63,2.63,0,0,1,328,57.46Z"/><path class="cls-54" d="M332.12,57.62v1.84h2.05V60h-2.05v1.88h2.28v.57h-3v-5.4h3v.57Z"/><path class="cls-54" d="M342.23,57.14v5.31h-.69V58.21l-1.7,4.24h-.62l-1.7-4.22v4.22h-.69V57.14h.83l1.88,4.46,1.86-4.46Z"/><path class="cls-54" d="M351.74,60.13a1.26,1.26,0,0,1,.31.86,1.35,1.35,0,0,1-.45,1.06,1.9,1.9,0,0,1-1.29.4h-2v-5.4h2a1.84,1.84,0,0,1,1.23.36,1.39,1.39,0,0,1,.14,1.83,1.28,1.28,0,0,1-.71.41A1.35,1.35,0,0,1,351.74,60.13ZM349,59.41h1.16a1.22,1.22,0,0,0,.79-.23.85.85,0,0,0,.27-.67.83.83,0,0,0-.27-.65,1.2,1.2,0,0,0-.82-.24H349Zm2,2.2a.87.87,0,0,0,.3-.71.86.86,0,0,0-.31-.71,1.3,1.3,0,0,0-.86-.26H349v1.93h1.18A1.29,1.29,0,0,0,351,61.61Z"/><path class="cls-54" d="M355.15,57.05v5.4h-.69v-5.4Z"/><path class="cls-54" d="M361.11,57.05v.57h-1.53v4.83h-.69V57.62h-1.53v-.57Z"/><path class="cls-54" d="M366.56,61.76a1.37,1.37,0,0,1-.56.53,1.88,1.88,0,0,1-.93.21,2.24,2.24,0,0,1-.95-.2,1.59,1.59,0,0,1-.66-.53,1.46,1.46,0,0,1-.29-.78h.74a1.16,1.16,0,0,0,.16.45,1.1,1.1,0,0,0,.38.36,1.27,1.27,0,0,0,.6.14.94.94,0,0,0,.7-.24.93.93,0,0,0,.08-1.17,1.24,1.24,0,0,0-.43-.32,5.43,5.43,0,0,0-.69-.26,6.74,6.74,0,0,1-.82-.32,1.42,1.42,0,0,1-.53-.45,1.31,1.31,0,0,1-.22-.78,1.37,1.37,0,0,1,.21-.75,1.28,1.28,0,0,1,.58-.49,2,2,0,0,1,.89-.18,1.9,1.9,0,0,1,1.26.39,1.42,1.42,0,0,1,.55,1h-.75a1,1,0,0,0-1.06-.81,1,1,0,0,0-.67.22.76.76,0,0,0-.26.61.77.77,0,0,0,.17.51,1.27,1.27,0,0,0,.41.31c.16.07.39.15.67.25a6.58,6.58,0,0,1,.84.32,1.39,1.39,0,0,1,.54.46,1.37,1.37,0,0,1,.22.82A1.48,1.48,0,0,1,366.56,61.76Z"/><path class="cls-54" d="M376.66,57.46a2.32,2.32,0,0,1,.86,1.27h-.74a1.68,1.68,0,0,0-.63-.79,2,2,0,0,0-1.07-.29,1.91,1.91,0,0,0-1,.25,1.87,1.87,0,0,0-.69.73,2.47,2.47,0,0,0-.25,1.12,2.4,2.4,0,0,0,.26,1.14,1.7,1.7,0,0,0,.7.73,2,2,0,0,0,1,.26,1.88,1.88,0,0,0,.91-.22,1.83,1.83,0,0,0,.68-.62,2.1,2.1,0,0,0,.31-1h-2.12v-.52h2.71v.64a2.63,2.63,0,0,1-.4,1.17,2.39,2.39,0,0,1-.88.82,2.58,2.58,0,0,1-1.28.31,2.68,2.68,0,0,1-1.37-.35,2.41,2.41,0,0,1-.93-1,3.18,3.18,0,0,1,0-2.86,2.41,2.41,0,0,1,.93-1,2.9,2.9,0,0,1,3,.11Z"/><path class="cls-54" d="M383.94,57.33a2.49,2.49,0,0,1,.94,1,2.9,2.9,0,0,1,.35,1.42,2.94,2.94,0,0,1-.35,1.43,2.47,2.47,0,0,1-.94,1,2.57,2.57,0,0,1-1.35.36,2.61,2.61,0,0,1-1.36-.36,2.36,2.36,0,0,1-1-1,2.94,2.94,0,0,1-.35-1.43,2.9,2.9,0,0,1,.35-1.42,2.39,2.39,0,0,1,1-1,2.7,2.7,0,0,1,1.36-.35A2.66,2.66,0,0,1,383.94,57.33Zm-2.35.56a1.68,1.68,0,0,0-.69.73,2.63,2.63,0,0,0,0,2.24,1.71,1.71,0,0,0,.69.74,2,2,0,0,0,2,0,1.9,1.9,0,0,0,.69-.74,2.63,2.63,0,0,0,0-2.24,1.8,1.8,0,0,0-.69-.73,2,2,0,0,0-2,0Z"/><path class="cls-54" d="M390.86,61.2h-2.37L388,62.45h-.75l2-5.3h.78l2,5.3h-.75Zm-.2-.55-1-2.72-1,2.72Z"/></g></svg>