<svg xmlns="http://www.w3.org/2000/svg" viewBox="0 0 210 200"><defs><style>.cls-1{fill:#fff;}.cls-2{fill:#ea526f;}.cls-3,.cls-4,.cls-6,.cls-7{fill:none;}.cls-3,.cls-4,.cls-5,.cls-6{stroke:#000;}.cls-3,.cls-4,.cls-5,.cls-6,.cls-7{stroke-miterlimit:10;}.cls-3{stroke-width:0.5px;}.cls-5{fill:#25ced1;}.cls-5,.cls-6{stroke-width:0.25px;}.cls-6{stroke-linecap:round;}.cls-7{stroke:#032624;}</style></defs><g id="SAFETY"><rect class="cls-1" x="4" y="4" width="202" height="192"/><path class="cls-2" d="M202,8V192H8V8H202m8-8H0V200H210V0Z"/></g><g id="Layer_14" data-name="Layer 14"><circle class="cls-3" cx="103.98" cy="86.62" r="27.47"/><path class="cls-4" d="M100.07,148.63a25.38,25.38,0,0,1-19.51-34.41"/><path class="cls-4" d="M127.69,114.22a25.38,25.38,0,0,1-19.5,34.41"/><circle class="cls-3" cx="134.62" cy="140.8" r="27.47"/><circle class="cls-3" cx="73.64" cy="140.8" r="27.47"/><path class="cls-3" d="M48.91,153.71c-4.25-9.89-10.89-40.38,18.76-50.5-1.58-24.59,10.2-42.7,33.93-44"/><path class="cls-3" d="M159.41,153.71c4.25-9.89,10.89-40.38-18.76-50.5,1.58-24.59-10.19-42.7-33.93-44"/><path class="cls-3" d="M50.47,156.09c6.67,8.44,30.32,28.79,53.34,7.53,20.88,13.1,42.41,11.36,54.81-8.92"/><path class="cls-5" d="M122.84,106.39c-9.66-9.66-25.35-12.37-37.73.3a50.44,50.44,0,0,1-5.43-6.94c16-16.3,39.84-10.26,48.6-.3A49.41,49.41,0,0,1,122.84,106.39Z"/><path class="cls-5" d="M80.59,114.39c-3.35,13.39,2.44,28.4,19.86,32.54a51.08,51.08,0,0,1-3.2,8.32c-22.43-5.4-29.58-29.2-25.5-42A49.32,49.32,0,0,1,80.59,114.39Z"/><path class="cls-5" d="M108.21,147.69c13.32-3.59,23.61-16,18.74-33.19a50.89,50.89,0,0,1,8.82-1.26C142,135.46,124.68,153.3,111.55,156A49.08,49.08,0,0,1,108.21,147.69Z"/><path class="cls-6" d="M83.5,100.42a15,15,0,0,1,9.31-5.71"/></g><g id="Layer_23" data-name="Layer 23"><path class="cls-7" d="M74.11,27.11a.27.27,0,0,1-.26.17.59.59,0,0,1-.34-.18,3.56,3.56,0,0,0-.55-.41,4.83,4.83,0,0,0-.88-.42,4.42,4.42,0,0,0-2.66,0,2.9,2.9,0,0,0-1,.6,2.47,2.47,0,0,0-.6.88,2.73,2.73,0,0,0-.21,1A2.09,2.09,0,0,0,67.94,30a2.65,2.65,0,0,0,.8.8,5.5,5.5,0,0,0,1.14.56c.42.15.86.3,1.31.44s.88.31,1.3.49a4.72,4.72,0,0,1,1.14.66,3.26,3.26,0,0,1,.81,1,3.15,3.15,0,0,1,.3,1.45,4.68,4.68,0,0,1-.3,1.68,3.92,3.92,0,0,1-.89,1.36,4.25,4.25,0,0,1-1.42.92,5.22,5.22,0,0,1-1.92.33,5.43,5.43,0,0,1-2.41-.49A5.67,5.67,0,0,1,66,37.85l.28-.44a.35.35,0,0,1,.28-.15.39.39,0,0,1,.23.12l.34.3.48.38a5.58,5.58,0,0,0,.65.38,5.27,5.27,0,0,0,.85.29,4.57,4.57,0,0,0,1.1.12,4.14,4.14,0,0,0,1.5-.25,3.14,3.14,0,0,0,1.11-.7,2.85,2.85,0,0,0,.7-1,3.49,3.49,0,0,0,.24-1.3,2.29,2.29,0,0,0-.3-1.23,2.61,2.61,0,0,0-.81-.81A5,5,0,0,0,71.54,33l-1.3-.43a13.52,13.52,0,0,1-1.31-.47,4.42,4.42,0,0,1-1.14-.66,3.06,3.06,0,0,1-.8-1,3.26,3.26,0,0,1-.31-1.52A3.6,3.6,0,0,1,67,27.51a3.28,3.28,0,0,1,.79-1.16A3.83,3.83,0,0,1,69,25.54a4.55,4.55,0,0,1,1.75-.31,5.32,5.32,0,0,1,2,.35,4.79,4.79,0,0,1,1.6,1.07Z"/><path class="cls-7" d="M90.36,39.54h-.79a.35.35,0,0,1-.23-.07.48.48,0,0,1-.14-.2l-1.67-4.11h-7l-1.66,4.11a.38.38,0,0,1-.14.19.35.35,0,0,1-.24.08h-.78l5.79-14.15h1ZM80.89,34.4h6.34l-2.89-7.15c0-.11-.09-.24-.14-.38s-.09-.3-.14-.46c0,.16-.09.31-.14.46s-.09.27-.14.39Z"/><path class="cls-7" d="M103.08,25.39v.85H95.63v5.95h6.45V33H95.63v6.5h-1V25.39Z"/><path class="cls-7" d="M116.52,25.39v.85h-7.45V32h6.2v.83h-6.2v5.9h7.45v.85H108V25.39Z"/><path class="cls-7" d="M131.1,25.39v.87h-5V39.54h-1V26.26h-5v-.87Z"/><path class="cls-7" d="M140,33.7v5.84h-1V33.7l-5.23-8.31h.89a.36.36,0,0,1,.22.07.59.59,0,0,1,.17.18l4.05,6.5c.09.16.17.3.24.45a3.93,3.93,0,0,1,.18.43,3.93,3.93,0,0,1,.18-.43c.07-.15.15-.29.24-.45l4-6.5a.65.65,0,0,1,.15-.18.42.42,0,0,1,.23-.07h.9Z"/></g></svg>