<svg xmlns="http://www.w3.org/2000/svg" viewBox="0 0 210 200"><defs><style>.cls-1,.cls-4{fill:#fff;}.cls-2,.cls-5{fill:#25ced1;}.cls-3,.cls-9{fill:none;}.cls-3,.cls-4,.cls-5,.cls-6,.cls-7,.cls-8{stroke:#000;}.cls-3,.cls-4,.cls-5,.cls-6,.cls-7,.cls-8,.cls-9{stroke-miterlimit:10;}.cls-3,.cls-4,.cls-7,.cls-8{stroke-width:0.5px;}.cls-5,.cls-6{stroke-width:0.25px;}.cls-6{fill:#ea526f;}.cls-7{fill:#92e7e8;}.cls-8{fill:#ffe9ef;}.cls-9{stroke:#032624;}</style></defs><g id="MODEL"><rect class="cls-1" x="4" y="4" width="202" height="192"/><path class="cls-2" d="M202,8V192H8V8H202m8-8H0V200H210V0Z"/></g><g id="Layer_17" data-name="Layer 17"><rect class="cls-3" x="36" y="73.18" width="139" height="82.65" rx="12.31"/><circle class="cls-1" cx="105.5" cy="85.5" r="32.5"/><circle class="cls-4" cx="105.5" cy="85.5" r="29"/><line class="cls-3" x1="121.05" y1="121.25" x2="99.95" y2="106.75"/><line class="cls-3" x1="126.71" y1="121.79" x2="147.02" y2="106.21"/><line class="cls-3" x1="73.98" y1="121.79" x2="94.29" y2="106.21"/><circle class="cls-5" cx="123.68" cy="123.89" r="3.95"/><circle class="cls-6" cx="150.05" cy="104.11" r="3.95"/><circle class="cls-5" cx="70.95" cy="123.89" r="3.95"/><circle class="cls-6" cx="97.32" cy="104.11" r="3.95"/><rect class="cls-3" x="72.37" y="174.5" width="66" height="7" rx="3.5"/><polyline class="cls-3" points="128.12 174.63 115.63 167.5 115.63 155.5"/><polyline class="cls-3" points="82.63 174.63 95.12 167.5 95.12 155.5"/><path class="cls-7" d="M35.75,139.94h139.5a0,0,0,0,1,0,0v2A14.05,14.05,0,0,1,161.2,156H49.8a14.05,14.05,0,0,1-14.05-14.05v-2A0,0,0,0,1,35.75,139.94Z"/><polyline class="cls-8" points="134.5 85.5 105.5 85.5 86.5 63.5"/><path class="cls-8" d="M86.5,63.5c23-17,48,0,48,22"/></g><g id="Layer_23" data-name="Layer 23"><path class="cls-9" d="M46.32,33c0-.1.08-.21.13-.31a2.75,2.75,0,0,1,.14-.3l5.56-9.83a.4.4,0,0,1,.16-.16.65.65,0,0,1,.22,0h.71V36.54h-.9V24.48c0-.17,0-.35,0-.55L46.8,33.82a.43.43,0,0,1-.4.26h-.16a.44.44,0,0,1-.4-.26l-5.72-9.9a5.55,5.55,0,0,1,0,.56V36.54h-.89V22.39H40a.75.75,0,0,1,.23,0,.4.4,0,0,1,.16.16l5.71,9.84A4,4,0,0,1,46.32,33Z"/><path class="cls-9" d="M72.06,29.46a8.51,8.51,0,0,1-.49,3,6.69,6.69,0,0,1-1.38,2.28,6.13,6.13,0,0,1-2.13,1.46,7.62,7.62,0,0,1-5.48,0,6.13,6.13,0,0,1-2.13-1.46,6.69,6.69,0,0,1-1.38-2.28,9.07,9.07,0,0,1,0-5.94,6.69,6.69,0,0,1,1.38-2.28,6.16,6.16,0,0,1,2.13-1.47,7.14,7.14,0,0,1,2.73-.52,7,7,0,0,1,2.75.52,6,6,0,0,1,2.13,1.46,6.84,6.84,0,0,1,1.38,2.29A8.47,8.47,0,0,1,72.06,29.46Zm-1.06,0a8.21,8.21,0,0,0-.41-2.66,5.86,5.86,0,0,0-1.15-2,5.07,5.07,0,0,0-1.8-1.25,6,6,0,0,0-2.33-.44,5.89,5.89,0,0,0-2.3.44,5.07,5.07,0,0,0-1.8,1.25,5.59,5.59,0,0,0-1.17,2,8.67,8.67,0,0,0,0,5.33,5.46,5.46,0,0,0,1.17,2A4.83,4.83,0,0,0,63,35.37a5.89,5.89,0,0,0,2.3.43,6,6,0,0,0,2.33-.43,4.83,4.83,0,0,0,1.8-1.25,5.72,5.72,0,0,0,1.15-2A8.18,8.18,0,0,0,71,29.46Z"/><path class="cls-9" d="M89.3,29.46a8.26,8.26,0,0,1-.49,2.95,6.38,6.38,0,0,1-1.38,2.23,5.76,5.76,0,0,1-2.13,1.41,7.36,7.36,0,0,1-2.75.49H77.39V22.39h5.16a7.56,7.56,0,0,1,2.75.49,6,6,0,0,1,2.13,1.41,6.56,6.56,0,0,1,1.38,2.23A8.32,8.32,0,0,1,89.3,29.46Zm-1.06,0a8,8,0,0,0-.41-2.64,5.68,5.68,0,0,0-1.15-2,5,5,0,0,0-1.8-1.22,6.23,6.23,0,0,0-2.33-.42H78.42V35.71h4.13a6.23,6.23,0,0,0,2.33-.42,4.87,4.87,0,0,0,1.8-1.22,5.5,5.5,0,0,0,1.15-2A8,8,0,0,0,88.24,29.46Z"/><path class="cls-9" d="M103.07,22.39v.85H95.62V29h6.2v.83h-6.2v5.9h7.45v.85H94.59V22.39Z"/><path class="cls-9" d="M109.43,35.67h6.71v.87h-7.73V22.39h1Z"/><path class="cls-9" d="M121.66,35.67h6.71v.87h-7.73V22.39h1Z"/><path class="cls-9" d="M134.27,36.54h-1V22.39h1Z"/><path class="cls-9" d="M141.57,22.43a.44.44,0,0,1,.17.15l9.16,12.26a5.78,5.78,0,0,1,0-.58V22.39h.9V36.54h-.49a.42.42,0,0,1-.37-.2l-9.2-12.28q0,.3,0,.57V36.54h-.89V22.39h.5A.46.46,0,0,1,141.57,22.43Z"/><path class="cls-9" d="M164.05,35.87a10.8,10.8,0,0,0,1.33-.07,7,7,0,0,0,1.11-.23,7.08,7.08,0,0,0,1-.36c.31-.15.63-.31.94-.49V30.91h-2.72a.26.26,0,0,1-.19-.07.2.2,0,0,1-.07-.16v-.56h3.91v5a8.21,8.21,0,0,1-1.1.66,6.91,6.91,0,0,1-1.22.49,9.32,9.32,0,0,1-1.4.3,11.94,11.94,0,0,1-1.64.1,7.46,7.46,0,0,1-2.8-.51A6.39,6.39,0,0,1,159,34.73a6.53,6.53,0,0,1-1.4-2.29,9.1,9.1,0,0,1,0-5.95A6.48,6.48,0,0,1,159,24.21a6.22,6.22,0,0,1,2.23-1.46,7.91,7.91,0,0,1,3-.52,9.73,9.73,0,0,1,1.49.11,6.84,6.84,0,0,1,1.28.33,5.88,5.88,0,0,1,1.1.53,7.47,7.47,0,0,1,1,.72l-.27.44a.27.27,0,0,1-.25.15.33.33,0,0,1-.17,0,2,2,0,0,1-.44-.28,4.86,4.86,0,0,0-.77-.46A6.42,6.42,0,0,0,166,23.3a7.49,7.49,0,0,0-1.77-.19,6.78,6.78,0,0,0-2.49.44,5.54,5.54,0,0,0-1.9,1.26,5.82,5.82,0,0,0-1.21,2,7.88,7.88,0,0,0-.42,2.65,7.79,7.79,0,0,0,.43,2.69,5.86,5.86,0,0,0,1.2,2,5.2,5.2,0,0,0,1.86,1.26A6.25,6.25,0,0,0,164.05,35.87Z"/></g></svg>